<svg width="24" height="24" viewBox="0 0 24 24" fill="none" xmlns="http://www.w3.org/2000/svg">
<path d="M11.9999 0C9.21314 0.00663854 6.51471 0.978459 4.36361 2.75016V2.1818C4.36361 1.89248 4.24867 1.615 4.04409 1.41042C3.83951 1.20584 3.56203 1.0909 3.2727 1.0909C2.98338 1.0909 2.7059 1.20584 2.50132 1.41042C2.29674 1.615 2.1818 1.89248 2.1818 2.1818V5.45451C2.1818 5.48178 2.19489 5.50578 2.19708 5.53305C2.20436 5.60258 2.21824 5.67125 2.23853 5.73814C2.255 5.80554 2.27764 5.87127 2.30617 5.93451C2.33713 5.99451 2.37366 6.05149 2.41526 6.10469C2.43924 6.14693 2.46621 6.18739 2.49598 6.22578C2.51562 6.24541 2.5418 6.25305 2.56253 6.2705C2.58326 6.28796 2.59307 6.31196 2.6138 6.32832C2.65188 6.34929 2.69123 6.36787 2.73162 6.38396C2.79563 6.42282 2.86367 6.45464 2.93453 6.47887C2.99997 6.49879 3.06719 6.51231 3.13525 6.51923C3.18046 6.53089 3.22637 6.53963 3.2727 6.54541H6.54541C6.83474 6.54541 7.11221 6.43048 7.31679 6.22589C7.52138 6.02131 7.63631 5.74383 7.63631 5.45451C7.63631 5.16518 7.52138 4.88771 7.31679 4.68312C7.11221 4.47854 6.83474 4.36361 6.54541 4.36361H5.84614C7.57972 2.97051 9.73527 2.20792 11.9592 2.20091C14.1832 2.19391 16.3435 2.94292 18.0858 4.32507C19.8281 5.70723 21.049 7.64047 21.5481 9.80769C22.0473 11.9749 21.7951 14.2474 20.833 16.2525C19.8709 18.2576 18.2559 19.8761 16.2529 20.8427C14.25 21.8092 11.978 22.0664 9.80971 21.572C7.6414 21.0777 5.70547 19.8611 4.31947 18.1218C2.93348 16.3825 2.17971 14.2239 2.1818 11.9999C2.1818 11.7106 2.06687 11.4331 1.86229 11.2285C1.6577 11.024 1.38023 10.909 1.0909 10.909C0.801577 10.909 0.524101 11.024 0.319518 11.2285C0.114934 11.4331 0 11.7106 0 11.9999C0 14.3733 0.703783 16.6933 2.02235 18.6667C3.34092 20.6401 5.21505 22.1782 7.40775 23.0864C9.60045 23.9946 12.0132 24.2323 14.341 23.7693C16.6687 23.3062 18.8069 22.1634 20.4851 20.4851C22.1634 18.8069 23.3062 16.6687 23.7693 14.341C24.2323 12.0132 23.9946 9.60045 23.0864 7.40775C22.1782 5.21505 20.6401 3.34092 18.6667 2.02235C16.6933 0.703783 14.3733 0 11.9999 0Z" fill="black"/>
</svg>
