<svg width="16" height="15" viewBox="0 0 16 15" fill="none" xmlns="http://www.w3.org/2000/svg">
<path d="M15 8.36396C15.5523 8.36396 16 7.91625 16 7.36396C16 6.81168 15.5523 6.36396 15 6.36396V8.36396ZM0.292893 6.65685C-0.0976315 7.04738 -0.0976315 7.68054 0.292893 8.07107L6.65685 14.435C7.04738 14.8256 7.68054 14.8256 8.07107 14.435C8.46159 14.0445 8.46159 13.4113 8.07107 13.0208L2.41421 7.36396L8.07107 1.70711C8.46159 1.31658 8.46159 0.683417 8.07107 0.292892C7.68054 -0.0976319 7.04738 -0.0976319 6.65685 0.292892L0.292893 6.65685ZM15 6.36396L1 6.36396V8.36396L15 8.36396V6.36396Z" fill="white"/>
</svg>
