<svg width="8" height="11" viewBox="0 0 8 11" fill="none" xmlns="http://www.w3.org/2000/svg">
<path d="M0.105973 11V9.34682L3.96869 5.77023C4.29721 5.45231 4.57274 5.16619 4.79528 4.91185C5.02136 4.65751 5.19268 4.40848 5.30925 4.16474C5.42582 3.91747 5.4841 3.65077 5.4841 3.36464C5.4841 3.04672 5.41169 2.77296 5.26686 2.54335C5.12203 2.31021 4.92421 2.13182 4.67341 2.00819C4.42261 1.88102 4.13825 1.81744 3.82033 1.81744C3.48828 1.81744 3.19862 1.88455 2.95135 2.01879C2.70408 2.15302 2.51333 2.34554 2.37909 2.59634C2.24486 2.84714 2.17775 3.14563 2.17775 3.49181H0C0 2.78179 0.160726 2.16538 0.482177 1.64258C0.803629 1.11978 1.25401 0.715318 1.83333 0.42919C2.41265 0.143063 3.08028 0 3.83622 0C4.61336 0 5.28982 0.137765 5.86561 0.413295C6.44493 0.685292 6.89531 1.06326 7.21676 1.54721C7.53821 2.03115 7.69894 2.58574 7.69894 3.21098C7.69894 3.62075 7.6177 4.02521 7.4552 4.42437C7.29624 4.82354 7.01188 5.26686 6.60212 5.75434C6.19236 6.23828 5.6148 6.81937 4.86946 7.49759L3.28516 9.0501V9.12428H7.842V11H0.105973Z" fill="black"/>
</svg>
