<svg width="4" height="6" viewBox="0 0 4 6" fill="none" xmlns="http://www.w3.org/2000/svg">
<path d="M0.00578034 6V5.3526L2.00867 3.27746C2.22254 3.05202 2.39884 2.85453 2.53757 2.68497C2.67823 2.51349 2.78324 2.35067 2.8526 2.19653C2.92197 2.04239 2.95665 1.87861 2.95665 1.7052C2.95665 1.50867 2.9104 1.33911 2.81792 1.19653C2.72543 1.05202 2.59923 0.941233 2.43931 0.864162C2.27938 0.785164 2.09923 0.745665 1.89884 0.745665C1.6869 0.745665 1.50193 0.789017 1.34393 0.875722C1.18593 0.962428 1.06455 1.08478 0.979769 1.24277C0.89499 1.40077 0.852601 1.58574 0.852601 1.79769H0C0 1.43738 0.0828516 1.12235 0.248555 0.852601C0.414258 0.582852 0.641618 0.373796 0.930636 0.225434C1.21965 0.0751445 1.54817 0 1.91618 0C2.28805 0 2.61561 0.0741811 2.89884 0.222543C3.18401 0.368979 3.40655 0.569364 3.56647 0.823699C3.7264 1.07611 3.80636 1.36127 3.80636 1.67919C3.80636 1.89884 3.76493 2.11368 3.68208 2.3237C3.60116 2.53372 3.45954 2.76782 3.25723 3.02601C3.05491 3.28227 2.7736 3.59345 2.41329 3.95954L1.23699 5.19075V5.2341H3.90173V6H0.00578034Z" fill="black"/>
</svg>
