<svg width="5" height="6" viewBox="0 0 5 6" fill="none" xmlns="http://www.w3.org/2000/svg">
<path d="M2.06178 5.99999C1.67015 5.99999 1.32034 5.9325 1.01236 5.79752C0.706273 5.66254 0.463878 5.47528 0.285171 5.23574C0.108365 4.99429 0.013308 4.71482 0 4.39733H0.895436C0.906843 4.57034 0.964828 4.72053 1.06939 4.8479C1.17585 4.97338 1.31464 5.07034 1.48574 5.13878C1.65684 5.20722 1.84696 5.24144 2.05608 5.24144C2.28612 5.24144 2.48954 5.20152 2.66635 5.12167C2.84505 5.04182 2.98479 4.9306 3.08555 4.78802C3.18631 4.64353 3.23669 4.47718 3.23669 4.28897C3.23669 4.09315 3.18631 3.9211 3.08555 3.77281C2.98669 3.62262 2.84125 3.50475 2.64924 3.4192C2.45912 3.33365 2.22908 3.29087 1.95912 3.29087H1.46578V2.57224H1.95912C2.17585 2.57224 2.36597 2.53327 2.52946 2.45532C2.69486 2.37737 2.82414 2.26901 2.9173 2.13023C3.01045 1.98954 3.05703 1.82509 3.05703 1.63688C3.05703 1.45627 3.01616 1.29943 2.93441 1.16635C2.85456 1.03137 2.74049 0.925855 2.5922 0.849809C2.44581 0.773763 2.27281 0.735741 2.07319 0.735741C1.88308 0.735741 1.70532 0.770912 1.53992 0.841254C1.37642 0.909695 1.24334 1.00855 1.14068 1.13783C1.03802 1.26521 0.982889 1.41825 0.975284 1.59696H0.122623C0.132129 1.28137 0.225285 1.0038 0.402091 0.764258C0.580798 0.524714 0.816539 0.337452 1.10931 0.202471C1.40209 0.0674904 1.72718 0 2.0846 0C2.45912 0 2.78232 0.0731938 3.05418 0.219581C3.32794 0.364068 3.53897 0.557034 3.68726 0.798478C3.83745 1.03992 3.91159 1.30418 3.90969 1.59125C3.91159 1.91825 3.82034 2.19581 3.63593 2.42395C3.45342 2.65209 3.21007 2.80513 2.90589 2.88308V2.9287C3.29372 2.98764 3.5941 3.14163 3.80703 3.39068C4.02186 3.63973 4.12832 3.94866 4.12642 4.31749C4.12832 4.63878 4.03897 4.9268 3.85836 5.18155C3.67965 5.43631 3.43536 5.63688 3.12547 5.78326C2.81559 5.92775 2.46102 5.99999 2.06178 5.99999Z" fill="black"/>
</svg>
