<svg width="8" height="11" viewBox="0 0 8 11" fill="none" xmlns="http://www.w3.org/2000/svg">
<path d="M3.9719 10.7553C3.20853 10.7553 2.52866 10.6241 1.93227 10.3617C1.3393 10.0959 0.870716 9.73123 0.526519 9.26776C0.18573 8.80088 0.0102237 8.26243 0 7.65242H2.22876C2.24239 7.90801 2.32589 8.13293 2.47924 8.32718C2.636 8.51802 2.84389 8.66627 3.10288 8.77191C3.36188 8.87755 3.65326 8.93038 3.97701 8.93038C4.31439 8.93038 4.61258 8.87074 4.87158 8.75146C5.13058 8.63219 5.33335 8.4669 5.47989 8.25561C5.62643 8.04433 5.6997 7.80066 5.6997 7.52462C5.6997 7.24518 5.62132 6.9981 5.46455 6.78341C5.3112 6.5653 5.08969 6.39491 4.80001 6.27222C4.51375 6.14954 4.17296 6.0882 3.77765 6.0882H2.80129V4.46263H3.77765C4.11162 4.46263 4.4064 4.4047 4.66199 4.28883C4.92099 4.17296 5.12206 4.01279 5.26519 3.80832C5.40832 3.60044 5.47989 3.35848 5.47989 3.08244C5.47989 2.82003 5.41684 2.59 5.29075 2.39234C5.16807 2.19127 4.99426 2.03451 4.76934 1.92205C4.54783 1.80959 4.28883 1.75336 3.99234 1.75336C3.69245 1.75336 3.41811 1.80789 3.16934 1.91694C2.92056 2.02258 2.7212 2.17423 2.57125 2.37189C2.42131 2.56955 2.34122 2.80129 2.331 3.0671H0.209585C0.219809 2.4639 0.391907 1.93227 0.725881 1.47221C1.05985 1.01214 1.5097 0.652611 2.07541 0.393611C2.64452 0.131204 3.28691 0 4.00257 0C4.72504 0 5.3572 0.131204 5.89906 0.393611C6.44091 0.656019 6.86179 1.01044 7.16168 1.45687C7.46499 1.8999 7.61493 2.39745 7.61152 2.94953C7.61493 3.53569 7.43261 4.02472 7.06456 4.41663C6.69991 4.80853 6.22451 5.05731 5.63835 5.16295V5.24474C6.40854 5.34357 6.9947 5.61109 7.39683 6.0473C7.80237 6.4801 8.00343 7.02196 8.00002 7.67287C8.00343 8.26925 7.83133 8.79917 7.48373 9.26265C7.13953 9.72612 6.66413 10.0908 6.05753 10.3566C5.45092 10.6224 4.75571 10.7553 3.9719 10.7553Z" fill="black"/>
</svg>
