<svg width="11" height="11" viewBox="0 0 11 11" fill="none" xmlns="http://www.w3.org/2000/svg">
<path fill-rule="evenodd" clip-rule="evenodd" d="M1.00008 9.22067e-06L10.0001 9.30497e-06C10.5524 8.96779e-06 11.0001 0.447724 11.0001 1.00001L11.0001 10C11.0001 10.5523 10.5524 11 10.0001 11C9.4478 11 9.00008 10.5523 9.00008 10L9.00008 3.41422L2.22191 10.1924C1.83138 10.5829 1.19822 10.5829 0.807693 10.1924C0.417169 9.80187 0.417168 9.16871 0.807693 8.77818L7.58587 2.00001L1.00008 2.00001C0.447796 2.00001 8.08508e-05 1.55229 8.08508e-05 1.00001C8.08508e-05 0.447724 0.447796 9.22067e-06 1.00008 9.22067e-06Z" fill="black"/>
</svg>
