<svg width="9" height="12" viewBox="0 0 9 12" fill="none" xmlns="http://www.w3.org/2000/svg">
<path d="M0 11.6658V0H4.67087C5.5291 0 6.24492 0.127215 6.81834 0.381645C7.39175 0.636075 7.82277 0.989238 8.11137 1.44114C8.39998 1.88924 8.54428 2.40569 8.54428 2.9905C8.54428 3.44619 8.45314 3.84683 8.27087 4.1924C8.08859 4.53417 7.83796 4.81518 7.51897 5.03543C7.20378 5.25189 6.84302 5.40568 6.43669 5.49682V5.61075C6.881 5.62973 7.29682 5.75505 7.68416 5.98669C8.0753 6.21834 8.39238 6.54302 8.63542 6.96074C8.87846 7.37467 8.99998 7.86834 8.99998 8.44175C8.99998 9.06074 8.84618 9.61327 8.53859 10.0993C8.23479 10.5816 7.78479 10.9633 7.18859 11.2443C6.59239 11.5253 5.85758 11.6658 4.98416 11.6658H0ZM2.46645 9.64934H4.4772C5.16454 9.64934 5.66581 9.51833 5.981 9.25631C6.29619 8.99049 6.45378 8.63732 6.45378 8.19681C6.45378 7.87403 6.37593 7.58922 6.22024 7.34239C6.06454 7.09555 5.84239 6.90188 5.55378 6.76138C5.26897 6.62087 4.9291 6.55062 4.53417 6.55062H2.46645V9.64934ZM2.46645 4.88163H4.29493C4.6329 4.88163 4.9329 4.82277 5.19492 4.70505C5.46075 4.58353 5.66961 4.41265 5.8215 4.1924C5.9772 3.97214 6.05505 3.70822 6.05505 3.40063C6.05505 2.97911 5.90505 2.63923 5.60505 2.38101C5.30885 2.12278 4.88733 1.99367 4.3405 1.99367H2.46645V4.88163Z" fill="white"/>
</svg>
