<svg width="41" height="43" viewBox="0 0 41 43" fill="none" xmlns="http://www.w3.org/2000/svg">
<path fill-rule="evenodd" clip-rule="evenodd" d="M23.7008 7.09509L20.498 1.00692L17.2952 7.09509C16.7869 8.0613 15.6013 8.44653 14.6221 7.96362L8.45246 4.92075L9.43987 11.7287C9.59657 12.8092 8.86382 13.8177 7.78783 14.0026L1.00791 15.1673L5.80838 20.0947C6.57023 20.8767 6.57023 22.1233 5.80838 22.9053L1.00791 27.8327L7.78783 28.9974C8.86382 29.1823 9.59657 30.1908 9.43987 31.2712L8.45246 38.0792L14.6221 35.0364C15.6013 34.5535 16.7869 34.9387 17.2952 35.9049L20.498 41.9931L23.7008 35.9049C24.2091 34.9387 25.3947 34.5535 26.3738 35.0364L32.5435 38.0792L31.5561 31.2712C31.3994 30.1908 32.1322 29.1823 33.2081 28.9974L39.9881 27.8327L35.1876 22.9053C34.4257 22.1233 34.4257 20.8767 35.1876 20.0947L39.9881 15.1673L33.2081 14.0026C32.1322 13.8177 31.3994 12.8092 31.5561 11.7287L32.5435 4.92075L26.3738 7.96362C25.3947 8.44653 24.2091 8.0613 23.7008 7.09509ZM21.3891 0.538124C21.0117 -0.179375 19.9843 -0.179374 19.6068 0.538125L16.404 6.62629C16.1499 7.10939 15.5571 7.30201 15.0675 7.06056L8.89785 4.01769C8.17074 3.65908 7.33959 4.26295 7.45596 5.06528L8.44337 11.8733C8.52172 12.4135 8.15534 12.9178 7.61735 13.0102L0.837432 14.1749C0.0384104 14.3122 -0.279061 15.2892 0.286681 15.8699L5.08715 20.7973C5.46807 21.1883 5.46807 21.8117 5.08715 22.2027L0.28668 27.1301C-0.279062 27.7108 0.0384113 28.6878 0.837434 28.8251L7.61735 29.9898C8.15534 30.0822 8.52172 30.5865 8.44337 31.1267L7.45596 37.9347C7.33959 38.737 8.17074 39.3409 8.89785 38.9823L15.0675 35.9394C15.5571 35.698 16.1499 35.8906 16.404 36.3737L19.6068 42.4619C19.9843 43.1794 21.0117 43.1794 21.3891 42.4619L24.5919 36.3737C24.8461 35.8906 25.4389 35.698 25.9285 35.9394L32.0981 38.9823C32.8252 39.3409 33.6564 38.737 33.54 37.9347L32.5526 31.1267C32.4742 30.5865 32.8406 30.0822 33.3786 29.9898L40.1585 28.8251C40.9576 28.6878 41.275 27.7108 40.7093 27.1301L35.9088 22.2027C35.5279 21.8117 35.5279 21.1883 35.9088 20.7973L40.7093 15.8699C41.275 15.2892 40.9576 14.3122 40.1585 14.1749L33.3786 13.0102C32.8406 12.9178 32.4742 12.4135 32.5526 11.8733L33.54 5.06528C33.6564 4.26295 32.8252 3.65908 32.0981 4.01769L25.9285 7.06056C25.4389 7.30201 24.8461 7.10939 24.5919 6.62629L21.3891 0.538124Z" fill="black"/>
</svg>
