<svg width="41" height="43" viewBox="0 0 41 43" fill="none" xmlns="http://www.w3.org/2000/svg">
<path d="M19.6068 0.538125C19.9843 -0.179374 21.0117 -0.179375 21.3891 0.538124L24.5919 6.62629C24.8461 7.10939 25.4389 7.30201 25.9285 7.06056L32.0981 4.01769C32.8252 3.65908 33.6564 4.26295 33.54 5.06528L32.5526 11.8733C32.4742 12.4135 32.8406 12.9178 33.3786 13.0102L40.1585 14.1749C40.9576 14.3122 41.275 15.2892 40.7093 15.8699L35.9088 20.7973C35.5279 21.1883 35.5279 21.8117 35.9088 22.2027L40.7093 27.1301C41.275 27.7108 40.9576 28.6878 40.1585 28.8251L33.3786 29.9898C32.8406 30.0822 32.4742 30.5865 32.5526 31.1267L33.54 37.9347C33.6564 38.737 32.8252 39.3409 32.0981 38.9823L25.9285 35.9394C25.4389 35.698 24.8461 35.8906 24.5919 36.3737L21.3891 42.4619C21.0117 43.1794 19.9843 43.1794 19.6068 42.4619L16.404 36.3737C16.1499 35.8906 15.5571 35.698 15.0675 35.9394L8.89785 38.9823C8.17074 39.3409 7.33959 38.737 7.45596 37.9347L8.44337 31.1267C8.52172 30.5865 8.15534 30.0822 7.61735 29.9898L0.837434 28.8251C0.0384113 28.6878 -0.279062 27.7108 0.28668 27.1301L5.08715 22.2027C5.46807 21.8117 5.46807 21.1883 5.08715 20.7973L0.286681 15.8699C-0.279061 15.2892 0.0384104 14.3122 0.837432 14.1749L7.61735 13.0102C8.15534 12.9178 8.52172 12.4135 8.44337 11.8733L7.45596 5.06528C7.33959 4.26295 8.17074 3.65908 8.89785 4.01769L15.0675 7.06056C15.5571 7.30201 16.1499 7.10939 16.404 6.62629L19.6068 0.538125Z" fill="black"/>
</svg>
