<svg width="344" height="599" viewBox="0 0 344 599" fill="none" xmlns="http://www.w3.org/2000/svg">
<path fill-rule="evenodd" clip-rule="evenodd" d="M86 1H5C2.79087 1 1 2.79087 1 5.00002V594C1 596.209 2.79086 598 5 598H339C341.209 598 343 596.209 343 594V42C343 39.7909 341.209 38 339 38H96C92.6863 38 90 35.3137 90 32V5C90 2.79086 88.2091 1 86 1ZM86 0C88.7614 0 91 2.23858 91 5V32C91 34.7614 93.2386 37 96 37H339C341.761 37 344 39.2386 344 42V594C344 596.761 341.761 599 339 599H5C2.23858 599 0 596.761 0 594V5.00002C0 2.23859 2.23858 0 5 0H86Z" fill="black"/>
</svg>
