<svg width="124" height="81" viewBox="0 0 124 81" fill="none" xmlns="http://www.w3.org/2000/svg">
<path fill-rule="evenodd" clip-rule="evenodd" d="M5 1C2.79086 1 1 2.79086 1 5V76C1 78.2091 2.79086 80 5 80H83.6639C81.9613 76.7041 81 72.9632 81 69C81 55.7452 91.7452 45 105 45C112.169 45 118.603 48.1439 123 53.1252V5C123 2.79086 121.209 1 119 1H5ZM124 5C124 2.23858 121.761 0 119 0H5C2.23858 0 0 2.23858 0 5V76C0 78.7614 2.23858 81 5 81H85.3747C85.1738 80.672 84.9808 80.3386 84.796 80C83.0132 76.7324 82 72.9845 82 69C82 56.2975 92.2975 46 105 46C112.289 46 118.786 49.3907 123 54.6808C123.349 55.1193 123.683 55.5708 124 56.0346V5Z" fill="black"/>
</svg>
