<svg width="11" height="12" viewBox="0 0 11 12" fill="none" xmlns="http://www.w3.org/2000/svg">
<path d="M10.5228 5.99999C10.5228 7.24714 10.2947 8.31938 9.83839 9.21672C9.38212 10.1103 8.75664 10.7985 7.96197 11.2814C7.17109 11.7604 6.27186 12 5.26425 12C4.25285 12 3.34981 11.7604 2.55513 11.2814C1.76426 10.7985 1.14068 10.1084 0.68441 9.21102C0.228137 8.31368 0 7.24334 0 5.99999C0 4.75285 0.228137 3.68251 0.68441 2.78897C1.14068 1.89163 1.76426 1.20342 2.55513 0.724334C3.34981 0.241445 4.25285 0 5.26425 0C6.27186 0 7.17109 0.241445 7.96197 0.724334C8.75664 1.20342 9.38212 1.89163 9.83839 2.78897C10.2947 3.68251 10.5228 4.75285 10.5228 5.99999ZM8.77756 5.99999C8.77756 5.04942 8.62357 4.24904 8.31558 3.59885C8.0114 2.94486 7.59315 2.45057 7.06083 2.11597C6.53231 1.77756 5.93345 1.60836 5.26425 1.60836C4.59125 1.60836 3.99049 1.77756 3.46197 2.11597C2.93346 2.45057 2.51521 2.94486 2.20722 3.59885C1.90304 4.24904 1.75095 5.04942 1.75095 5.99999C1.75095 6.95056 1.90304 7.75284 2.20722 8.40683C2.51521 9.05702 2.93346 9.55132 3.46197 9.88972C3.99049 10.2243 4.59125 10.3916 5.26425 10.3916C5.93345 10.3916 6.53231 10.2243 7.06083 9.88972C7.59315 9.55132 8.0114 9.05702 8.31558 8.40683C8.62357 7.75284 8.77756 6.95056 8.77756 5.99999Z" fill="black"/>
</svg>
