<svg width="22" height="12" viewBox="0 0 22 12" fill="none" xmlns="http://www.w3.org/2000/svg">
<path fill-rule="evenodd" clip-rule="evenodd" d="M22.0001 7.14248C21.6967 6.39777 21.7536 5.65612 19.3225 4.50034C18.178 4.22426 15.2249 3.82847 14.6669 2.76846C14.3844 2.2326 14.4523 1.47719 14.4523 0.0728397L7.999 0C7.999 1.41505 8.0534 2.16944 7.73747 2.69919C7.14355 3.69604 3.27806 4.42292 2.07873 4.74892C0.0359348 5.67547 0.269511 6.23885 0 6.99323C1.42553 8.49411 3.12973 9.69011 5.01312 10.5114C6.8965 11.3327 8.92133 11.7629 10.9694 11.7768C13.0174 11.7907 15.0477 11.388 16.9416 10.5923C18.8355 9.79666 20.5552 8.62388 22.0001 7.14248Z" fill="#F9DCA4"/>
</svg>
