<svg width="9" height="12" viewBox="0 0 9 12" fill="none" xmlns="http://www.w3.org/2000/svg">
<path d="M0 11.8553V0H2.46599V4.45731H2.54125C2.6493 4.21804 2.80559 3.97492 3.01013 3.72793C3.21852 3.47709 3.48866 3.26869 3.82055 3.10275C4.1563 2.93295 4.57308 2.84805 5.07091 2.84805C5.71925 2.84805 6.31741 3.01785 6.86541 3.35745C7.41341 3.6932 7.85142 4.20068 8.17945 4.87988C8.50748 5.55523 8.67149 6.40232 8.67149 7.42113C8.67149 8.41293 8.51134 9.25036 8.19103 9.93343C7.87458 10.6126 7.44235 11.1278 6.89436 11.479C6.35022 11.8263 5.74047 12 5.06512 12C4.58659 12 4.17945 11.9209 3.84371 11.7627C3.51182 11.6044 3.23975 11.4057 3.0275 11.1664C2.81524 10.9233 2.65316 10.6782 2.54125 10.4313H2.43126V11.8553H0ZM2.41389 7.40955C2.41389 7.93826 2.48722 8.39942 2.63386 8.79305C2.78051 9.18669 2.99277 9.49349 3.27062 9.71346C3.54848 9.92957 3.88615 10.0376 4.28365 10.0376C4.685 10.0376 5.0246 9.92764 5.30246 9.70767C5.58032 9.48384 5.79064 9.17511 5.93343 8.78148C6.08008 8.38398 6.1534 7.92668 6.1534 7.40955C6.1534 6.89629 6.08201 6.44477 5.93922 6.05499C5.79643 5.66522 5.58611 5.36035 5.30825 5.14038C5.03039 4.92041 4.68886 4.81042 4.28365 4.81042C3.88229 4.81042 3.54269 4.91655 3.26483 5.1288C2.99083 5.34105 2.78051 5.64206 2.63386 6.03184C2.48722 6.42161 2.41389 6.88085 2.41389 7.40955Z" fill="black"/>
</svg>
