<svg width="6" height="9" viewBox="0 0 6 9" fill="none" xmlns="http://www.w3.org/2000/svg">
<path d="M0 9.00001V0.127086H2.38575V1.67523H2.47818C2.63993 1.12452 2.91142 0.708601 3.29268 0.427472C3.67394 0.142491 4.11297 0 4.60976 0C4.73299 0 4.86585 0.0077021 5.00834 0.0231063C5.15084 0.0385112 5.276 0.0596922 5.38383 0.0866494V2.27022C5.2683 2.23556 5.10847 2.20475 4.90437 2.17779C4.70026 2.15084 4.51348 2.13736 4.34404 2.13736C3.98203 2.13736 3.65853 2.2163 3.37355 2.3742C3.09242 2.52824 2.86906 2.74391 2.70347 3.02118C2.54172 3.29846 2.46084 3.6181 2.46084 3.98011V9.00001H0Z" fill="white"/>
</svg>
