<svg width="9" height="10" viewBox="0 0 9 10" fill="none" xmlns="http://www.w3.org/2000/svg">
<path d="M4.67486 9.73009C3.70553 9.73009 2.87117 9.53377 2.17179 9.14113C1.47649 8.7444 0.940699 8.18407 0.564419 7.46014C0.18814 6.73212 0 5.87118 0 4.87731C0 3.90799 0.18814 3.05727 0.564419 2.32516C0.940699 1.59305 1.47035 1.0225 2.15338 0.613498C2.8405 0.204499 3.64623 0 4.57057 0C5.19224 0 5.77098 0.100205 6.30676 0.300614C6.84664 0.496934 7.31699 0.793458 7.71781 1.19019C8.12272 1.58692 8.43765 2.08589 8.6626 2.68712C8.88755 3.28426 9.00002 3.98365 9.00002 4.78529V5.50308H1.04295V3.88345H6.5399C6.5399 3.50717 6.4581 3.17383 6.2945 2.88344C6.1309 2.59305 5.9039 2.36606 5.61351 2.20246C5.32721 2.03477 4.99388 1.95093 4.61351 1.95093C4.21678 1.95093 3.86504 2.04295 3.55829 2.227C3.25563 2.40696 3.01841 2.65031 2.84663 2.95706C2.67485 3.25972 2.58692 3.59715 2.58283 3.96934V5.50922C2.58283 5.97548 2.66872 6.37834 2.8405 6.71781C3.01637 7.05728 3.26381 7.31904 3.58283 7.50309C3.90185 7.68714 4.28018 7.77916 4.71781 7.77916C5.0082 7.77916 5.27404 7.73826 5.51535 7.65646C5.75666 7.57466 5.96321 7.45196 6.13499 7.28836C6.30677 7.12476 6.43765 6.92435 6.52763 6.68713L8.94481 6.84664C8.82211 7.42742 8.57058 7.93458 8.19021 8.36812C7.81393 8.79757 7.32722 9.13295 6.73008 9.37426C6.13703 9.61148 5.45196 9.73009 4.67486 9.73009Z" fill="white"/>
</svg>
