<svg width="12" height="16" viewBox="0 0 12 16" fill="none" xmlns="http://www.w3.org/2000/svg">
<path d="M5.99999 15.3879C4.75213 15.3831 3.67838 15.076 2.77876 14.4666C1.88397 13.8571 1.19474 12.9744 0.711066 11.8185C0.232233 10.6625 -0.00476414 9.27195 7.25505e-05 7.64682C7.25505e-05 6.02652 0.239489 4.64565 0.718322 3.50419C1.20199 2.36273 1.89122 1.49454 2.78601 0.899626C3.68563 0.299876 4.75696 0 5.99999 0C7.24303 0 8.31194 0.299876 9.20672 0.899626C10.1064 1.49938 10.798 2.36998 11.2817 3.51144C11.7653 4.64806 12.0048 6.02652 11.9999 7.64682C11.9999 9.27678 11.7581 10.6698 11.2744 11.8257C10.7956 12.9817 10.1088 13.8644 9.21398 14.4738C8.31919 15.0832 7.24786 15.3879 5.99999 15.3879ZM5.99999 12.7834C6.85125 12.7834 7.53081 12.3553 8.03866 11.4992C8.54652 10.6431 8.79802 9.35901 8.79319 7.64682C8.79319 6.51987 8.67711 5.58155 8.44494 4.83186C8.21762 4.08217 7.89356 3.5187 7.47277 3.14143C7.05681 2.76417 6.56589 2.57554 5.99999 2.57554C5.15357 2.57554 4.47644 2.99875 3.96858 3.84517C3.46073 4.69159 3.20438 5.95881 3.19955 7.64682C3.19955 8.78828 3.31321 9.7411 3.54053 10.5053C3.77269 11.2647 4.09917 11.8354 4.51997 12.2175C4.94076 12.5948 5.4341 12.7834 5.99999 12.7834Z" fill="black"/>
</svg>
