<svg width="6" height="9" viewBox="0 0 6 9" fill="none" xmlns="http://www.w3.org/2000/svg">
<path d="M2.90896 9C2.36561 9 1.87717 8.89596 1.44364 8.68786C1.01301 8.47688 0.669075 8.18786 0.411849 7.82081C0.154624 7.45376 0.0173411 7.03468 0 6.56359H1.30058C1.33237 6.94509 1.50145 7.25867 1.8078 7.50434C2.11416 7.75 2.48121 7.87284 2.90896 7.87284C3.25 7.87284 3.55202 7.7948 3.81503 7.63873C4.08093 7.47977 4.28902 7.26156 4.43931 6.98411C4.59249 6.70665 4.66908 6.39018 4.66908 6.03468C4.66908 5.67341 4.59104 5.35116 4.43497 5.06792C4.2789 4.78468 4.06359 4.56214 3.78902 4.40029C3.51734 4.23844 3.2052 4.15607 2.8526 4.15318C2.58381 4.15318 2.31358 4.19942 2.04191 4.29191C1.77023 4.38439 1.55058 4.50578 1.38295 4.65607L0.156068 4.47399L0.654624 0H5.53613V1.14884H1.76879L1.48699 3.63295H1.53902C1.71243 3.46532 1.9422 3.32515 2.22832 3.21243C2.51734 3.09971 2.82659 3.04335 3.15607 3.04335C3.69653 3.04335 4.17775 3.17197 4.59971 3.42919C5.02457 3.68642 5.35838 4.03757 5.60116 4.48266C5.84682 4.92486 5.96821 5.43353 5.96532 6.00867C5.96821 6.58382 5.83815 7.09682 5.57514 7.54769C5.31503 7.99856 4.95376 8.35405 4.49133 8.61416C4.03179 8.87139 3.50434 9 2.90896 9Z" fill="black"/>
</svg>
