<svg width="8" height="10" viewBox="0 0 8 10" fill="none" xmlns="http://www.w3.org/2000/svg">
<path d="M2.96727 9.22182C2.39709 9.22182 1.88897 9.12291 1.44291 8.92509C0.996849 8.72339 0.643879 8.42667 0.384 8.03491C0.128 7.63927 0 7.14667 0 6.55709C0 6.06061 0.091152 5.64364 0.273455 5.30618C0.455758 4.96873 0.704 4.69721 1.01818 4.49164C1.33236 4.28606 1.68921 4.13091 2.08873 4.02618C2.49212 3.92145 2.91491 3.84776 3.35709 3.80509C3.87685 3.75079 4.29576 3.70036 4.61382 3.65382C4.93188 3.60339 5.16267 3.5297 5.30618 3.43273C5.4497 3.33576 5.52146 3.19224 5.52146 3.00218V2.96727C5.52146 2.59879 5.40509 2.3137 5.17236 2.112C4.94352 1.9103 4.6177 1.80945 4.19491 1.80945C3.74885 1.80945 3.39394 1.90836 3.13018 2.10618C2.86642 2.30012 2.69188 2.54448 2.60655 2.83927L0.314182 2.65309C0.430545 2.11006 0.659394 1.64073 1.00073 1.24509C1.34206 0.845575 1.7823 0.539151 2.32146 0.325817C2.86449 0.108606 3.49285 0 4.20654 0C4.70303 0 5.17818 0.0581816 5.632 0.174545C6.0897 0.290909 6.49503 0.471272 6.848 0.715636C7.20485 0.96 7.48606 1.27418 7.69164 1.65818C7.89721 2.0383 8 2.49406 8 3.02545V9.05309H5.64946V7.81382H5.57964C5.43612 8.09309 5.24412 8.33939 5.00364 8.55273C4.76315 8.76218 4.47418 8.92703 4.13673 9.04727C3.79927 9.16364 3.40946 9.22182 2.96727 9.22182ZM3.67709 7.51127C4.0417 7.51127 4.36364 7.43952 4.64291 7.296C4.92218 7.14861 5.14133 6.95079 5.30036 6.70255C5.45939 6.4543 5.53891 6.17309 5.53891 5.85891V4.91055C5.46133 4.96097 5.35467 5.00752 5.21891 5.05018C5.08703 5.08897 4.9377 5.12582 4.77091 5.16073C4.60412 5.19176 4.43733 5.22085 4.27054 5.248C4.10376 5.27127 3.95249 5.29261 3.81673 5.312C3.52582 5.35467 3.27176 5.42254 3.05455 5.51564C2.83733 5.60873 2.66861 5.73479 2.54836 5.89382C2.42812 6.04897 2.368 6.24291 2.368 6.47564C2.368 6.81309 2.49018 7.07103 2.73455 7.24945C2.98279 7.424 3.29697 7.51127 3.67709 7.51127Z" fill="white"/>
</svg>
