<svg width="9" height="13" viewBox="0 0 9 13" fill="none" xmlns="http://www.w3.org/2000/svg">
<path d="M4.49401 12.984C3.66601 12.984 2.95601 12.87 2.36401 12.642C1.77601 12.418 1.30801 12.112 0.960008 11.724C0.612007 11.336 0.386 10.9 0.281999 10.416L2.64601 10.098C2.71801 10.282 2.83201 10.454 2.98801 10.614C3.14401 10.774 3.35001 10.902 3.60601 10.998C3.86601 11.098 4.18201 11.148 4.55401 11.148C5.11001 11.148 5.56802 11.012 5.92802 10.74C6.29202 10.472 6.47402 10.022 6.47402 9.39002V7.70402H6.36602C6.25402 7.96002 6.08602 8.20202 5.86202 8.43002C5.63802 8.65802 5.35002 8.84402 4.99801 8.98802C4.64601 9.13202 4.22601 9.20402 3.73801 9.20402C3.04601 9.20402 2.41601 9.04402 1.848 8.72402C1.284 8.40002 0.834007 7.90602 0.498006 7.24202C0.166006 6.57402 0 5.73001 0 4.71001C0 3.66601 0.170002 2.79401 0.510003 2.094C0.850004 1.394 1.302 0.870002 1.866 0.522001C2.434 0.174 3.05601 0 3.73201 0C4.24802 0 4.68002 0.0880002 5.02802 0.264001C5.37602 0.436001 5.65602 0.652001 5.86802 0.912002C6.08402 1.168 6.25002 1.42 6.36602 1.668H6.46202V0.12H9.00002V9.42602C9.00002 10.21 8.80802 10.866 8.42402 11.394C8.04002 11.922 7.50802 12.318 6.82802 12.582C6.15202 12.85 5.37402 12.984 4.49401 12.984ZM4.54802 7.28402C4.96002 7.28402 5.30802 7.18202 5.59202 6.97802C5.88002 6.77002 6.10002 6.47402 6.25202 6.09002C6.40802 5.70201 6.48602 5.23801 6.48602 4.69801C6.48602 4.15801 6.41002 3.69001 6.25802 3.29401C6.10602 2.89401 5.88602 2.58401 5.59802 2.36401C5.31002 2.14401 4.96002 2.034 4.54802 2.034C4.12802 2.034 3.77401 2.148 3.48601 2.37601C3.19801 2.60001 2.98001 2.91201 2.83201 3.31201C2.684 3.71201 2.61001 4.17401 2.61001 4.69801C2.61001 5.23001 2.684 5.69001 2.83201 6.07802C2.98401 6.46202 3.20201 6.76002 3.48601 6.97202C3.77401 7.18002 4.12802 7.28402 4.54802 7.28402Z" fill="white"/>
</svg>
