<svg width="25" height="22" viewBox="0 0 25 22" fill="none" xmlns="http://www.w3.org/2000/svg">
<path fill-rule="evenodd" clip-rule="evenodd" d="M3.06946 5.68363C3.06946 5.68363 3.06946 5.68363 3.06946 5.68364L1.81071 15.1242C1.45026 17.8278 3.5534 20.2299 6.28073 20.2299H18.2333C20.9606 20.2299 23.0638 17.8278 22.7033 15.1243L21.4445 5.68364L21.4445 5.68361C21.1458 3.44333 19.2347 1.77011 16.9745 1.77011H7.53949C5.27927 1.77011 3.36818 3.44331 3.06946 5.68363ZM1.31487 5.44968C1.73085 2.32995 4.3921 0 7.53949 0H16.9745C20.1218 0 22.7832 2.32992 23.1991 5.44968C23.1991 5.44969 23.1991 5.4497 23.1991 5.44971L24.4579 14.8903C24.9598 18.655 22.0311 22 18.2333 22H6.28073C2.48284 22 -0.445808 18.655 0.0561251 14.8903L0.932523 15.0072L0.0561256 14.8903L1.31487 5.44969L1.31487 5.44968Z" fill="black"/>
</svg>
