<svg width="13" height="20" viewBox="0 0 13 20" fill="none" xmlns="http://www.w3.org/2000/svg">
<path fill-rule="evenodd" clip-rule="evenodd" d="M6.49996 1.8322C3.92203 1.8322 1.8322 3.92203 1.8322 6.49996V7.89592C1.8322 8.40187 1.42205 8.81202 0.916101 8.81202C0.410153 8.81202 0 8.40187 0 7.89592V6.49996C0 2.91013 2.91013 0 6.49996 0C10.0897 0 12.9999 2.91012 12.9999 6.49996V7.89592C12.9999 8.40187 12.5898 8.81202 12.0838 8.81202C11.5779 8.81202 11.1677 8.40187 11.1677 7.89592V6.49996C11.1677 3.92203 9.07784 1.8322 6.49996 1.8322ZM2.31207 12.5637C2.81801 12.5637 3.22817 12.9738 3.22817 13.4798V14.8757C3.22817 16.6828 4.69293 18.1475 6.49996 18.1475C8.30698 18.1475 9.77175 16.6828 9.77175 14.8757V13.4798C9.77175 12.9738 10.1819 12.5637 10.6879 12.5637C11.1938 12.5637 11.604 12.9738 11.604 13.4798V14.8757C11.604 17.6947 9.31888 19.9797 6.49996 19.9797C3.68104 19.9797 1.39596 17.6947 1.39596 14.8757V13.4798C1.39596 12.9738 1.80612 12.5637 2.31207 12.5637Z" fill="black"/>
</svg>
