<svg width="11" height="12" viewBox="0 0 11 12" fill="none" xmlns="http://www.w3.org/2000/svg">
<path d="M10.0779 3.95817H8.29847C8.23003 3.57794 8.10265 3.24334 7.91634 2.95437C7.73003 2.6654 7.50189 2.42015 7.23193 2.21863C6.96197 2.01711 6.65969 1.86502 6.32509 1.76236C5.99429 1.65969 5.64258 1.60836 5.26996 1.60836C4.59695 1.60836 3.99429 1.77756 3.46197 2.11597C2.93346 2.45437 2.51521 2.95057 2.20722 3.60456C1.90304 4.25855 1.75095 5.05703 1.75095 5.99999C1.75095 6.95056 1.90304 7.75284 2.20722 8.40683C2.51521 9.06083 2.93536 9.55512 3.46768 9.88972C4 10.2243 4.59885 10.3916 5.26425 10.3916C5.63307 10.3916 5.98288 10.3422 6.31368 10.2433C6.64828 10.1407 6.95056 9.99048 7.22052 9.79276C7.49049 9.59505 7.71862 9.3536 7.90493 9.06843C8.09505 8.77946 8.22623 8.44866 8.29847 8.07604L10.0779 8.08174C9.98288 8.65588 9.79847 9.1844 9.5247 9.66729C9.25474 10.1464 8.90683 10.5608 8.48098 10.9106C8.05893 11.2566 7.57604 11.5247 7.03231 11.7148C6.48859 11.9049 5.89543 12 5.25285 12C4.24144 12 3.3403 11.7604 2.54943 11.2814C1.75855 10.7985 1.13498 10.1084 0.678706 9.21102C0.226235 8.31368 0 7.24334 0 5.99999C0 4.75285 0.228137 3.68251 0.68441 2.78897C1.14068 1.89163 1.76426 1.20342 2.55513 0.724334C3.346 0.241445 4.24524 0 5.25285 0C5.87262 0 6.45056 0.0893537 6.98668 0.268061C7.52661 0.442965 8.0114 0.70152 8.44105 1.04373C8.87071 1.38213 9.22623 1.79658 9.50759 2.28707C9.78896 2.77376 9.97908 3.33079 10.0779 3.95817Z" fill="black"/>
</svg>
