<svg width="8" height="12" viewBox="0 0 8 12" fill="none" xmlns="http://www.w3.org/2000/svg">
<path d="M1.75196 6.65626V12H0V0H1.72852V4.46485H1.83984C2.05078 3.98047 2.37305 3.59571 2.80664 3.31055C3.24024 3.02539 3.80664 2.88282 4.50586 2.88282C5.12305 2.88282 5.66211 3.00977 6.12305 3.26368C6.5879 3.51758 6.94727 3.89649 7.20118 4.40039C7.45899 4.9004 7.5879 5.5254 7.5879 6.2754V12H5.83594V6.48633C5.83594 5.82618 5.66602 5.31446 5.32618 4.95118C4.98633 4.58399 4.51368 4.40039 3.90821 4.40039C3.49414 4.40039 3.12305 4.48829 2.79492 4.66407C2.4707 4.83985 2.21484 5.09766 2.02734 5.43751C1.84375 5.77344 1.75196 6.17969 1.75196 6.65626Z" fill="black"/>
</svg>
