<svg width="8" height="11" viewBox="0 0 8 11" fill="none" xmlns="http://www.w3.org/2000/svg">
<path d="M3.9263 11C3.17742 11 2.50979 10.8622 1.92341 10.5867C1.34056 10.3112 0.877809 9.93143 0.535163 9.44749C0.192517 8.96355 0.0141298 8.40895 0 7.78371H2.22543C2.25016 8.20407 2.42678 8.54495 2.7553 8.80635C3.08381 9.06775 3.47415 9.19845 3.9263 9.19845C4.28661 9.19845 4.60453 9.11897 4.88006 8.96001C5.15912 8.79752 5.37636 8.57321 5.53179 8.28709C5.69075 7.99743 5.77023 7.66538 5.77023 7.29094C5.77023 6.90944 5.68898 6.57386 5.52649 6.2842C5.36753 5.99454 5.14675 5.76846 4.86416 5.60597C4.58156 5.44348 4.25835 5.36047 3.89451 5.35693C3.57659 5.35693 3.2675 5.42228 2.96724 5.55298C2.67052 5.68368 2.43914 5.86207 2.27312 6.08815L0.23314 5.72254L0.74711 0H7.38102V1.87572H2.63873L2.3579 4.59393H2.42148C2.61223 4.32546 2.90013 4.10292 3.28516 3.9263C3.6702 3.74968 4.10115 3.66137 4.57803 3.66137C5.23153 3.66137 5.81438 3.81503 6.32659 4.12235C6.83879 4.42967 7.24325 4.85179 7.53998 5.38872C7.8367 5.92212 7.9833 6.53677 7.97976 7.23265C7.9833 7.96387 7.81374 8.61383 7.47109 9.18256C7.13198 9.74774 6.65687 10.1928 6.04576 10.5178C5.43818 10.8393 4.73169 11 3.9263 11Z" fill="black"/>
</svg>
