<svg width="10" height="12" viewBox="0 0 10 12" fill="none" xmlns="http://www.w3.org/2000/svg">
<path d="M6.70974 3.51734C6.66414 3.05748 6.46841 2.70024 6.12257 2.4456C5.77673 2.19097 5.30736 2.06366 4.71449 2.06366C4.31164 2.06366 3.9715 2.12066 3.69406 2.23468C3.41663 2.34489 3.2038 2.49881 3.05558 2.69644C2.91116 2.89406 2.83896 3.11829 2.83896 3.36912C2.83136 3.57815 2.87506 3.76057 2.97007 3.91639C3.06888 4.07221 3.2038 4.20712 3.37482 4.32114C3.54584 4.43135 3.74347 4.52826 3.9677 4.61187C4.19193 4.69168 4.43135 4.76009 4.68598 4.8171L5.73492 5.06793C6.24418 5.18194 6.71164 5.33396 7.13729 5.52399C7.56294 5.71401 7.93159 5.94774 8.24323 6.22517C8.55487 6.50261 8.7962 6.82945 8.96722 7.2057C9.14204 7.58194 9.23135 8.0133 9.23515 8.49976C9.23135 9.21425 9.04893 9.83372 8.68788 10.3582C8.33064 10.8789 7.81377 11.2836 7.13729 11.5724C6.46461 11.8575 5.65321 12 4.70309 12C3.76057 12 2.93967 11.8556 2.24038 11.5667C1.54489 11.2779 1.00143 10.8503 0.609977 10.2841C0.222329 9.71401 0.0190024 9.00902 0 8.16912H2.3886C2.4152 8.56057 2.52732 8.88741 2.72494 9.14964C2.92637 9.40807 3.1943 9.60379 3.52874 9.73681C3.86699 9.86603 4.24893 9.93064 4.67459 9.93064C5.09264 9.93064 5.45558 9.86983 5.76342 9.74821C6.07506 9.6266 6.31639 9.45748 6.48741 9.24085C6.65843 9.02422 6.74394 8.77529 6.74394 8.49406C6.74394 8.23182 6.66603 8.0114 6.51021 7.83277C6.35819 7.65415 6.13396 7.50213 5.83753 7.37672C5.54489 7.2513 5.18575 7.13729 4.7601 7.03467L3.48884 6.71543C2.50452 6.47601 1.72732 6.10166 1.15725 5.5924C0.587176 5.08313 0.304043 4.39715 0.307844 3.53444C0.304043 2.82755 0.492167 2.20997 0.872214 1.68171C1.25606 1.15344 1.78242 0.741092 2.45131 0.444655C3.12019 0.148218 3.88028 0 4.73159 0C5.5981 0 6.3544 0.148218 7.00048 0.444655C7.65036 0.741092 8.15582 1.15344 8.51686 1.68171C8.87791 2.20997 9.06413 2.82185 9.07553 3.51734H6.70974Z" fill="white"/>
</svg>
