<svg width="10" height="11" viewBox="0 0 10 11" fill="none" xmlns="http://www.w3.org/2000/svg">
<path d="M9.64591 5.5C9.64591 6.64322 9.43679 7.62611 9.01854 8.44867C8.60029 9.26774 8.02693 9.89861 7.29848 10.3413C6.57351 10.7804 5.74921 11 4.82557 11C3.89845 11 3.07066 10.7804 2.34221 10.3413C1.61724 9.89861 1.04563 9.266 0.627376 8.44344C0.209126 7.62088 0 6.63973 0 5.5C0 4.35678 0.209126 3.37563 0.627376 2.55656C1.04563 1.734 1.61724 1.10314 2.34221 0.663973C3.07066 0.221324 3.89845 0 4.82557 0C5.74921 0 6.57351 0.221324 7.29848 0.663973C8.02693 1.10314 8.60029 1.734 9.01854 2.55656C9.43679 3.37563 9.64591 4.35678 9.64591 5.5ZM8.0461 5.5C8.0461 4.62864 7.90494 3.89496 7.62262 3.29895C7.34379 2.69946 6.96039 2.24636 6.47243 1.93964C5.98796 1.62944 5.439 1.47433 4.82557 1.47433C4.20865 1.47433 3.65795 1.62944 3.17348 1.93964C2.689 2.24636 2.30561 2.69946 2.02329 3.29895C1.74445 3.89496 1.60504 4.62864 1.60504 5.5C1.60504 6.37136 1.74445 7.10678 2.02329 7.70627C2.30561 8.30228 2.689 8.75539 3.17348 9.06559C3.65795 9.37231 4.20865 9.52567 4.82557 9.52567C5.439 9.52567 5.98796 9.37231 6.47243 9.06559C6.96039 8.75539 7.34379 8.30228 7.62262 7.70627C7.90494 7.10678 8.0461 6.37136 8.0461 5.5Z" fill="black"/>
</svg>
