<svg width="8" height="13" viewBox="0 0 8 13" fill="none" xmlns="http://www.w3.org/2000/svg">
<path d="M4.05127 12.3305C3.35612 12.3305 2.75783 12.2393 2.2564 12.0569C1.75878 11.8746 1.35232 11.6334 1.03704 11.3333C0.721746 11.0332 0.486227 10.7046 0.330482 10.3475L1.79487 9.74356C1.89743 9.9107 2.03418 10.0873 2.20512 10.2735C2.37986 10.4634 2.61538 10.6249 2.91167 10.7578C3.21177 10.8908 3.59733 10.9572 4.06837 10.9572C4.71414 10.9572 5.24785 10.7996 5.6695 10.4843C6.09115 10.1728 6.30198 9.67519 6.30198 8.99143V7.27064H6.19371C6.09115 7.45677 5.943 7.6638 5.74927 7.89172C5.55934 8.11964 5.29723 8.31717 4.96295 8.48431C4.62867 8.65145 4.19372 8.73502 3.65811 8.73502C2.96675 8.73502 2.34377 8.57358 1.78917 8.25069C1.23836 7.924 0.801517 7.44347 0.47863 6.8091C0.159543 6.17092 0 5.3865 0 4.45583C0 3.52516 0.157645 2.72744 0.472934 2.06267C0.792022 1.39791 1.22887 0.888886 1.78347 0.535611C2.33807 0.178537 2.96675 0 3.66951 0C4.21271 0 4.65146 0.0911678 4.98574 0.273503C5.32002 0.45204 5.58023 0.660966 5.76637 0.900282C5.9563 1.1396 6.10255 1.35042 6.20511 1.53276H6.33047V0.113959H7.99998V9.0598C7.99998 9.81194 7.82524 10.4292 7.47576 10.9116C7.12628 11.3941 6.65335 11.7512 6.05696 11.9829C5.46437 12.2146 4.79581 12.3305 4.05127 12.3305ZM4.03418 7.32192C4.5242 7.32192 4.93826 7.20796 5.27634 6.98004C5.61822 6.74832 5.87653 6.41784 6.05127 5.98859C6.2298 5.55554 6.31907 5.03702 6.31907 4.43304C6.31907 3.84424 6.2317 3.32573 6.05696 2.87748C5.88222 2.42924 5.62582 2.07977 5.28774 1.82905C4.94965 1.57454 4.5318 1.44729 4.03418 1.44729C3.52136 1.44729 3.09401 1.58024 2.75213 1.84615C2.41025 2.10826 2.15194 2.46533 1.9772 2.91737C1.80626 3.36941 1.72079 3.87463 1.72079 4.43304C1.72079 5.00663 1.80816 5.50996 1.9829 5.943C2.15764 6.37605 2.41595 6.71413 2.75783 6.95725C3.1035 7.20036 3.52896 7.32192 4.03418 7.32192Z" fill="black"/>
</svg>
