<svg width="11" height="12" viewBox="0 0 11 12" fill="none" xmlns="http://www.w3.org/2000/svg">
<path d="M8.28137 3.84981C8.1711 3.5038 8.02282 3.19392 7.8365 2.92015C7.65399 2.64259 7.43536 2.40684 7.18061 2.21293C6.92586 2.01521 6.63498 1.86502 6.30799 1.76236C5.98479 1.6597 5.62928 1.60837 5.24145 1.60837C4.58365 1.60837 3.99049 1.77757 3.46198 2.11597C2.93346 2.45437 2.51521 2.95057 2.20722 3.60456C1.90304 4.25475 1.75095 5.05133 1.75095 5.9943C1.75095 6.94107 1.90494 7.74145 2.21293 8.39544C2.52091 9.04943 2.94297 9.54563 3.47909 9.88403C4.01521 10.2224 4.62548 10.3916 5.30989 10.3916C5.94487 10.3916 6.4981 10.2624 6.96958 10.0038C7.44487 9.74525 7.81179 9.38023 8.07034 8.90875C8.3327 8.43346 8.46388 7.87453 8.46388 7.23194L8.92015 7.31749H5.57795V5.86312H10.1692V7.19202C10.1692 8.17301 9.96008 9.02472 9.54183 9.74715C9.12738 10.4658 8.55323 11.0209 7.81939 11.4125C7.08935 11.8042 6.25285 12 5.30989 12C4.25285 12 3.3251 11.7567 2.52662 11.27C1.73194 10.7833 1.11217 10.0932 0.6673 9.19962C0.222433 8.30228 0 7.23764 0 6.0057C0 5.07415 0.129278 4.23764 0.387833 3.4962C0.646388 2.75475 1.00951 2.12548 1.47719 1.60837C1.94867 1.08745 2.5019 0.690115 3.13688 0.41635C3.77567 0.138783 4.47338 0 5.23004 0C5.86122 0 6.44867 0.0931559 6.9924 0.279468C7.53993 0.465779 8.02662 0.730038 8.45247 1.07224C8.88213 1.41445 9.23764 1.82129 9.51901 2.29278C9.80038 2.76046 9.9905 3.27947 10.0894 3.84981H8.28137Z" fill="black"/>
</svg>
