<svg width="9" height="9" viewBox="0 0 9 9" fill="none" xmlns="http://www.w3.org/2000/svg">
<path d="M2.464 3.86375V9H0V0.115681H2.34833V1.68316H2.45244C2.6491 1.16645 2.97879 0.757712 3.44151 0.45694C3.90424 0.152313 4.46529 0 5.12468 0C5.74164 0 6.27956 0.134961 6.73843 0.404884C7.1973 0.674807 7.55399 1.06041 7.80849 1.5617C8.06298 2.05913 8.19023 2.65296 8.19023 3.34319V9H5.72622V3.78278C5.73008 3.23907 5.59126 2.81491 5.30976 2.51028C5.02827 2.2018 4.64074 2.04756 4.14717 2.04756C3.81555 2.04756 3.52249 2.1189 3.268 2.26157C3.01735 2.40424 2.82069 2.61247 2.67802 2.88625C2.5392 3.15617 2.46786 3.48201 2.464 3.86375Z" fill="black"/>
</svg>
