<svg width="9" height="12" viewBox="0 0 9 12" fill="none" xmlns="http://www.w3.org/2000/svg">
<path d="M2.49609 6.79688V12H0V0H2.42578V4.58789H2.53125C2.73438 4.05664 3.0625 3.64062 3.51562 3.33984C3.96875 3.03516 4.53711 2.88281 5.2207 2.88281C5.8457 2.88281 6.39062 3.01953 6.85547 3.29297C7.32422 3.5625 7.6875 3.95117 7.94531 4.45898C8.20703 4.96289 8.33594 5.56641 8.33203 6.26953V12H5.83594V6.71484C5.83984 6.16016 5.69922 5.72852 5.41406 5.41992C5.13281 5.11133 4.73828 4.95703 4.23047 4.95703C3.89063 4.95703 3.58985 5.0293 3.32813 5.17383C3.07031 5.31836 2.86719 5.5293 2.71875 5.80664C2.57422 6.08008 2.5 6.41016 2.49609 6.79688Z" fill="black"/>
</svg>
