<svg width="10" height="13" viewBox="0 0 10 13" fill="none" xmlns="http://www.w3.org/2000/svg">
<path d="M4.99994 12.8232C3.96006 12.8191 3.06528 12.5632 2.3156 12.0553C1.56996 11.5475 0.995603 10.8119 0.592549 9.84862C0.193526 8.88532 -0.00397008 7.72654 6.0458e-05 6.37228C6.0458e-05 5.02205 0.199572 3.87133 0.598595 2.92012C1.00165 1.96892 1.576 1.24544 2.32165 0.749681C3.07133 0.249894 3.96409 0 4.99994 0C6.03579 0 6.92654 0.249894 7.67219 0.749681C8.42187 1.24947 8.99824 1.97496 9.40129 2.92617C9.80434 3.87335 10.0039 5.02205 9.99983 6.37228C9.99983 7.73057 9.7983 8.89137 9.39524 9.85466C8.99622 10.818 8.42388 11.5535 7.67824 12.0614C6.93259 12.5692 6.03982 12.8232 4.99994 12.8232ZM4.99994 10.6527C5.70932 10.6527 6.27561 10.296 6.69881 9.5826C7.12202 8.8692 7.33161 7.79909 7.32758 6.37228C7.32758 5.43317 7.23085 4.65124 7.03738 4.02651C6.84794 3.40177 6.5779 2.93222 6.22724 2.61783C5.88062 2.30345 5.47152 2.14626 4.99994 2.14626C4.2946 2.14626 3.73032 2.49893 3.30712 3.20428C2.88391 3.90962 2.67029 4.96562 2.66626 6.37228C2.66626 7.32349 2.76098 8.1175 2.95041 8.75433C3.14388 9.38712 3.41594 9.86273 3.7666 10.1811C4.11725 10.4955 4.52837 10.6527 4.99994 10.6527Z" fill="black"/>
</svg>
