<svg width="9" height="6" viewBox="0 0 9 6" fill="none" xmlns="http://www.w3.org/2000/svg">
<path fill-rule="evenodd" clip-rule="evenodd" d="M0.48987 0.0300072C0.374849 0.226386 0.339811 0.460946 0.392267 0.683384C0.441304 1.32904 0.360958 1.97812 0.156131 2.59103C-1.13369 4.81145 5.91102 8.54749 8.68063 3.43186C9.0427 2.87809 7.45902 2.36985 7.96802 0.663034C7.99776 0.589897 8.00928 0.510381 8.00155 0.43159C7.99383 0.3528 7.9671 0.27719 7.92375 0.211518C7.8804 0.145846 7.82179 0.0921578 7.75314 0.0552503C7.6845 0.0183427 7.60797 -0.000633855 7.53038 1.61534e-05C7.53038 1.61534e-05 4.72614 2.39984 0.48987 0.0300072Z" fill="#E9573E"/>
</svg>
