<svg width="9" height="12" viewBox="0 0 9 12" fill="none" xmlns="http://www.w3.org/2000/svg">
<path d="M2.1875 12C1.88068 12 1.5928 11.9754 1.32386 11.9261C1.05871 11.8807 0.839014 11.822 0.664772 11.75L1.21023 9.94318C1.49432 10.0303 1.75 10.0777 1.97727 10.0852C2.20833 10.0928 2.4072 10.0398 2.57386 9.92614C2.74432 9.8125 2.88258 9.61932 2.98864 9.34659L3.13068 8.97727L0 0H2.54546L4.35227 6.40909H4.44318L6.26704 0H8.82954L5.4375 9.67045C5.27462 10.1402 5.05303 10.5492 4.77273 10.8977C4.49621 11.25 4.14583 11.5208 3.72159 11.7102C3.29735 11.9034 2.78598 12 2.1875 12Z" fill="white"/>
</svg>
