<svg width="12" height="9" viewBox="0 0 12 9" fill="none" xmlns="http://www.w3.org/2000/svg">
<path d="M0 8.94261V0.114943H1.64944V1.55174H1.75864C1.94255 1.06514 2.24332 0.68583 2.66094 0.413797C3.07857 0.137932 3.57858 0 4.16096 0C4.751 0 5.24526 0.137932 5.64373 0.413797C6.04603 0.689661 6.34297 1.06897 6.53454 1.55174H6.6265C6.83723 1.08047 7.17248 0.704987 7.63225 0.425291C8.09203 0.141764 8.63993 0 9.27595 0C10.0767 0 10.73 0.25096 11.2357 0.75288C11.7453 1.2548 12.0001 2.01151 12.0001 3.02302V8.94261H10.2817V3.18394C10.2817 2.58623 10.1189 2.15328 9.79319 1.88507C9.46752 1.61687 9.07863 1.48277 8.62652 1.48277C8.06713 1.48277 7.63225 1.65519 7.32191 2.00002C7.01156 2.34102 6.85639 2.77972 6.85639 3.31612V8.94261H5.14373V3.07474C5.14373 2.59581 4.9943 2.21075 4.69545 1.91956C4.39659 1.62837 4.0077 1.48277 3.52877 1.48277C3.20309 1.48277 2.90233 1.56898 2.62646 1.7414C2.35443 1.90998 2.13412 2.14561 1.96554 2.4483C1.80078 2.75098 1.71841 3.10156 1.71841 3.50003V8.94261H0Z" fill="black"/>
</svg>
