<svg width="8" height="11" viewBox="0 0 8 11" fill="none" xmlns="http://www.w3.org/2000/svg">
<path d="M4.13131 10.6263C3.59933 10.6229 3.08586 10.5337 2.59091 10.3586C2.09933 10.1835 1.65825 9.89899 1.26768 9.50505C0.877105 9.11111 0.56734 8.58923 0.338384 7.93939C0.112795 7.28956 0 6.49158 0 5.54545C0.003367 4.67677 0.102694 3.90067 0.29798 3.21717C0.496634 2.5303 0.779462 1.94781 1.14646 1.4697C1.51684 0.991582 1.9596 0.627946 2.47475 0.378788C2.9899 0.126263 3.56734 0 4.20707 0C4.89731 0 5.50673 0.13468 6.03535 0.404041C6.56397 0.670034 6.98822 1.03199 7.30808 1.4899C7.63131 1.94781 7.8266 2.46128 7.89394 3.0303H5.73737C5.6532 2.67003 5.47643 2.38721 5.20707 2.18182C4.93771 1.97643 4.60438 1.87374 4.20707 1.87374C3.53367 1.87374 3.02189 2.16667 2.67172 2.75253C2.32492 3.33838 2.14815 4.13468 2.14141 5.14141H2.21212C2.367 4.83502 2.57576 4.57407 2.83838 4.35859C3.10438 4.13973 3.40572 3.97306 3.74242 3.85859C4.08249 3.74074 4.44108 3.68182 4.81818 3.68182C5.43098 3.68182 5.97643 3.8266 6.45455 4.11616C6.93266 4.40236 7.30977 4.7963 7.58586 5.29798C7.86195 5.79966 8 6.37374 8 7.0202C8 7.72054 7.8367 8.34343 7.5101 8.88889C7.18687 9.43434 6.73401 9.86195 6.15152 10.1717C5.57239 10.4781 4.89899 10.6296 4.13131 10.6263ZM4.12121 8.90909C4.45791 8.90909 4.75926 8.82828 5.02525 8.66667C5.29125 8.50505 5.5 8.28619 5.65152 8.0101C5.80303 7.73401 5.87879 7.42424 5.87879 7.08081C5.87879 6.73737 5.80303 6.42929 5.65152 6.15657C5.50337 5.88384 5.29798 5.66667 5.03535 5.50505C4.77273 5.34343 4.47306 5.26263 4.13636 5.26263C3.88384 5.26263 3.64983 5.30976 3.43434 5.40404C3.22222 5.49832 3.03535 5.62963 2.87374 5.79798C2.71549 5.96633 2.59091 6.16162 2.5 6.38384C2.40909 6.60269 2.36364 6.8367 2.36364 7.08586C2.36364 7.41919 2.43939 7.72391 2.59091 8C2.74579 8.27609 2.95455 8.49663 3.21717 8.66162C3.48316 8.8266 3.78451 8.90909 4.12121 8.90909Z" fill="black"/>
</svg>
