<svg width="6" height="11" viewBox="0 0 6 11" fill="none" xmlns="http://www.w3.org/2000/svg">
<path d="M5.28386 2.10212V3.93005H0V2.10212H5.28386ZM1.19958 0H3.63301V8.17998C3.63301 8.40466 3.66728 8.57984 3.73582 8.70551C3.80437 8.82737 3.89959 8.91306 4.02145 8.96256C4.14712 9.01207 4.29182 9.03682 4.45557 9.03682C4.56982 9.03682 4.68407 9.0273 4.79831 9.00826C4.91256 8.98541 5.00015 8.96828 5.06108 8.95685L5.4438 10.7676C5.32194 10.8057 5.15057 10.8495 4.92969 10.899C4.70882 10.9523 4.44034 10.9847 4.12426 10.9961C3.5378 11.019 3.0237 10.9409 2.58195 10.7619C2.14401 10.5829 1.80318 10.3049 1.55946 9.92794C1.31573 9.55093 1.19577 9.07491 1.19958 8.49987V0Z" fill="white"/>
</svg>
