<svg width="9" height="11" viewBox="0 0 9 11" fill="none" xmlns="http://www.w3.org/2000/svg">
<path d="M4.28907 11C3.39704 10.9965 2.62947 10.777 1.98638 10.3413C1.34674 9.9057 0.854053 9.27471 0.508304 8.44837C0.166012 7.62203 -0.00340562 6.628 5.18619e-05 5.46629C5.18619e-05 4.30803 0.171197 3.32092 0.513489 2.50495C0.859238 1.68898 1.35193 1.06836 1.99157 0.643093C2.63466 0.214364 3.40049 0 4.28907 0C5.17764 0 5.94175 0.214364 6.58138 0.643093C7.22447 1.07182 7.7189 1.69417 8.06464 2.51014C8.41039 3.32265 8.58154 4.30803 8.57808 5.46629C8.57808 6.63146 8.40521 7.62722 8.05946 8.45356C7.71717 9.2799 7.2262 9.91089 6.58657 10.3465C5.94693 10.7822 5.1811 11 4.28907 11ZM4.28907 9.13814C4.89759 9.13814 5.38336 8.83215 5.7464 8.22018C6.10943 7.6082 6.28922 6.69024 6.28577 5.46629C6.28577 4.66069 6.20279 3.98994 6.03683 3.45403C5.87433 2.91812 5.64267 2.51532 5.34187 2.24564C5.04453 1.97595 4.69359 1.84111 4.28907 1.84111C3.68401 1.84111 3.19996 2.14364 2.83692 2.7487C2.47389 3.35376 2.29064 4.25963 2.28718 5.46629C2.28718 6.28226 2.36843 6.96338 2.53093 7.50966C2.69689 8.05249 2.93027 8.46047 3.23107 8.73361C3.53188 9.0033 3.88454 9.13814 4.28907 9.13814Z" fill="black"/>
</svg>
