<svg width="8" height="11" viewBox="0 0 8 11" fill="none" xmlns="http://www.w3.org/2000/svg">
<path d="M3.9263 11C3.17742 11 2.50979 10.8622 1.92341 10.5867C1.34056 10.3112 0.87781 9.93144 0.535164 9.4475C0.192517 8.96355 0.0141298 8.40896 0 7.78372H2.22544C2.25016 8.20408 2.42678 8.54496 2.7553 8.80636C3.08382 9.06776 3.47415 9.19846 3.9263 9.19846C4.28661 9.19846 4.60453 9.11898 4.88006 8.96002C5.15912 8.79753 5.37637 8.57322 5.53179 8.28709C5.69075 7.99743 5.77023 7.66538 5.77023 7.29095C5.77023 6.90944 5.68899 6.57386 5.5265 6.2842C5.36754 5.99454 5.14676 5.76847 4.86416 5.60597C4.58157 5.44348 4.25835 5.36047 3.89451 5.35694C3.57659 5.35694 3.2675 5.42229 2.96725 5.55299C2.67052 5.68369 2.43915 5.86207 2.27312 6.08815L0.233141 5.72254L0.74711 0H7.38102V1.87572H2.63873L2.3579 4.59393H2.42149C2.61224 4.32547 2.90013 4.10292 3.28516 3.9263C3.6702 3.74968 4.10116 3.66137 4.57804 3.66137C5.23154 3.66137 5.81439 3.81503 6.32659 4.12235C6.83879 4.42967 7.24326 4.8518 7.53998 5.38873C7.83671 5.92213 7.9833 6.53677 7.97977 7.23266C7.9833 7.96387 7.81375 8.61384 7.4711 9.18256C7.13199 9.74775 6.65687 10.1928 6.04576 10.5178C5.43818 10.8393 4.7317 11 3.9263 11Z" fill="black"/>
</svg>
