<svg width="9" height="10" viewBox="0 0 9 10" fill="none" xmlns="http://www.w3.org/2000/svg">
<path d="M4.50004 9.44057C3.57543 9.44057 2.77582 9.24414 2.10121 8.85128C1.43056 8.45445 0.912701 7.90286 0.547617 7.1965C0.182534 6.48618 0 5.66276 0 4.72624C0 3.78178 0.182534 2.95638 0.547617 2.25002C0.912701 1.5397 1.43056 0.988105 2.10121 0.595243C2.77582 0.198414 3.57543 0 4.50004 0C5.42465 0 6.22229 0.198414 6.89293 0.595243C7.56754 0.988105 8.08738 1.5397 8.45246 2.25002C8.81755 2.95638 9.00009 3.78178 9.00009 4.72624C9.00009 5.66276 8.81755 6.48618 8.45246 7.1965C8.08738 7.90286 7.56754 8.45445 6.89293 8.85128C6.22229 9.24414 5.42465 9.44057 4.50004 9.44057ZM4.51195 7.47627C4.93259 7.47627 5.28378 7.35722 5.56553 7.11912C5.84728 6.87706 6.05958 6.54769 6.20244 6.13102C6.34927 5.71434 6.42268 5.24013 6.42268 4.70838C6.42268 4.17663 6.34927 3.70242 6.20244 3.28575C6.05958 2.86908 5.84728 2.53971 5.56553 2.29764C5.28378 2.05558 4.93259 1.93454 4.51195 1.93454C4.08734 1.93454 3.73019 2.05558 3.44051 2.29764C3.15479 2.53971 2.93852 2.86908 2.79169 3.28575C2.64884 3.70242 2.5774 4.17663 2.5774 4.70838C2.5774 5.24013 2.64884 5.71434 2.79169 6.13102C2.93852 6.54769 3.15479 6.87706 3.44051 7.11912C3.73019 7.35722 4.08734 7.47627 4.51195 7.47627Z" fill="white"/>
</svg>
