<svg width="6" height="9" viewBox="0 0 6 9" fill="none" xmlns="http://www.w3.org/2000/svg">
<path d="M0.00867048 9V8.0289L3.01301 4.91619C3.33382 4.57804 3.59827 4.28179 3.80636 4.02746C4.01734 3.77023 4.17486 3.52601 4.2789 3.2948C4.38295 3.06358 4.43497 2.81792 4.43497 2.5578C4.43497 2.26301 4.36561 2.00867 4.22688 1.7948C4.08815 1.57804 3.89885 1.41185 3.65896 1.29624C3.41908 1.17775 3.14884 1.1185 2.84827 1.1185C2.53035 1.1185 2.25289 1.18353 2.0159 1.31358C1.7789 1.44364 1.59682 1.62717 1.46965 1.86416C1.34249 2.10116 1.2789 2.37861 1.2789 2.69653H0C0 2.15607 0.124277 1.68353 0.372832 1.2789C0.621387 0.874278 0.962428 0.560694 1.39595 0.338151C1.82948 0.112717 2.32226 0 2.87428 0C3.43208 0 3.92341 0.111272 4.34827 0.333815C4.77601 0.553468 5.10983 0.854046 5.34971 1.23555C5.5896 1.61416 5.70954 2.04191 5.70954 2.51879C5.70954 2.84827 5.6474 3.17052 5.52312 3.48555C5.40174 3.80058 5.18931 4.15174 4.88584 4.53902C4.58237 4.92341 4.16041 5.39018 3.61994 5.93931L1.85549 7.78613V7.85116H5.8526V9H0.00867048Z" fill="black"/>
</svg>
