<svg width="11" height="12" viewBox="0 0 11 12" fill="none" xmlns="http://www.w3.org/2000/svg">
<path d="M10.5114 4.24904H8.0133C7.96767 3.92585 7.87452 3.63878 7.73383 3.38783C7.59315 3.13308 7.41254 2.91635 7.19201 2.73764C6.97148 2.55893 6.71672 2.42205 6.42775 2.32699C6.14258 2.23194 5.83269 2.18441 5.49809 2.18441C4.89353 2.18441 4.36692 2.3346 3.91825 2.63498C3.46958 2.93156 3.12167 3.36502 2.87452 3.93536C2.62737 4.5019 2.5038 5.19011 2.5038 5.99999C2.5038 6.83269 2.62737 7.53231 2.87452 8.09885C3.12547 8.66539 3.47528 9.09315 3.92395 9.38212C4.37262 9.67109 4.89163 9.81558 5.48098 9.81558C5.81178 9.81558 6.11786 9.77185 6.39923 9.6844C6.6844 9.59695 6.93725 9.46957 7.15779 9.30227C7.37832 9.13117 7.56083 8.92394 7.70531 8.6806C7.8536 8.43725 7.95627 8.15969 8.0133 7.8479L10.5114 7.85931C10.4468 8.39543 10.2852 8.91254 10.0266 9.41064C9.77185 9.90493 9.42775 10.3479 8.99429 10.7395C8.56463 11.1274 8.05132 11.4353 7.45436 11.6635C6.86121 11.8878 6.19011 12 5.44106 12C4.39923 12 3.46768 11.7642 2.64638 11.2928C1.8289 10.8213 1.18251 10.1388 0.707223 9.24524C0.235741 8.3517 0 7.26995 0 5.99999C0 4.72623 0.239543 3.64258 0.71863 2.74905C1.19772 1.85551 1.84791 1.1749 2.6692 0.707224C3.49049 0.235741 4.41444 0 5.44106 0C6.11786 0 6.74524 0.095057 7.32319 0.285171C7.90493 0.475285 8.42014 0.752851 8.86881 1.11787C9.31748 1.47909 9.6825 1.92205 9.96387 2.44677C10.249 2.97148 10.4315 3.57224 10.5114 4.24904Z" fill="black"/>
</svg>
