<svg width="9" height="9" viewBox="0 0 9 9" fill="none" xmlns="http://www.w3.org/2000/svg">
<path d="M2.46401 3.86375V9H0V0.115681H2.34833V1.68316H2.45244C2.6491 1.16645 2.97879 0.757711 3.44152 0.456939C3.90424 0.152312 4.4653 0 5.12468 0C5.74165 0 6.27957 0.13496 6.73843 0.404883C7.1973 0.674806 7.55399 1.06041 7.80849 1.5617C8.06298 2.05913 8.19023 2.65296 8.19023 3.34319V9H5.72622V3.78278C5.73008 3.23907 5.59126 2.81491 5.30977 2.51028C5.02828 2.2018 4.64075 2.04756 4.14717 2.04756C3.81555 2.04756 3.52249 2.11889 3.268 2.26157C3.01735 2.40424 2.8207 2.61247 2.67802 2.88625C2.53921 3.15617 2.46787 3.48201 2.46401 3.86375Z" fill="white"/>
</svg>
