<svg width="9" height="13" viewBox="0 0 9 13" fill="none" xmlns="http://www.w3.org/2000/svg">
<path d="M0 12.8089V0.120158H2.52333V1.6702H2.63748C2.74963 1.42188 2.91184 1.16954 3.12412 0.913205C3.34041 0.652862 3.62078 0.436576 3.96523 0.264349C4.31369 0.0881163 4.74627 0 5.26295 0C5.93584 0 6.55666 0.176233 7.12541 0.528698C7.69416 0.877158 8.14876 1.40385 8.48921 2.10878C8.82966 2.80971 8.99988 3.68887 8.99988 4.74627C8.99988 5.77563 8.83366 6.64477 8.50122 7.35371C8.17279 8.05864 7.7242 8.59335 7.15545 8.95783C6.5907 9.3183 5.95787 9.49854 5.25694 9.49854C4.76029 9.49854 4.33773 9.41643 3.98927 9.25222C3.64481 9.088 3.36244 8.88173 3.14215 8.6334C2.92186 8.38107 2.75364 8.12673 2.63748 7.87039H2.55938V12.8089H0ZM2.50531 4.73425C2.50531 5.28298 2.58141 5.76161 2.73361 6.17015C2.88581 6.57869 3.1061 6.89711 3.39448 7.12541C3.68286 7.3497 4.03333 7.46185 4.44587 7.46185C4.86242 7.46185 5.21489 7.3477 5.50327 7.1194C5.79165 6.88709 6.00993 6.56667 6.15813 6.15813C6.31033 5.74559 6.38643 5.27096 6.38643 4.73425C6.38643 4.20155 6.31234 3.73293 6.16414 3.32839C6.01594 2.92386 5.79765 2.60744 5.50927 2.37914C5.22089 2.15084 4.86642 2.03669 4.44587 2.03669C4.02932 2.03669 3.67685 2.14683 3.38847 2.36712C3.1041 2.58742 2.88581 2.89983 2.73361 3.30436C2.58141 3.7089 2.50531 4.18553 2.50531 4.73425Z" fill="white"/>
</svg>
