<svg width="9" height="12" viewBox="0 0 9 12" fill="none" xmlns="http://www.w3.org/2000/svg">
<path d="M2.4961 6.79688V12H0V0H2.42578V4.5879H2.53125C2.73438 4.05664 3.0625 3.64063 3.51563 3.33985C3.96875 3.03516 4.53711 2.88282 5.22071 2.88282C5.84571 2.88282 6.39063 3.01953 6.85548 3.29297C7.32423 3.5625 7.68751 3.95118 7.94532 4.45899C8.20704 4.9629 8.33595 5.56641 8.33204 6.26954V12H5.83594V6.71485C5.83985 6.16016 5.69923 5.72852 5.41407 5.41993C5.13282 5.11133 4.73829 4.95704 4.23047 4.95704C3.89063 4.95704 3.58985 5.0293 3.32813 5.17383C3.07032 5.31836 2.86719 5.5293 2.71875 5.80665C2.57422 6.08008 2.5 6.41016 2.4961 6.79688Z" fill="black"/>
</svg>
