<svg width="8" height="10" viewBox="0 0 8 10" fill="none" xmlns="http://www.w3.org/2000/svg">
<path d="M4.25246 9.4255C3.3695 9.4255 2.60929 9.22555 1.97181 8.82564C1.3383 8.42178 0.851284 7.86547 0.51077 7.15673C0.170256 6.44798 0 5.63629 0 4.72166C0 3.79514 0.174216 2.97751 0.522649 2.26877C0.871082 1.55607 1.36206 0.999764 1.99557 0.599858C2.62908 0.199953 3.37544 0 4.23464 0C4.92755 0 5.54523 0.128682 6.08767 0.386047C6.63012 0.639453 7.06764 0.995804 7.40023 1.4551C7.73679 1.9144 7.93674 2.45091 8.00009 3.06462H6.27179C6.17676 2.637 5.95899 2.26877 5.61848 1.95993C5.28192 1.65109 4.83054 1.49668 4.26434 1.49668C3.76941 1.49668 3.33585 1.62734 2.96366 1.88866C2.59543 2.14603 2.30837 2.51426 2.10247 2.99335C1.89658 3.46849 1.79364 4.03073 1.79364 4.68008C1.79364 5.34527 1.8946 5.9194 2.09654 6.40245C2.29847 6.8855 2.58355 7.25967 2.95178 7.52496C3.32397 7.79024 3.76149 7.92288 4.26434 7.92288C4.60089 7.92288 4.90577 7.86151 5.17897 7.73877C5.45614 7.61207 5.68777 7.43191 5.87386 7.1983C6.06392 6.96469 6.19656 6.68357 6.27179 6.35494H8.00009C7.93674 6.9449 7.74471 7.4715 7.42399 7.93476C7.10327 8.39802 6.67367 8.76229 6.13519 9.02757C5.60066 9.29286 4.97309 9.4255 4.25246 9.4255Z" fill="black"/>
</svg>
