<svg width="8" height="10" viewBox="0 0 8 10" fill="none" xmlns="http://www.w3.org/2000/svg">
<path d="M3.2514 9.96094C2.64163 9.96094 2.09033 9.84817 1.59751 9.62264C1.10468 9.39293 0.71418 9.0609 0.426002 8.62655C0.142 8.19219 0 7.65969 0 7.02904C0 6.48609 0.104412 6.03921 0.313237 5.68838C0.522062 5.33756 0.803975 5.05982 1.15898 4.85517C1.51398 4.65053 1.91074 4.496 2.34928 4.39158C2.78781 4.28717 3.23469 4.20782 3.68993 4.15352C4.26629 4.0867 4.73406 4.0324 5.09323 3.99064C5.45241 3.9447 5.71344 3.87161 5.87633 3.77137C6.03921 3.67114 6.12065 3.50825 6.12065 3.28272V3.23887C6.12065 2.69175 5.96612 2.26784 5.65706 1.96713C5.35218 1.66642 4.89694 1.51607 4.29135 1.51607C3.6607 1.51607 3.16369 1.65598 2.80034 1.9358C2.44116 2.21145 2.19266 2.51843 2.05483 2.85672L0.294442 2.45578C0.503267 1.87107 0.808152 1.39913 1.20909 1.03995C1.61421 0.676591 2.07989 0.413472 2.60613 0.250589C3.13237 0.0835296 3.68576 0 4.26629 0C4.65053 0 5.05773 0.0459414 5.48791 0.137824C5.92227 0.225531 6.32739 0.388413 6.70327 0.626473C7.08333 0.864534 7.39448 1.20492 7.63672 1.64763C7.87896 2.08616 8.00007 2.65625 8.00007 3.3579V9.74794H6.17077V8.43234H6.09559C5.97447 8.67458 5.7928 8.91264 5.55056 9.14652C5.30832 9.3804 4.99717 9.57461 4.61711 9.72914C4.23705 9.88367 3.78181 9.96094 3.2514 9.96094ZM3.65861 8.4574C4.17649 8.4574 4.6192 8.35507 4.98673 8.15043C5.35844 7.94578 5.64035 7.67848 5.83247 7.34854C6.02877 7.01442 6.12692 6.65733 6.12692 6.27727V5.03685C6.06009 5.10367 5.93062 5.16632 5.7385 5.22479C5.55056 5.27909 5.33547 5.32712 5.09323 5.36888C4.851 5.40647 4.61503 5.44197 4.38532 5.47538C4.15561 5.50462 3.96349 5.52968 3.80896 5.55056C3.44561 5.5965 3.11358 5.67377 2.81287 5.78236C2.51634 5.89094 2.27828 6.04756 2.09869 6.25221C1.92328 6.45268 1.83557 6.71998 1.83557 7.0541C1.83557 7.51769 2.0068 7.86851 2.34928 8.10657C2.69175 8.34046 3.12819 8.4574 3.65861 8.4574Z" fill="black"/>
</svg>
