<svg width="8" height="11" viewBox="0 0 8 11" fill="none" xmlns="http://www.w3.org/2000/svg">
<path d="M3.86609 5.43435e-05C4.3984 5.43435e-05 4.91051 0.0893352 5.40239 0.267897C5.89765 0.446459 6.339 0.731148 6.72645 1.12196C7.11726 1.51278 7.42553 2.03162 7.65126 2.67848C7.88036 3.32198 7.9966 4.11203 7.99996 5.04864C7.99996 5.92797 7.90057 6.71297 7.7018 7.40363C7.50639 8.09093 7.22507 8.67547 6.85784 9.15725C6.49061 9.63903 6.04757 10.0063 5.52873 10.2589C5.00989 10.5083 4.43041 10.6329 3.79028 10.6329C3.09962 10.6329 2.48981 10.4998 1.96086 10.2337C1.43192 9.96415 1.00573 9.5986 0.682294 9.13703C0.36223 8.6721 0.168507 8.14989 0.101125 7.5704H2.25903C2.34326 7.94774 2.52013 8.24085 2.78966 8.44974C3.05919 8.65525 3.39273 8.75801 3.79028 8.75801C4.4641 8.75801 4.9762 8.4649 5.32659 7.87868C5.67697 7.28909 5.85385 6.48219 5.85722 5.45798H5.78647C5.63149 5.7612 5.42261 6.02231 5.15982 6.2413C4.89703 6.45692 4.59549 6.62369 4.25522 6.74161C3.91831 6.85953 3.5595 6.91849 3.17879 6.91849C2.56899 6.91849 2.02488 6.7753 1.54647 6.48893C1.06805 6.20255 0.690717 5.80837 0.414451 5.30638C0.138185 4.80438 5.20992e-05 4.23163 5.20992e-05 3.58814C-0.00331699 2.8941 0.156715 2.27588 0.480148 1.73345C0.803581 1.19103 1.25504 0.766523 1.83452 0.459936C2.41738 0.149979 3.09456 -0.00331485 3.86609 5.43435e-05ZM3.88125 1.71829C3.54097 1.71829 3.23775 1.79915 2.97159 1.96087C2.7088 2.12258 2.49992 2.33989 2.34494 2.61279C2.19333 2.88568 2.11921 3.19058 2.12258 3.52749C2.12258 3.86777 2.1967 4.17436 2.34494 4.44726C2.49655 4.71678 2.70206 4.93241 2.96148 5.09412C3.22427 5.25247 3.52412 5.33164 3.86103 5.33164C4.11371 5.33164 4.34787 5.28448 4.56349 5.19014C4.77911 5.09581 4.9661 4.9661 5.12444 4.80101C5.28616 4.63256 5.4125 4.43883 5.50347 4.21984C5.59443 4.00085 5.63991 3.76838 5.63991 3.52244C5.63654 3.19564 5.55905 2.89579 5.40745 2.62289C5.25584 2.35 5.04695 2.13101 4.7808 1.96592C4.51464 1.80083 4.21479 1.71829 3.88125 1.71829Z" fill="black"/>
</svg>
