<svg width="8" height="11" viewBox="0 0 8 11" fill="none" xmlns="http://www.w3.org/2000/svg">
<path d="M3.99746 10.5928C3.22213 10.5928 2.5324 10.4669 1.92825 10.2152C1.32745 9.96009 0.85588 9.6127 0.513528 9.17301C0.171177 8.73333 0 8.2349 0 7.67774C0 7.24812 0.097336 6.85375 0.292007 6.49461C0.490034 6.13212 0.758544 5.83173 1.09754 5.59342C1.43653 5.35176 1.81581 5.19737 2.23536 5.13024V5.05976C1.68491 4.949 1.23851 4.68216 0.896156 4.25926C0.553804 3.833 0.382629 3.33793 0.382629 2.77406C0.382629 2.24039 0.5387 1.76546 0.850844 1.34927C1.16299 0.92972 1.59093 0.600794 2.13466 0.36249C2.68175 0.12083 3.30269 0 3.99746 0C4.69223 0 5.31149 0.12083 5.85522 0.36249C6.40231 0.60415 6.83193 0.934754 7.14408 1.3543C7.45622 1.7705 7.61397 2.24375 7.61733 2.77406C7.61397 3.34129 7.43944 3.83635 7.09373 4.25926C6.74802 4.68216 6.30498 4.949 5.7646 5.05976V5.13024C6.17744 5.19737 6.55167 5.35176 6.88731 5.59342C7.22631 5.83173 7.49482 6.13212 7.69285 6.49461C7.89423 6.85375 7.9966 7.24812 7.99996 7.67774C7.9966 8.2349 7.82375 8.73333 7.48139 9.17301C7.13904 9.6127 6.66579 9.96009 6.06164 10.2152C5.46085 10.4669 4.77279 10.5928 3.99746 10.5928ZM3.99746 8.99177C4.34317 8.99177 4.64524 8.92968 4.90369 8.80549C5.16213 8.67795 5.36351 8.50341 5.50784 8.28189C5.65552 8.05701 5.72936 7.79857 5.72936 7.50657C5.72936 7.20785 5.65384 6.94437 5.5028 6.71614C5.35176 6.48455 5.14702 6.3033 4.88858 6.1724C4.63014 6.03815 4.3331 5.97102 3.99746 5.97102C3.66518 5.97102 3.36814 6.03815 3.10634 6.1724C2.84454 6.3033 2.63812 6.48455 2.48709 6.71614C2.3394 6.94437 2.26556 7.20785 2.26556 7.50657C2.26556 7.79857 2.33773 8.05701 2.48205 8.28189C2.62638 8.50341 2.82944 8.67795 3.09124 8.80549C3.35303 8.92968 3.65511 8.99177 3.99746 8.99177ZM3.99746 4.38512C4.28611 4.38512 4.54287 4.32639 4.76775 4.20891C4.99263 4.09144 5.16884 3.92865 5.29638 3.72056C5.42393 3.51246 5.4877 3.27248 5.4877 3.00061C5.4877 2.7321 5.42393 2.49715 5.29638 2.29577C5.16884 2.09103 4.99431 1.9316 4.77279 1.81749C4.55126 1.70001 4.29282 1.64127 3.99746 1.64127C3.70545 1.64127 3.44701 1.70001 3.22213 1.81749C2.99726 1.9316 2.82105 2.09103 2.6935 2.29577C2.56932 2.49715 2.50722 2.7321 2.50722 3.00061C2.50722 3.27248 2.571 3.51246 2.69854 3.72056C2.82608 3.92865 3.00229 4.09144 3.22717 4.20891C3.45205 4.32639 3.70881 4.38512 3.99746 4.38512Z" fill="black"/>
</svg>
