<svg width="9" height="10" viewBox="0 0 9 10" fill="none" xmlns="http://www.w3.org/2000/svg">
<path d="M4.71848 9.89883C3.7365 9.89883 2.89184 9.69079 2.18448 9.27469C1.48128 8.85444 0.940364 8.27191 0.561721 7.52711C0.187238 6.7823 0 5.92515 0 4.95566C0 3.97368 0.18932 3.11237 0.567964 2.37173C0.950769 1.62692 1.49377 1.04647 2.19697 0.630379C2.90016 0.210126 3.7365 0 4.706 0C5.54234 0 6.27467 0.151873 6.90297 0.45562C7.53126 0.759368 8.0285 1.18586 8.39466 1.7351C8.76082 2.28435 8.96262 2.92929 9.00007 3.66993H6.49103C6.4203 3.19143 6.23306 2.80654 5.92931 2.51528C5.62973 2.21985 5.23652 2.07214 4.74969 2.07214C4.33776 2.07214 3.97784 2.18448 3.66993 2.40917C3.36618 2.6297 3.12901 2.95217 2.95841 3.37659C2.78781 3.801 2.70251 4.31488 2.70251 4.91821C2.70251 5.52986 2.78574 6.04998 2.95217 6.47855C3.12277 6.90713 3.36202 7.23376 3.66993 7.45845C3.97784 7.68314 4.33776 7.79549 4.74969 7.79549C5.05344 7.79549 5.32597 7.73307 5.56731 7.60824C5.8128 7.48342 6.01461 7.30242 6.17272 7.06524C6.335 6.82391 6.4411 6.53473 6.49103 6.19769H9.00007C8.95846 6.93001 8.75874 7.57496 8.4009 8.13252C8.04722 8.68592 7.55831 9.11866 6.93418 9.43073C6.31004 9.7428 5.57147 9.89883 4.71848 9.89883Z" fill="white"/>
</svg>
