<svg width="10" height="12" viewBox="0 0 10 12" fill="none" xmlns="http://www.w3.org/2000/svg">
<path d="M3.88477 12H0V0H4.00781C5.18359 0 6.19336 0.240234 7.03711 0.720703C7.88086 1.19727 8.52734 1.88281 8.97656 2.77734C9.42969 3.66797 9.65625 4.73633 9.65625 5.98242C9.65625 7.23242 9.42773 8.30664 8.9707 9.20508C8.51758 10.1035 7.86133 10.7949 7.00195 11.2793C6.14258 11.7598 5.10352 12 3.88477 12ZM1.81055 10.418H3.78516C4.69922 10.418 5.45898 10.2461 6.06445 9.90234C6.66992 9.55469 7.12305 9.05273 7.42383 8.39648C7.72461 7.73633 7.875 6.93164 7.875 5.98242C7.875 5.04102 7.72461 4.24219 7.42383 3.58594C7.12695 2.92969 6.68359 2.43164 6.09375 2.0918C5.50391 1.75195 4.77148 1.58203 3.89648 1.58203H1.81055V10.418Z" fill="black"/>
</svg>
