<svg width="9" height="12" viewBox="0 0 9 12" fill="none" xmlns="http://www.w3.org/2000/svg">
<path d="M4.43156 12C3.57985 12 2.82129 11.8536 2.15589 11.5608C1.4943 11.2643 0.971482 10.8574 0.587451 10.3403C0.207223 9.81939 0.0114068 9.21863 0 8.53802H2.48669C2.5019 8.8232 2.59506 9.07415 2.76616 9.29088C2.94106 9.5038 3.173 9.6692 3.46198 9.78707C3.75095 9.90494 4.07605 9.96388 4.43726 9.96388C4.81369 9.96388 5.14639 9.89734 5.43536 9.76426C5.72433 9.63118 5.95057 9.44677 6.11407 9.21103C6.27757 8.97529 6.35932 8.70342 6.35932 8.39544C6.35932 8.08365 6.27186 7.80799 6.09696 7.56844C5.92586 7.3251 5.67871 7.13498 5.35551 6.9981C5.03612 6.86122 4.65589 6.79278 4.21483 6.79278H3.12548V4.97909H4.21483C4.58745 4.97909 4.91635 4.91445 5.20152 4.78517C5.49049 4.65589 5.71483 4.47719 5.87452 4.24905C6.03422 4.01711 6.11407 3.74715 6.11407 3.43916C6.11407 3.14639 6.04373 2.88973 5.90304 2.6692C5.76616 2.44487 5.57224 2.26996 5.32129 2.14449C5.07414 2.01901 4.78517 1.95627 4.45437 1.95627C4.11977 1.95627 3.81369 2.01711 3.53612 2.13878C3.25855 2.25665 3.03612 2.42586 2.86882 2.64639C2.70152 2.86692 2.61217 3.12548 2.60076 3.42205H0.23384C0.245247 2.74905 0.437262 2.15589 0.809886 1.64259C1.18251 1.12928 1.68441 0.728137 2.31559 0.439164C2.95057 0.146388 3.6673 0 4.46578 0C5.27186 0 5.97719 0.146388 6.58175 0.439164C7.18631 0.731939 7.65589 1.12738 7.99049 1.62548C8.3289 2.11977 8.4962 2.67491 8.4924 3.29087C8.4962 3.94487 8.29278 4.49049 7.88213 4.92776C7.47529 5.36502 6.94487 5.64259 6.29088 5.76046V5.85171C7.15019 5.96198 7.80418 6.26046 8.25285 6.74715C8.70532 7.23004 8.92966 7.8346 8.92586 8.56084C8.92966 9.22624 8.73764 9.81749 8.34981 10.3346C7.96578 10.8517 7.43536 11.2586 6.75856 11.5551C6.08175 11.8517 5.30608 12 4.43156 12Z" fill="white"/>
</svg>
