<svg width="9" height="11" viewBox="0 0 9 11" fill="none" xmlns="http://www.w3.org/2000/svg">
<path d="M4.28907 11C3.39704 10.9965 2.62947 10.777 1.98638 10.3414C1.34674 9.90571 0.854052 9.27472 0.508303 8.44838C0.166011 7.62204 -0.00340562 6.62801 5.18622e-05 5.46629C5.18622e-05 4.30803 0.171198 3.32092 0.513489 2.50495C0.859238 1.68898 1.35193 1.06836 1.99157 0.643093C2.63466 0.214364 3.40049 0 4.28907 0C5.17764 0 5.94175 0.214364 6.58139 0.643093C7.22448 1.07182 7.7189 1.69417 8.06465 2.51014C8.4104 3.32265 8.58154 4.30803 8.57809 5.46629C8.57809 6.63147 8.40521 7.62722 8.05946 8.45356C7.71717 9.2799 7.22621 9.9109 6.58657 10.3465C5.94694 10.7822 5.1811 11 4.28907 11ZM4.28907 9.13815C4.89759 9.13815 5.38336 8.83216 5.7464 8.22018C6.10944 7.60821 6.28923 6.69024 6.28577 5.46629C6.28577 4.6607 6.20279 3.98994 6.03683 3.45403C5.87433 2.91812 5.64268 2.51532 5.34187 2.24564C5.04453 1.97596 4.69359 1.84111 4.28907 1.84111C3.68401 1.84111 3.19996 2.14364 2.83692 2.74871C2.47389 3.35377 2.29064 4.25963 2.28718 5.46629C2.28718 6.28226 2.36843 6.96339 2.53093 7.50967C2.69689 8.0525 2.93028 8.46048 3.23108 8.73362C3.53188 9.00331 3.88454 9.13815 4.28907 9.13815Z" fill="black"/>
</svg>
