<svg width="8" height="10" viewBox="0 0 8 10" fill="none" xmlns="http://www.w3.org/2000/svg">
<path d="M2.96727 9.22182C2.39708 9.22182 1.88897 9.12291 1.44291 8.92509C0.996846 8.72339 0.643879 8.42667 0.384 8.03491C0.128 7.63927 0 7.14667 0 6.55709C0 6.06061 0.0911501 5.64364 0.273453 5.30618C0.455756 4.96873 0.70399 4.69721 1.01817 4.49164C1.33235 4.28606 1.6892 4.13091 2.08872 4.02618C2.49211 3.92145 2.9149 3.84776 3.35708 3.80509C3.87684 3.75079 4.29575 3.70036 4.61381 3.65382C4.93187 3.60339 5.16266 3.5297 5.30617 3.43273C5.44969 3.33576 5.52145 3.19224 5.52145 3.00218V2.96727C5.52145 2.59879 5.40509 2.3137 5.17236 2.112C4.94351 1.9103 4.61769 1.80945 4.19491 1.80945C3.74885 1.80945 3.39393 1.90836 3.13017 2.10618C2.86641 2.30012 2.69188 2.54448 2.60655 2.83927L0.314172 2.65309C0.430536 2.11006 0.659385 1.64073 1.00072 1.24509C1.34205 0.845575 1.7823 0.539151 2.32145 0.325817C2.86448 0.108606 3.49285 0 4.20655 0C4.70303 0 5.17818 0.0581816 5.632 0.174545C6.0897 0.290909 6.49503 0.471272 6.848 0.715636C7.20485 0.96 7.48605 1.27418 7.69163 1.65818C7.8972 2.0383 8 2.49406 8 3.02545V9.05309H5.64945V7.81382H5.57963C5.43611 8.09309 5.24411 8.33939 5.00363 8.55273C4.76314 8.76218 4.47417 8.92703 4.13672 9.04727C3.79926 9.16364 3.40945 9.22182 2.96727 9.22182ZM3.67708 7.51127C4.04168 7.51127 4.36363 7.43952 4.64291 7.296C4.92218 7.14861 5.14133 6.95079 5.30036 6.70255C5.45939 6.4543 5.53891 6.17309 5.53891 5.85891V4.91055C5.46133 4.96097 5.35466 5.00752 5.21891 5.05018C5.08703 5.08897 4.93769 5.12582 4.77091 5.16073C4.60412 5.19176 4.43733 5.22085 4.27055 5.248C4.10376 5.27127 3.95248 5.29261 3.81672 5.312C3.52581 5.35467 3.27176 5.42254 3.05455 5.51564C2.83733 5.60873 2.6686 5.73479 2.54836 5.89382C2.42812 6.04897 2.368 6.24291 2.368 6.47564C2.368 6.81309 2.49018 7.07103 2.73455 7.24945C2.98279 7.424 3.29696 7.51127 3.67708 7.51127Z" fill="white"/>
</svg>
