<svg width="10" height="12" viewBox="0 0 10 12" fill="none" xmlns="http://www.w3.org/2000/svg">
<path d="M4.20142 11.8519H0V0H4.23614C5.42828 0 6.45452 0.23727 7.31486 0.711811C8.17521 1.18249 8.83687 1.85958 9.29983 2.74307C9.76666 3.62657 10.0001 4.68367 10.0001 5.91439C10.0001 7.14897 9.76666 8.20993 9.29983 9.09728C8.83687 9.98464 8.17135 10.6656 7.30329 11.1401C6.43909 11.6147 5.40513 11.8519 4.20142 11.8519ZM2.5058 9.70493H4.09725C4.838 9.70493 5.46107 9.57375 5.96648 9.31141C6.47574 9.0452 6.85769 8.63432 7.11232 8.07876C7.37081 7.51934 7.50005 6.79789 7.50005 5.91439C7.50005 5.03861 7.37081 4.32295 7.11232 3.76739C6.85769 3.21183 6.47767 2.80287 5.97226 2.54053C5.46686 2.27818 4.84378 2.14701 4.10304 2.14701H2.5058V9.70493Z" fill="white"/>
</svg>
