<svg width="9" height="12" viewBox="0 0 9 12" fill="none" xmlns="http://www.w3.org/2000/svg">
<path d="M3.60637 12C2.93102 12 2.31935 11.8263 1.77135 11.479C1.22721 11.1278 0.794986 10.6126 0.474677 9.93343C0.158228 9.25036 0 8.41293 0 7.42113C0 6.40231 0.164015 5.55523 0.492042 4.87988C0.820069 4.20067 1.25615 3.6932 1.80029 3.35745C2.34829 3.01785 2.94839 2.84805 3.60058 2.84805C4.09841 2.84805 4.51327 2.93295 4.84515 3.10275C5.1809 3.26869 5.45104 3.47709 5.65557 3.72793C5.86397 3.97491 6.02219 4.21804 6.13024 4.45731H6.2055V0H8.6657V11.8553H6.23445V10.4313H6.13024C6.01447 10.6782 5.85046 10.9233 5.63821 11.1664C5.42982 11.4057 5.15774 11.6044 4.822 11.7627C4.49011 11.9209 4.0849 12 3.60637 12ZM4.38785 10.0376C4.78534 10.0376 5.12108 9.92957 5.39508 9.71346C5.67294 9.49349 5.88519 9.18668 6.03184 8.79305C6.18234 8.39942 6.25759 7.93825 6.25759 7.40955C6.25759 6.88085 6.18428 6.42161 6.03763 6.03184C5.89098 5.64206 5.67873 5.34105 5.40087 5.1288C5.12301 4.91654 4.78534 4.81042 4.38785 4.81042C3.98264 4.81042 3.6411 4.9204 3.36324 5.14037C3.08539 5.36035 2.87506 5.66522 2.73227 6.05499C2.58948 6.44476 2.51809 6.89628 2.51809 7.40955C2.51809 7.92668 2.58948 8.38398 2.73227 8.78147C2.87892 9.17511 3.08925 9.48384 3.36324 9.70767C3.6411 9.92764 3.98264 10.0376 4.38785 10.0376Z" fill="white"/>
</svg>
