<svg width="4" height="6" viewBox="0 0 4 6" fill="none" xmlns="http://www.w3.org/2000/svg">
<path d="M0.00578033 5.99999V5.35259L2.00867 3.27745C2.22254 3.05202 2.39884 2.85452 2.53757 2.68497C2.67822 2.51348 2.78323 2.35067 2.8526 2.19653C2.92196 2.04239 2.95664 1.87861 2.95664 1.7052C2.95664 1.50867 2.9104 1.33911 2.81792 1.19653C2.72543 1.05202 2.59923 0.941232 2.4393 0.864161C2.27938 0.785163 2.09923 0.745664 1.89884 0.745664C1.6869 0.745664 1.50192 0.789016 1.34393 0.875721C1.18593 0.962426 1.06455 1.08478 0.979767 1.24277C0.894989 1.40077 0.8526 1.58574 0.8526 1.79769H0C0 1.43738 0.0828515 1.12235 0.248555 0.8526C0.414258 0.582851 0.641618 0.373795 0.930634 0.225433C1.21965 0.0751444 1.54817 0 1.91618 0C2.28805 0 2.6156 0.074181 2.89884 0.222543C3.184 0.368978 3.40655 0.569363 3.56647 0.823698C3.72639 1.07611 3.80635 1.36127 3.80635 1.67919C3.80635 1.89884 3.76493 2.11368 3.68208 2.3237C3.60115 2.53372 3.45953 2.76782 3.25722 3.02601C3.05491 3.28227 2.7736 3.59344 2.41329 3.95953L1.23699 5.19074V5.2341H3.90173V5.99999H0.00578033Z" fill="black"/>
</svg>
