<svg width="9" height="10" viewBox="0 0 9 10" fill="none" xmlns="http://www.w3.org/2000/svg">
<path d="M4.49994 9.97403C3.59492 9.97403 2.80513 9.76663 2.13056 9.35183C1.45599 8.93703 0.93225 8.35673 0.55935 7.61093C0.18645 6.86513 0 5.99363 0 4.99644C0 3.99506 0.18645 3.11937 0.55935 2.36938C0.93225 1.61939 1.45599 1.037 2.13056 0.622198C2.80513 0.207399 3.59492 0 4.49994 0C5.40495 0 6.19475 0.207399 6.86932 0.622198C7.54389 1.037 8.06763 1.61939 8.44053 2.36938C8.81343 3.11937 8.99988 3.99506 8.99988 4.99644C8.99988 5.99363 8.81343 6.86513 8.44053 7.61093C8.06763 8.35673 7.54389 8.93703 6.86932 9.35183C6.19475 9.76663 5.40495 9.97403 4.49994 9.97403ZM4.50622 8.39653C5.09281 8.39653 5.57884 8.24151 5.9643 7.93146C6.34977 7.6214 6.63469 7.2087 6.81904 6.69334C7.00759 6.17799 7.10186 5.61026 7.10186 4.99015C7.10186 4.37424 7.00759 3.80861 6.81904 3.29325C6.63469 2.77371 6.34977 2.35681 5.9643 2.04257C5.57884 1.72833 5.09281 1.57121 4.50622 1.57121C3.91545 1.57121 3.42523 1.72833 3.03557 2.04257C2.6501 2.35681 2.3631 2.77371 2.17455 3.29325C1.9902 3.80861 1.89802 4.37424 1.89802 4.99015C1.89802 5.61026 1.9902 6.17799 2.17455 6.69334C2.3631 7.2087 2.6501 7.6214 3.03557 7.93146C3.42523 8.24151 3.91545 8.39653 4.50622 8.39653Z" fill="black"/>
</svg>
