<svg width="8" height="10" viewBox="0 0 8 10" fill="none" xmlns="http://www.w3.org/2000/svg">
<path d="M7.79716 2.65312L5.53796 2.79215C5.49934 2.59905 5.4163 2.42527 5.28886 2.27079C5.16142 2.11246 4.99343 1.98694 4.78489 1.89426C4.58021 1.79771 4.33497 1.74944 4.04919 1.74944C3.66687 1.74944 3.3444 1.83054 3.08179 1.99274C2.81918 2.15107 2.68788 2.36348 2.68788 2.62995C2.68788 2.84235 2.77284 3.02193 2.94276 3.16868C3.11269 3.31543 3.40426 3.43322 3.81748 3.52205L5.42789 3.84644C6.29295 4.02409 6.93789 4.30987 7.3627 4.70378C7.78751 5.0977 7.99991 5.61519 7.99991 6.25626C7.99991 6.83941 7.82806 7.35111 7.48435 7.79137C7.1445 8.23162 6.67721 8.57533 6.08248 8.82249C5.49161 9.06579 4.80999 9.18744 4.03761 9.18744C2.85973 9.18744 1.92129 8.94221 1.22229 8.45175C0.527149 7.95743 0.119719 7.28546 0 6.43584L2.4272 6.3084C2.50058 6.66756 2.67822 6.94175 2.96014 7.13098C3.24206 7.31635 3.60315 7.40904 4.0434 7.40904C4.47594 7.40904 4.82351 7.32601 5.08612 7.15995C5.35259 6.99002 5.48775 6.77183 5.49161 6.50536C5.48775 6.28137 5.39313 6.09793 5.20776 5.95504C5.02239 5.80829 4.73661 5.69629 4.35042 5.61905L2.80953 5.31203C1.9406 5.13825 1.29374 4.83702 0.868929 4.40835C0.447983 3.97968 0.237508 3.43322 0.237508 2.76898C0.237508 2.19742 0.391982 1.70502 0.700933 1.2918C1.01375 0.87858 1.45207 0.559974 2.01591 0.335984C2.58361 0.111995 3.24785 0 4.00865 0C5.13246 0 6.01683 0.237506 6.66176 0.712518C7.31056 1.18753 7.68903 1.8344 7.79716 2.65312Z" fill="black"/>
</svg>
