<svg width="8" height="11" viewBox="0 0 8 11" fill="none" xmlns="http://www.w3.org/2000/svg">
<path d="M0.105973 11V9.34682L3.96869 5.77023C4.2972 5.45231 4.57273 5.16618 4.79527 4.91185C5.02135 4.65751 5.19267 4.40847 5.30924 4.16474C5.42581 3.91747 5.4841 3.65077 5.4841 3.36464C5.4841 3.04672 5.41168 2.77296 5.26686 2.54335C5.12203 2.31021 4.92421 2.13182 4.67341 2.00819C4.4226 1.88102 4.13824 1.81744 3.82032 1.81744C3.48828 1.81744 3.19862 1.88455 2.95135 2.01879C2.70407 2.15302 2.51333 2.34553 2.37909 2.59634C2.24486 2.84714 2.17774 3.14563 2.17774 3.49181H0C0 2.78179 0.160724 2.16538 0.482176 1.64258C0.803627 1.11978 1.25401 0.715318 1.83333 0.42919C2.41265 0.143063 3.08028 0 3.83622 0C4.61336 0 5.28982 0.137765 5.8656 0.413294C6.44492 0.685292 6.89531 1.06326 7.21676 1.54721C7.53821 2.03115 7.69893 2.58574 7.69893 3.21098C7.69893 3.62074 7.61769 4.02521 7.4552 4.42437C7.29624 4.82354 7.01188 5.26686 6.60211 5.75433C6.19235 6.23827 5.6148 6.81936 4.86946 7.49759L3.28516 9.05009V9.12427H7.842V11H0.105973Z" fill="black"/>
</svg>
