<svg width="8" height="12" viewBox="0 0 8 12" fill="none" xmlns="http://www.w3.org/2000/svg">
<path d="M1.75195 6.65625V12H0V0H1.72852V4.46484H1.83984C2.05078 3.98047 2.37305 3.5957 2.80664 3.31055C3.24023 3.02539 3.80664 2.88281 4.50586 2.88281C5.12305 2.88281 5.66211 3.00977 6.12305 3.26367C6.58789 3.51758 6.94727 3.89648 7.20117 4.40039C7.45898 4.90039 7.58789 5.52539 7.58789 6.27539V12H5.83594V6.48633C5.83594 5.82617 5.66601 5.31445 5.32617 4.95117C4.98633 4.58398 4.51367 4.40039 3.9082 4.40039C3.49414 4.40039 3.12305 4.48828 2.79492 4.66406C2.4707 4.83984 2.21484 5.09766 2.02734 5.4375C1.84375 5.77344 1.75195 6.17969 1.75195 6.65625Z" fill="black"/>
</svg>
