<svg width="9" height="12" viewBox="0 0 9 12" fill="none" xmlns="http://www.w3.org/2000/svg">
<path d="M4.34936 6.11366e-05C4.94822 6.11366e-05 5.52434 0.100502 6.07771 0.301385C6.63488 0.502268 7.1314 0.822544 7.56728 1.26221C8.00694 1.70188 8.35375 2.28558 8.6077 3.01331C8.86544 3.73724 8.9962 4.62605 8.99999 5.67974C8.99999 6.669 8.88818 7.55212 8.66455 8.32912C8.44472 9.10233 8.12823 9.75994 7.7151 10.3019C7.30196 10.8439 6.80355 11.2571 6.21985 11.5414C5.63615 11.8218 4.98423 11.9621 4.26408 11.9621C3.48708 11.9621 2.80105 11.8124 2.20598 11.5129C1.61091 11.2097 1.13145 10.7985 0.767582 10.2792C0.407508 9.75615 0.18957 9.16866 0.113766 8.51674H2.54142C2.63617 8.94125 2.83516 9.271 3.13838 9.50599C3.4416 9.7372 3.81683 9.8528 4.26408 9.8528C5.02213 9.8528 5.59825 9.52305 5.99243 8.86355C6.38662 8.20025 6.5856 7.29249 6.58939 6.14026H6.5098C6.33545 6.48138 6.10046 6.77512 5.80482 7.02149C5.50918 7.26406 5.16995 7.45168 4.78713 7.58434C4.40811 7.717 4.00445 7.78333 3.57615 7.78333C2.89012 7.78333 2.27799 7.62224 1.73978 7.30007C1.20157 6.9779 0.777058 6.53444 0.466258 5.96969C0.155458 5.40495 5.86121e-05 4.76061 5.86121e-05 4.03667C-0.00373163 3.25588 0.176304 2.56037 0.540168 1.95014C0.904031 1.33991 1.41192 0.862342 2.06385 0.51743C2.71956 0.168727 3.48139 -0.00372922 4.34936 6.11366e-05ZM4.36642 1.93309C3.9836 1.93309 3.64248 2.02405 3.34305 2.20598C3.04741 2.38791 2.81242 2.63239 2.63807 2.93939C2.46751 3.2464 2.38412 3.58942 2.38791 3.96845C2.38791 4.35126 2.4713 4.69617 2.63807 5.00318C2.80863 5.3064 3.03983 5.54898 3.33168 5.73091C3.62732 5.90905 3.96465 5.99812 4.34368 5.99812C4.62795 5.99812 4.89137 5.94506 5.13394 5.83893C5.37652 5.7328 5.58688 5.58688 5.76502 5.40116C5.94695 5.21165 6.08909 4.99371 6.19142 4.74734C6.29376 4.50098 6.34493 4.23945 6.34493 3.96276C6.34114 3.59511 6.25396 3.25778 6.0834 2.95077C5.91284 2.64376 5.67784 2.39739 5.37841 2.21167C5.07899 2.02595 4.74165 1.93309 4.36642 1.93309Z" fill="black"/>
</svg>
