<svg width="8" height="11" viewBox="0 0 8 11" fill="none" xmlns="http://www.w3.org/2000/svg">
<path d="M0 11V0H4.02832C4.80892 0 5.45524 0.128906 5.96729 0.386719C6.47933 0.640951 6.86247 0.986491 7.1167 1.42334C7.37094 1.85661 7.49805 2.34538 7.49805 2.88965C7.49805 3.34798 7.4139 3.7347 7.24561 4.04981C7.07731 4.36133 6.85173 4.61198 6.56885 4.80176C6.28955 4.98796 5.98161 5.12402 5.64502 5.20996V5.31738C6.01026 5.33529 6.36654 5.45345 6.71387 5.67188C7.06478 5.88672 7.35482 6.19287 7.58399 6.59033C7.81316 6.98779 7.92774 7.47119 7.92774 8.04053C7.92774 8.6027 7.79525 9.10759 7.53028 9.55518C7.26888 9.99919 6.86426 10.3519 6.31641 10.6133C5.76856 10.8711 5.06852 11 4.21631 11H0ZM1.65967 9.57666H4.05518C4.8501 9.57666 5.41944 9.42269 5.76319 9.11475C6.10694 8.80681 6.27881 8.42188 6.27881 7.95996C6.27881 7.61263 6.19108 7.29395 6.01563 7.00391C5.84017 6.71387 5.58952 6.48291 5.26368 6.31104C4.94141 6.13916 4.55827 6.05322 4.11426 6.05322H1.65967V9.57666ZM1.65967 4.75879H3.8833C4.2557 4.75879 4.5905 4.68718 4.8877 4.54395C5.18848 4.40072 5.4266 4.2002 5.60205 3.94238C5.78109 3.68099 5.87061 3.37305 5.87061 3.01856C5.87061 2.5638 5.71126 2.18246 5.39258 1.87451C5.0739 1.56657 4.58513 1.4126 3.92627 1.4126H1.65967V4.75879Z" fill="black"/>
</svg>
