<svg width="5" height="8" viewBox="0 0 5 8" fill="none" xmlns="http://www.w3.org/2000/svg">
<path d="M0 8V0.118024H1.483V1.37011H1.56511C1.70879 0.945905 1.96194 0.612358 2.32457 0.369468C2.69061 0.123156 3.10455 0 3.56639 0C3.66218 0 3.77507 0.0034211 3.90507 0.0102633C4.03849 0.0171049 4.14283 0.0256575 4.21809 0.0359208V1.50353C4.15651 1.48642 4.04704 1.46761 3.88967 1.44708C3.73231 1.42313 3.57494 1.41116 3.41758 1.41116C3.05495 1.41116 2.73167 1.48813 2.44772 1.64208C2.1672 1.7926 1.94484 2.00299 1.78063 2.27325C1.61642 2.54009 1.53432 2.84456 1.53432 3.18666V8H0Z" fill="black"/>
</svg>
