<svg width="13" height="9" viewBox="0 0 13 9" fill="none" xmlns="http://www.w3.org/2000/svg">
<path d="M0 9V0.115681H2.34833V1.68316H2.45244C2.63753 1.1626 2.94602 0.751927 3.37789 0.451156C3.80977 0.150385 4.32648 0 4.92802 0C5.53728 0 6.05591 0.152313 6.48393 0.45694C6.91195 0.757711 7.1973 1.16645 7.33997 1.68316H7.43252C7.61375 1.17416 7.94152 0.767352 8.41581 0.462724C8.89396 0.154241 9.45887 0 10.1105 0C10.9396 0 11.6125 0.264139 12.1292 0.792416C12.6497 1.31684 12.91 2.06105 12.91 3.02506V9H10.4518V3.51092C10.4518 3.01735 10.3207 2.64717 10.0585 2.40039C9.79627 2.1536 9.46851 2.0302 9.07519 2.0302C8.62789 2.0302 8.27892 2.17288 8.02828 2.45823C7.77763 2.73972 7.65231 3.11182 7.65231 3.57455V9H5.2635V3.45887C5.2635 3.02314 5.13817 2.67609 4.88753 2.41774C4.64074 2.15938 4.31491 2.0302 3.91003 2.0302C3.63625 2.0302 3.38946 2.09961 3.16966 2.23843C2.95373 2.37339 2.78213 2.56427 2.65488 2.81105C2.52764 3.05398 2.46401 3.33933 2.46401 3.66709V9H0Z" fill="black"/>
</svg>
