<svg width="15" height="15" viewBox="0 0 15 15" fill="none" xmlns="http://www.w3.org/2000/svg">
<path d="M7.39746 15H3.49365V12.2827H7.26563C8.20313 12.2827 8.9917 12.1167 9.63135 11.7847C10.2759 11.4478 10.7593 10.9277 11.0815 10.2246C11.4087 9.5166 11.5723 8.60351 11.5723 7.48535C11.5723 6.37695 11.4087 5.47119 11.0815 4.76807C10.7593 4.06494 10.2783 3.54736 9.63867 3.21533C8.99902 2.8833 8.21044 2.71729 7.27294 2.71729H3.42774V0H7.44141C8.9502 0 10.249 0.300293 11.3379 0.900879C12.4267 1.49658 13.2642 2.35351 13.8501 3.47168C14.4409 4.58984 14.7363 5.92773 14.7363 7.48535C14.7363 9.04785 14.4409 10.3906 13.8501 11.5137C13.2642 12.6367 12.4219 13.4985 11.3232 14.0991C10.2295 14.6997 8.9209 15 7.39746 15ZM5.25147 0V15H2.08008V0H5.25147ZM0 8.0127V6.16699H7.30224V8.0127H0Z" fill="black"/>
</svg>
