<svg width="7" height="8" viewBox="0 0 7 8" fill="none" xmlns="http://www.w3.org/2000/svg">
<path d="M2.61132 8C2.12159 8 1.67883 7.90943 1.28302 7.7283C0.887213 7.54381 0.573587 7.27715 0.34214 6.9283C0.114048 6.57945 0 6.15178 0 5.64528C0 5.20922 0.0838588 4.85031 0.251574 4.56855C0.419289 4.28679 0.645704 4.06373 0.93082 3.89937C1.21593 3.73501 1.53459 3.6109 1.88679 3.52704C2.23899 3.44319 2.5979 3.37945 2.96352 3.33585C3.42642 3.28218 3.80209 3.23857 4.09056 3.20503C4.37903 3.16813 4.58868 3.10943 4.7195 3.02893C4.85031 2.94843 4.91572 2.81761 4.91572 2.63648V2.60126C4.91572 2.16184 4.79162 1.82138 4.5434 1.57987C4.29853 1.33836 3.93291 1.21761 3.44654 1.21761C2.94004 1.21761 2.54088 1.32998 2.24906 1.55472C1.96059 1.7761 1.76101 2.02264 1.65032 2.29434L0.236479 1.97233C0.404194 1.50272 0.649058 1.12369 0.97107 0.83522C1.29644 0.543396 1.67044 0.332075 2.09308 0.201257C2.51572 0.0670857 2.96017 0 3.42642 0C3.73501 0 4.06206 0.0368973 4.40755 0.110692C4.7564 0.181132 5.08176 0.311949 5.38365 0.503144C5.68889 0.694339 5.93878 0.967715 6.13333 1.32327C6.32788 1.67547 6.42516 2.13333 6.42516 2.69685V7.82893H4.95598V6.77233H4.8956C4.79832 6.96688 4.65241 7.15807 4.45786 7.34591C4.26331 7.53375 4.01342 7.68973 3.70818 7.81384C3.40293 7.93794 3.03732 8 2.61132 8ZM2.93836 6.79245C3.3543 6.79245 3.70986 6.71027 4.00503 6.54591C4.30357 6.38155 4.52998 6.16687 4.68428 5.90189C4.84193 5.63354 4.92075 5.34675 4.92075 5.04151V4.04528C4.86708 4.09895 4.7631 4.14927 4.6088 4.19623C4.45786 4.23983 4.28511 4.27841 4.09056 4.31195C3.89601 4.34214 3.7065 4.37065 3.52201 4.39748C3.33753 4.42096 3.18323 4.44109 3.05912 4.45786C2.7673 4.49476 2.50063 4.55681 2.25912 4.64402C2.02097 4.73124 1.82977 4.85702 1.68554 5.02138C1.54466 5.18239 1.47421 5.39706 1.47421 5.66541C1.47421 6.03774 1.61174 6.3195 1.88679 6.51069C2.16184 6.69853 2.51237 6.79245 2.93836 6.79245Z" fill="black"/>
</svg>
