<svg width="11" height="12" viewBox="0 0 11 12" fill="none" xmlns="http://www.w3.org/2000/svg">
<path d="M10.9392 5.99999C10.9392 7.27376 10.6977 8.35741 10.2148 9.25094C9.73573 10.1445 9.08174 10.827 8.25284 11.2985C7.42775 11.7661 6.49999 12 5.46958 12C4.43155 12 3.5 11.7642 2.6749 11.2928C1.84981 10.8213 1.19772 10.1388 0.71863 9.24524C0.239543 8.3517 0 7.26995 0 5.99999C0 4.72623 0.239543 3.64258 0.71863 2.74905C1.19772 1.85551 1.84981 1.1749 2.6749 0.707224C3.5 0.235741 4.43155 0 5.46958 0C6.49999 0 7.42775 0.235741 8.25284 0.707224C9.08174 1.1749 9.73573 1.85551 10.2148 2.74905C10.6977 3.64258 10.9392 4.72623 10.9392 5.99999ZM8.43535 5.99999C8.43535 5.1749 8.31178 4.47908 8.06463 3.91254C7.82128 3.346 7.47718 2.91635 7.03231 2.62357C6.58745 2.3308 6.06653 2.18441 5.46958 2.18441C4.87262 2.18441 4.35171 2.3308 3.90684 2.62357C3.46197 2.91635 3.11597 3.346 2.86882 3.91254C2.62547 4.47908 2.5038 5.1749 2.5038 5.99999C2.5038 6.82509 2.62547 7.5209 2.86882 8.08744C3.11597 8.65398 3.46197 9.08364 3.90684 9.37641C4.35171 9.66919 4.87262 9.81558 5.46958 9.81558C6.06653 9.81558 6.58745 9.66919 7.03231 9.37641C7.47718 9.08364 7.82128 8.65398 8.06463 8.08744C8.31178 7.5209 8.43535 6.82509 8.43535 5.99999Z" fill="white"/>
</svg>
