<svg width="7" height="8" viewBox="0 0 7 8" fill="none" xmlns="http://www.w3.org/2000/svg">
<path d="M3.60933 8C2.85991 8 2.21466 7.83029 1.6736 7.49086C1.13589 7.14808 0.722539 6.67591 0.433524 6.07435C0.14451 5.4728 0 4.78387 0 4.00756C0 3.22117 0.147868 2.5272 0.443604 1.92565C0.73934 1.32073 1.15606 0.848561 1.69376 0.509136C2.23147 0.169712 2.86495 0 3.5942 0C4.18232 0 4.70657 0.109221 5.16698 0.327662C5.62739 0.542743 5.99874 0.8452 6.28103 1.23503C6.56669 1.62487 6.7364 2.08023 6.79017 2.60113H5.32325C5.2426 2.23818 5.05776 1.92565 4.76875 1.66352C4.48309 1.40139 4.09998 1.27032 3.61941 1.27032C3.19933 1.27032 2.83134 1.38122 2.51544 1.60302C2.2029 1.82147 1.95925 2.134 1.7845 2.54064C1.60974 2.94392 1.52237 3.42113 1.52237 3.97227C1.52237 4.53686 1.60807 5.02415 1.77946 5.43415C1.95085 5.84415 2.19281 6.16173 2.50535 6.38689C2.82125 6.61206 3.19261 6.72464 3.61941 6.72464C3.90506 6.72464 4.16383 6.67255 4.39572 6.56837C4.63096 6.46083 4.82755 6.30792 4.9855 6.10964C5.14681 5.91136 5.2594 5.67276 5.32325 5.39382H6.79017C6.7364 5.89456 6.5734 6.34152 6.30119 6.73472C6.02898 7.12791 5.66435 7.43709 5.20731 7.66226C4.75362 7.88742 4.22096 8 3.60933 8Z" fill="black"/>
</svg>
