<svg width="31" height="31" viewBox="0 0 31 31" fill="none" xmlns="http://www.w3.org/2000/svg">
<path d="M13.5672 0L11.6346 4.59975C11.248 4.71571 10.9002 4.90898 10.5523 5.10224L5.95257 3.16958L3.16955 5.95262L5.1022 10.5524C4.90894 10.9389 4.75432 11.2481 4.59971 11.6347L0 13.5673V17.4327L4.59971 19.3653C4.75432 19.7519 4.90894 20.0611 5.1022 20.4476L3.16955 25.0474L5.95257 27.8304L10.5523 25.8978C10.9002 26.0524 11.248 26.2456 11.6346 26.4002L13.5672 31H17.4325L19.3652 26.4002C19.7131 26.2456 20.0996 26.091 20.4475 25.8978L25.0472 27.8304L27.8302 25.0474L25.8975 20.4476C26.0521 20.0997 26.2454 19.7132 26.4 19.3653L30.9997 17.4327V13.5673L26.4 11.6347C26.2841 11.2868 26.0908 10.9002 25.8975 10.5524L27.8302 5.95262L25.0472 3.16958L20.4475 5.10224C20.0996 4.94763 19.7131 4.75436 19.3652 4.59975L17.4325 0L13.5672 0ZM15.4999 9.66334C18.7081 9.66334 21.2978 12.2531 21.2978 15.4613C21.2978 18.6696 18.7081 21.2594 15.4999 21.2594C12.2917 21.2594 9.70191 18.6696 9.70191 15.4613C9.70191 12.2531 12.2917 9.66334 15.4999 9.66334Z" fill="black"/>
</svg>
