<svg width="5" height="6" viewBox="0 0 5 6" fill="none" xmlns="http://www.w3.org/2000/svg">
<path d="M2.13554 6C1.68626 5.9981 1.30237 5.87962 0.983886 5.64455C0.665403 5.40948 0.421801 5.0673 0.253081 4.61801C0.0843602 4.16872 0 3.62749 0 2.99431C0 2.36303 0.0843602 1.8237 0.253081 1.3763C0.423697 0.92891 0.668246 0.587678 0.98673 0.352607C1.30711 0.117536 1.69005 0 2.13554 0C2.58104 0 2.96303 0.118483 3.28152 0.35545C3.6 0.590521 3.8436 0.931753 4.01232 1.37915C4.18294 1.82464 4.26825 2.36303 4.26825 2.99431C4.26825 3.62938 4.18388 4.17156 4.01516 4.62085C3.84644 5.06825 3.60284 5.41042 3.28436 5.64739C2.96588 5.88246 2.58294 6 2.13554 6ZM2.13554 5.24076C2.52986 5.24076 2.83791 5.04834 3.05972 4.66351C3.28341 4.27867 3.39526 3.72227 3.39526 2.99431C3.39526 2.5109 3.34408 2.10237 3.24171 1.76872C3.14123 1.43317 2.99621 1.17915 2.80663 1.00663C2.61896 0.832227 2.39526 0.745023 2.13554 0.745023C1.74313 0.745023 1.43507 0.938388 1.21137 1.32512C0.987678 1.71185 0.874881 2.26825 0.872985 2.99431C0.872985 3.47962 0.923223 3.89005 1.0237 4.22559C1.12607 4.55924 1.27109 4.81232 1.45877 4.98483C1.64645 5.15545 1.87204 5.24076 2.13554 5.24076Z" fill="black"/>
</svg>
