<svg width="8" height="12" viewBox="0 0 8 12" fill="none" xmlns="http://www.w3.org/2000/svg">
<path d="M3.66069 11.8488C2.95364 11.8488 2.32262 11.6682 1.76762 11.3071C1.21643 10.9421 0.783074 10.4233 0.467563 9.75043C0.155854 9.07379 0 8.2622 0 7.31567C0 6.36914 0.157756 5.55945 0.473267 4.88662C0.79258 4.21378 1.22973 3.6987 1.78473 3.34137C2.33972 2.98405 2.96884 2.80539 3.67209 2.80539C4.21568 2.80539 4.65283 2.89662 4.98355 3.07908C5.31807 3.25774 5.57656 3.46682 5.75902 3.7063C5.94529 3.94579 6.08974 4.15676 6.19238 4.33923H6.29501V0H7.99991V11.6777H6.33493V10.3149H6.19238C6.08974 10.5012 5.94149 10.7141 5.74762 10.9535C5.55755 11.193 5.29526 11.4021 4.96074 11.5808C4.62622 11.7594 4.19287 11.8488 3.66069 11.8488ZM4.03702 10.3948C4.52739 10.3948 4.94174 10.2655 5.28006 10.007C5.62218 9.74472 5.88067 9.3817 6.05553 8.91793C6.23419 8.45417 6.32352 7.91438 6.32352 7.29857C6.32352 6.69035 6.23609 6.15816 6.06123 5.702C5.88637 5.24584 5.62978 4.89042 5.29146 4.63573C4.95314 4.38104 4.53499 4.25369 4.03702 4.25369C3.52384 4.25369 3.09619 4.38674 2.75407 4.65284C2.41195 4.91893 2.15346 5.28196 1.9786 5.74192C1.80754 6.20188 1.722 6.72076 1.722 7.29857C1.722 7.88397 1.80944 8.41046 1.9843 8.87802C2.15916 9.34558 2.41765 9.71621 2.75977 9.98991C3.10569 10.2598 3.53144 10.3948 4.03702 10.3948Z" fill="black"/>
</svg>
