<svg width="7" height="8" viewBox="0 0 7 8" fill="none" xmlns="http://www.w3.org/2000/svg">
<path d="M3.68135 7.99221C2.91923 7.99221 2.26286 7.82938 1.71225 7.50372C1.165 7.1747 0.741978 6.71306 0.443173 6.1188C0.147724 5.52119 0 4.82118 0 4.01877C0 3.22643 0.147724 2.5281 0.443173 1.92377C0.741978 1.31945 1.15829 0.847735 1.69211 0.508641C2.22929 0.169547 2.85712 0 3.5756 0C4.01206 0 4.43508 0.0721836 4.84468 0.21655C5.25428 0.360917 5.62192 0.587539 5.94758 0.896417C6.27325 1.20529 6.53008 1.6065 6.71809 2.10003C6.90611 2.59021 7.00012 3.18614 7.00012 3.88783V4.42165H0.851096V3.29358H5.52455C5.52455 2.89741 5.44398 2.54656 5.28282 2.24104C5.12167 1.93217 4.89505 1.68876 4.60295 1.51082C4.31422 1.33288 3.97512 1.2439 3.58567 1.2439C3.16264 1.2439 2.79333 1.34798 2.47774 1.55614C2.1655 1.76094 1.92377 2.02953 1.75254 2.36191C1.58467 2.69093 1.50075 3.04849 1.50075 3.43459V4.3159C1.50075 4.83293 1.59139 5.27275 1.77269 5.63534C1.95735 5.99794 2.21418 6.27492 2.5432 6.46629C2.87223 6.6543 3.25665 6.74831 3.69646 6.74831C3.98184 6.74831 4.24204 6.70802 4.47705 6.62744C4.71207 6.54351 4.91519 6.41929 5.08641 6.25478C5.25764 6.09027 5.38857 5.88714 5.47922 5.64541L6.90442 5.90225C6.79027 6.32192 6.58548 6.68956 6.29003 7.00515C5.99794 7.31738 5.6303 7.56079 5.18713 7.73538C4.74731 7.9066 4.24539 7.99221 3.68135 7.99221Z" fill="black"/>
</svg>
