<svg width="11" height="12" viewBox="0 0 11 12" fill="none" xmlns="http://www.w3.org/2000/svg">
<path d="M7.95057 3.93536C7.87072 3.6578 7.75856 3.41255 7.61407 3.19962C7.46958 2.98289 7.29278 2.80038 7.08365 2.65209C6.87833 2.5 6.64259 2.38403 6.37643 2.30418C6.11407 2.22434 5.82319 2.18441 5.5038 2.18441C4.90685 2.18441 4.38213 2.3327 3.92966 2.62928C3.48099 2.92586 3.13118 3.35741 2.88023 3.92395C2.62928 4.48669 2.5038 5.17491 2.5038 5.98859C2.5038 6.80228 2.62738 7.4943 2.87453 8.06464C3.12167 8.63498 3.47148 9.07034 3.92395 9.37072C4.37643 9.6673 4.91065 9.81559 5.52662 9.81559C6.08555 9.81559 6.56274 9.71673 6.95818 9.51901C7.35742 9.31749 7.6616 9.03422 7.87072 8.6692C8.08365 8.30418 8.19012 7.87262 8.19012 7.37453L8.69202 7.44867H5.68061V5.58935H10.5684V7.06084C10.5684 8.08745 10.3517 8.96958 9.91825 9.70723C9.48479 10.4411 8.88783 11.0076 8.12738 11.4068C7.36692 11.8023 6.4962 12 5.51521 12C4.42015 12 3.45818 11.7586 2.62928 11.2757C1.80038 10.789 1.15399 10.0989 0.690114 9.20532C0.230038 8.30799 0 7.24335 0 6.01141C0 5.06464 0.136882 4.22053 0.410646 3.47909C0.688213 2.73384 1.07605 2.10266 1.57414 1.58555C2.07224 1.06844 2.65209 0.674905 3.31369 0.404943C3.97529 0.134981 4.69202 0 5.46388 0C6.12548 0 6.74145 0.0969583 7.31179 0.290875C7.88213 0.480989 8.38783 0.750951 8.8289 1.10076C9.27377 1.45057 9.63688 1.86692 9.91825 2.34981C10.1996 2.8289 10.3802 3.35741 10.4601 3.93536H7.95057Z" fill="black"/>
</svg>
