<svg width="24" height="8" viewBox="0 0 24 8" fill="none" xmlns="http://www.w3.org/2000/svg">
<path d="M12.4122 2.47762C12.3985 3.55725 13.3744 4.15968 14.1095 4.5179C14.8647 4.8854 15.1184 5.12109 15.1154 5.44978C15.1098 5.95275 14.513 6.17475 13.9545 6.18337C12.9802 6.19847 12.4136 5.92031 11.9633 5.70993L11.6122 7.35234C12.0641 7.56056 12.9008 7.74215 13.7685 7.75012C15.8052 7.75012 17.1377 6.74475 17.1449 5.18597C17.1529 3.20765 14.4085 3.09815 14.4273 2.2139C14.4338 1.94578 14.6896 1.65965 15.2502 1.5869C15.5277 1.55015 16.2937 1.52203 17.1623 1.92197L17.5031 0.332903C17.0361 0.16284 16.4358 -3.33786e-06 15.6884 -3.33786e-06C13.7714 -3.33786e-06 12.4231 1.01906 12.4122 2.47762ZM20.7786 0.136871C20.4067 0.136871 20.0933 0.353809 19.9534 0.686715L17.044 7.6334H19.0793L19.4842 6.51412H21.9713L22.2062 7.6334H24L22.4347 0.136871H20.7786ZM21.0633 2.16197L21.6506 4.977H20.0421L21.0633 2.16197ZM9.94462 0.136965L8.34037 7.63331H10.2798L11.8833 0.136778H9.94462V0.136965ZM7.07559 0.136778L5.05697 5.23931L4.24041 0.90084C4.14459 0.416528 3.76622 0.136871 3.34603 0.136871L0.0462187 0.136871L0 0.354559C0.677437 0.501559 1.44712 0.738653 1.91344 0.99234C2.19881 1.14731 2.28019 1.28278 2.37394 1.65103L3.92053 7.6334H5.97L9.11213 0.136871L7.07559 0.136871" fill="url(#paint0_linear_0_7)"/>
<defs>
<linearGradient id="paint0_linear_0_7" x1="11.0338" y1="7.90559" x2="11.2581" y2="-0.0539027" gradientUnits="userSpaceOnUse">
<stop stop-color="#222357"/>
<stop offset="1" stop-color="#254AA5"/>
</linearGradient>
</defs>
</svg>
