<svg width="41" height="43" viewBox="0 0 41 43" fill="none" xmlns="http://www.w3.org/2000/svg">
<path d="M20.0524 0.77257C20.2411 0.413821 20.7548 0.41382 20.9435 0.77257L24.1463 6.86072C24.5275 7.58538 25.4167 7.8743 26.1511 7.51212L32.3207 4.46926C32.6843 4.28996 33.0999 4.59189 33.0417 4.99305L32.0543 11.801C31.9367 12.6114 32.4863 13.3678 33.2933 13.5064L40.0732 14.6711C40.4727 14.7397 40.6315 15.2283 40.3486 15.5186L35.5481 20.446C34.9767 21.0325 34.9767 21.9675 35.5481 22.554L40.3486 27.4814C40.6315 27.7717 40.4727 28.2603 40.0732 28.3289L33.2933 29.4936C32.4863 29.6322 31.9367 30.3886 32.0543 31.199L33.0417 38.0069C33.0999 38.4081 32.6843 38.71 32.3207 38.5307L26.1511 35.4879C25.4167 35.1257 24.5275 35.4146 24.1463 36.1393L20.9435 42.2274C20.7548 42.5862 20.2411 42.5862 20.0524 42.2274L16.8496 36.1393C16.4683 35.4146 15.5791 35.1257 14.8448 35.4879L8.67512 38.5307C8.31157 38.71 7.896 38.4081 7.95418 38.0069L8.94159 31.199C9.05911 30.3886 8.50955 29.6322 7.70256 29.4936L0.922662 28.3289C0.523151 28.2603 0.364416 27.7717 0.647285 27.4814L5.44774 22.554C6.01913 21.9675 6.01913 21.0325 5.44774 20.446L0.647286 15.5186C0.364415 15.2283 0.523153 14.7397 0.922661 14.6711L7.70256 13.5064C8.50955 13.3678 9.05911 12.6114 8.94159 11.801L7.95418 4.99305C7.896 4.59189 8.31157 4.28996 8.67512 4.46926L14.8448 7.51212C15.5791 7.8743 16.4683 7.58538 16.8496 6.86072L20.0524 0.77257Z" fill="black" stroke="black"/>
</svg>
