<svg width="13" height="14" viewBox="0 0 13 14" fill="none" xmlns="http://www.w3.org/2000/svg">
<path d="M5.71273 0.880895C5.85367 0.387025 6.55358 0.387028 6.69452 0.880893L7.2939 2.98111C7.52072 3.77588 8.33725 4.24731 9.13895 4.04635L11.2575 3.51532C11.7557 3.39044 12.1056 3.99658 11.7484 4.36558L10.2292 5.93476C9.65434 6.52857 9.65434 7.47143 10.2292 8.06524L11.7484 9.63442C12.1056 10.0034 11.7557 10.6096 11.2575 10.4847L9.13895 9.95365C8.33725 9.75269 7.52072 10.2241 7.2939 11.0189L6.69453 13.1191C6.55358 13.613 5.85367 13.613 5.71273 13.1191L5.11336 11.0189C4.88654 10.2241 4.07001 9.75269 3.2683 9.95365L1.14978 10.4847C0.651601 10.6096 0.301648 10.0034 0.658878 9.63442L2.17803 8.06524C2.75292 7.47143 2.75292 6.52857 2.17803 5.93476L0.658878 4.36558C0.301648 3.99658 0.651602 3.39044 1.14977 3.51532L3.2683 4.04635C4.07001 4.24731 4.88654 3.77588 5.11336 2.98111L5.71273 0.880895Z" fill="#F8DF00" stroke="black"/>
</svg>
