<svg width="24" height="24" viewBox="0 0 24 24" fill="none" xmlns="http://www.w3.org/2000/svg">
<path d="M12 0C9.21323 0.0066386 6.51478 0.978469 4.36365 2.75019V2.18183C4.36365 1.8925 4.24872 1.61502 4.04413 1.41043C3.83954 1.20585 3.56207 1.09091 3.27274 1.09091C2.98341 1.09091 2.70593 1.20585 2.50135 1.41043C2.29676 1.61502 2.18183 1.8925 2.18183 2.18183V5.45456C2.18183 5.48184 2.19492 5.50584 2.1971 5.53311C2.20439 5.60263 2.21827 5.67131 2.23855 5.7382C2.25502 5.8056 2.27766 5.87133 2.30619 5.93457C2.33716 5.99458 2.37368 6.05155 2.41528 6.10475C2.43926 6.14699 2.46624 6.18746 2.49601 6.22584C2.51565 6.24548 2.54183 6.25311 2.56255 6.27057C2.58328 6.28802 2.5931 6.31202 2.61383 6.32839C2.65191 6.34935 2.69126 6.36793 2.73165 6.38402C2.79566 6.42288 2.86369 6.4547 2.93456 6.47893C3 6.49886 3.06722 6.51237 3.13528 6.51929C3.18049 6.53096 3.22641 6.5397 3.27274 6.54548H6.54548C6.83481 6.54548 7.11228 6.43054 7.31687 6.22596C7.52145 6.02137 7.63639 5.74389 7.63639 5.45456C7.63639 5.16524 7.52145 4.88776 7.31687 4.68317C7.11228 4.47859 6.83481 4.36365 6.54548 4.36365H5.8462C7.5798 2.97054 9.73537 2.20794 11.9593 2.20094C14.1833 2.19393 16.3436 2.94295 18.086 4.32512C19.8283 5.70729 21.0492 7.64055 21.5484 9.80779C22.0475 11.975 21.7954 14.2476 20.8332 16.2527C19.8711 18.2577 18.256 19.8763 16.2531 20.8429C14.2501 21.8095 11.9781 22.0667 9.80981 21.5723C7.64147 21.0779 5.70552 19.8613 4.31952 18.122C2.93351 16.3827 2.17973 14.224 2.18183 12C2.18183 11.7107 2.06689 11.4332 1.8623 11.2286C1.65772 11.0241 1.38024 10.9091 1.09091 10.9091C0.801585 10.9091 0.524107 11.0241 0.319521 11.2286C0.114935 11.4332 0 11.7107 0 12C0 14.3734 0.70379 16.6935 2.02237 18.6669C3.34095 20.6403 5.2151 22.1784 7.40782 23.0866C9.60055 23.9949 12.0134 24.2325 14.3411 23.7695C16.6689 23.3065 18.8071 22.1636 20.4854 20.4854C22.1636 18.8071 23.3065 16.6689 23.7695 14.3411C24.2325 12.0134 23.9949 9.60055 23.0866 7.40782C22.1784 5.2151 20.6403 3.34095 18.6669 2.02237C16.6935 0.70379 14.3734 0 12 0Z" fill="white"/>
</svg>
