<svg width="32" height="26" viewBox="0 0 32 26" fill="none" xmlns="http://www.w3.org/2000/svg">
<path d="M29.1903 0C27.6293 0 26.3805 1.23773 26.3805 2.78489C26.3805 3.63583 26.7707 4.40941 27.3561 4.91224L20.4488 17.4829C20.1756 17.4056 19.9415 17.3669 19.6293 17.3669C19.0439 17.3669 18.4976 17.5216 18.0683 17.831L12.722 12.6094C12.9951 12.1839 13.1512 11.6424 13.1512 11.1009C13.1512 9.55373 11.9024 8.316 10.3415 8.316C8.78049 8.316 7.53171 9.55373 7.53171 11.1009C7.53171 11.8745 7.84391 12.5707 8.35123 13.0735L3.82439 19.881C3.5122 19.765 3.16098 19.6876 2.80976 19.6876C1.24878 19.6876 0 20.9254 0 22.4725C0 24.0197 1.24878 25.2574 2.80976 25.2574C4.37073 25.2574 5.61952 24.0197 5.61952 22.4725C5.61952 21.699 5.30732 21.0027 4.8 20.4999L9.28781 13.6924C9.60001 13.8084 9.95123 13.8858 10.3024 13.8858C10.8878 13.8858 11.4342 13.7311 11.8634 13.4216L17.2488 18.6433C16.9756 19.1075 16.8195 19.649 16.8195 20.1905C16.8195 21.7376 18.0683 22.9754 19.6293 22.9754C21.1903 22.9754 22.439 21.7376 22.439 20.1905C22.439 19.3395 22.0488 18.5659 21.4634 18.0631L28.3708 5.49243C28.6439 5.56978 28.9171 5.60846 29.1903 5.60846C30.7512 5.60846 32 4.37073 32 2.82357C32 1.27641 30.7512 0 29.1903 0ZM21.3073 20.1905C21.3073 21.0801 20.5659 21.815 19.6683 21.815C18.7707 21.815 18.0293 21.0801 18.0293 20.1905C18.0293 19.3009 18.7707 18.5659 19.6683 18.5659C20.5659 18.5273 21.3073 19.2622 21.3073 20.1905ZM8.66342 11.1009C8.66342 10.2113 9.40488 9.47637 10.3024 9.47637C11.2 9.47637 11.9415 10.2113 11.9415 11.1009C11.9415 11.9905 11.2 12.7254 10.3024 12.7254C9.40488 12.7641 8.66342 12.0292 8.66342 11.1009ZM4.44878 22.5112C4.44878 23.4008 3.70732 24.1357 2.80976 24.1357C1.9122 24.1357 1.17073 23.4008 1.17073 22.5112C1.17073 21.6216 1.9122 20.8867 2.80976 20.8867C3.70732 20.848 4.44878 21.5829 4.44878 22.5112ZM29.1903 4.44809C28.2927 4.44809 27.5512 3.71319 27.5512 2.82357C27.5512 1.93395 28.2927 1.19905 29.1903 1.19905C30.0878 1.19905 30.8293 1.93395 30.8293 2.82357C30.8293 3.71319 30.0878 4.44809 29.1903 4.44809Z" fill="black"/>
</svg>
