<svg width="27" height="14" viewBox="0 0 27 14" fill="none" xmlns="http://www.w3.org/2000/svg">
<path d="M26.0357 9.64286H0.964286C0.708541 9.64286 0.463271 9.54126 0.282433 9.36042C0.101594 9.17959 0 8.93432 0 8.67857V6.58607C0.000675201 5.8191 0.305901 5.08378 0.848572 4.54179L4.54179 0.848572C5.08378 0.305901 5.8191 0.000675201 6.58607 0H20.4139C21.1809 0.000675201 21.9162 0.305901 22.4582 0.848572L26.1514 4.54179C26.6941 5.08378 26.9993 5.8191 27 6.58607V8.67857C27 8.93432 26.8984 9.17959 26.7176 9.36042C26.5367 9.54126 26.2915 9.64286 26.0357 9.64286ZM1.92857 7.71429H25.0714V6.58607C25.0704 6.33074 24.9681 6.08626 24.787 5.90625L21.0937 2.21304C20.9137 2.03195 20.6693 1.92965 20.4139 1.92857H6.58607C6.33074 1.92965 6.08626 2.03195 5.90625 2.21304L2.21304 5.90143C2.12279 5.99114 2.0512 6.09781 2.00238 6.21532C1.95355 6.33282 1.92847 6.45883 1.92857 6.58607V7.71429ZM16.3929 13.5H10.6071C10.3514 13.5 10.1061 13.3984 9.92529 13.2176C9.74445 13.0367 9.64286 12.7915 9.64286 12.5357C9.64286 12.28 9.74445 12.0347 9.92529 11.8539C10.1061 11.673 10.3514 11.5714 10.6071 11.5714H16.3929C16.6486 11.5714 16.8939 11.673 17.0747 11.8539C17.2555 12.0347 17.3571 12.28 17.3571 12.5357C17.3571 12.7915 17.2555 13.0367 17.0747 13.2176C16.8939 13.3984 16.6486 13.5 16.3929 13.5Z" fill="black"/>
</svg>
