<svg width="11" height="11" viewBox="0 0 11 11" fill="none" xmlns="http://www.w3.org/2000/svg">
<path d="M0.807542 8.77818C0.417017 9.16871 0.417017 9.80187 0.807542 10.1924C1.19807 10.5829 1.83123 10.5829 2.22176 10.1924L0.807542 8.77818ZM10.9999 1.00001C10.9999 0.447724 10.5522 9.03753e-06 9.99993 9.45899e-06L0.99993 9.24826e-06C0.447645 9.24826e-06 -7.01598e-05 0.447724 -7.01598e-05 1.00001C-7.01598e-05 1.55229 0.447645 2.00001 0.99993 2.00001L8.99993 2.00001L8.99993 10C8.99993 10.5523 9.44764 11 9.99993 11C10.5522 11 10.9999 10.5523 10.9999 10L10.9999 1.00001ZM2.22176 10.1924L10.707 1.70712L9.29282 0.292903L0.807542 8.77818L2.22176 10.1924Z" fill="black"/>
</svg>
