<svg width="41" height="43" viewBox="0 0 41 43" fill="none" xmlns="http://www.w3.org/2000/svg">
<path d="M20.0523 0.772526C20.2411 0.413776 20.7548 0.413775 20.9435 0.772525L24.1463 6.86069C24.5275 7.58535 25.4167 7.87427 26.1511 7.51209L32.3207 4.46922C32.6843 4.28992 33.0999 4.59185 33.0417 4.99302L32.0543 11.801C31.9368 12.6113 32.4863 13.3678 33.2933 13.5064L40.0732 14.6711C40.4727 14.7397 40.6315 15.2283 40.3486 15.5186L35.5481 20.446C34.9768 21.0325 34.9768 21.9675 35.5481 22.554L40.3486 27.4814C40.6315 27.7717 40.4727 28.2603 40.0732 28.3289L33.2933 29.4936C32.4863 29.6322 31.9368 30.3886 32.0543 31.199L33.0417 38.007C33.0999 38.4081 32.6843 38.7101 32.3207 38.5308L26.1511 35.4879C25.4167 35.1257 24.5275 35.4147 24.1463 36.1393L20.9435 42.2275C20.7548 42.5862 20.2411 42.5862 20.0523 42.2275L16.8495 36.1393C16.4683 35.4147 15.5791 35.1257 14.8447 35.4879L8.67508 38.5308C8.31153 38.7101 7.89595 38.4081 7.95414 38.007L8.94154 31.199C9.05907 30.3887 8.50951 29.6322 7.70252 29.4936L0.922603 28.3289C0.52309 28.2603 0.364356 27.7717 0.647225 27.4814L5.44769 22.554C6.01908 21.9675 6.01908 21.0325 5.44769 20.446L0.647226 15.5186C0.364354 15.2283 0.523093 14.7397 0.922602 14.6711L7.70252 13.5064C8.50951 13.3678 9.05907 12.6113 8.94154 11.801L7.95414 4.99302C7.89595 4.59185 8.31153 4.28992 8.67508 4.46922L14.8447 7.51209C15.5791 7.87427 16.4683 7.58535 16.8495 6.86069L20.0523 0.772526Z" fill="black" stroke="black"/>
</svg>
