<svg width="24" height="24" viewBox="0 0 24 24" fill="none" xmlns="http://www.w3.org/2000/svg">
<path d="M12 0C9.21321 0.00663859 6.51476 0.978466 4.36364 2.75018V2.18182C4.36364 1.89249 4.24871 1.61502 4.04412 1.41043C3.83953 1.20584 3.56206 1.09091 3.27273 1.09091C2.9834 1.09091 2.70593 1.20584 2.50134 1.41043C2.29675 1.61502 2.18182 1.89249 2.18182 2.18182V5.45455C2.18182 5.48182 2.19491 5.50582 2.19709 5.5331C2.20438 5.60262 2.21826 5.67129 2.23855 5.73819C2.25501 5.80558 2.27765 5.87131 2.30618 5.93455C2.33715 5.99456 2.37368 6.05154 2.41527 6.10473C2.43925 6.14697 2.46623 6.18744 2.496 6.22582C2.51564 6.24546 2.54182 6.2531 2.56255 6.27055C2.58327 6.28801 2.59309 6.31201 2.61382 6.32837C2.6519 6.34934 2.69125 6.36792 2.73164 6.38401C2.79566 6.42287 2.86369 6.45469 2.93455 6.47892C2.99999 6.49884 3.06722 6.51236 3.13528 6.51928C3.18049 6.53094 3.2264 6.53968 3.27273 6.54546H6.54546C6.83479 6.54546 7.11226 6.43053 7.31685 6.22594C7.52144 6.02135 7.63637 5.74388 7.63637 5.45455C7.63637 5.16522 7.52144 4.88775 7.31685 4.68316C7.11226 4.47858 6.83479 4.36364 6.54546 4.36364H5.84619C7.57978 2.97053 9.73534 2.20793 11.9593 2.20093C14.1833 2.19393 16.3436 2.94294 18.0859 4.32511C19.8283 5.70727 21.0491 7.64053 21.5483 9.80776C22.0475 11.975 21.7953 14.2475 20.8332 16.2526C19.871 18.2577 18.256 19.8763 16.253 20.8428C14.2501 21.8094 11.9781 22.0666 9.80978 21.5722C7.64145 21.0778 5.70551 19.8612 4.3195 18.1219C2.9335 16.3827 2.17972 14.224 2.18182 12C2.18182 11.7107 2.06689 11.4332 1.8623 11.2286C1.65771 11.024 1.38024 10.9091 1.09091 10.9091C0.801583 10.9091 0.524105 11.024 0.31952 11.2286C0.114935 11.4332 0 11.7107 0 12C0 14.3734 0.703788 16.6935 2.02237 18.6669C3.34094 20.6403 5.21509 22.1783 7.40781 23.0866C9.60052 23.9948 12.0133 24.2325 14.3411 23.7694C16.6689 23.3064 18.8071 22.1635 20.4853 20.4853C22.1635 18.8071 23.3064 16.6689 23.7694 14.3411C24.2325 12.0133 23.9948 9.60052 23.0866 7.40781C22.1783 5.21509 20.6403 3.34094 18.6669 2.02237C16.6935 0.703788 14.3734 0 12 0Z" fill="black"/>
</svg>
