<svg width="62" height="60" viewBox="0 0 62 60" fill="none" xmlns="http://www.w3.org/2000/svg">
<path d="M26.7192 3.61025C28.0666 -0.536694 33.9334 -0.536693 35.2808 3.61026L39.1703 15.5809C39.9068 17.8476 42.0191 19.3823 44.4025 19.3823L56.9891 19.3823C61.3495 19.3823 63.1624 24.9619 59.6348 27.5249L49.452 34.9232C47.5238 36.324 46.717 38.8072 47.4535 41.0739L51.343 53.0445C52.6904 57.1915 47.9441 60.6399 44.4165 58.0769L34.2336 50.6787C32.3055 49.2778 29.6945 49.2778 27.7664 50.6787L17.5835 58.077C14.0559 60.6399 9.30957 57.1915 10.657 53.0445L14.5465 41.0739C15.283 38.8072 14.4762 36.324 12.548 34.9232L2.36516 27.5249C-1.16244 24.9619 0.650508 19.3823 5.01087 19.3823L17.5975 19.3823C19.9809 19.3823 22.0932 17.8476 22.8297 15.5809L26.7192 3.61025Z" fill="#FBD77B" stroke="black"/>
</svg>
