<svg width="38" height="37" viewBox="0 0 38 37" fill="none" xmlns="http://www.w3.org/2000/svg">
<path d="M17.6593 1.31557C18.226 0.234204 19.774 0.234203 20.3407 1.31557L24.8489 9.91705C25.2143 10.6142 25.8841 11.1009 26.6601 11.233L36.2337 12.8625C37.4373 13.0673 37.9156 14.5395 37.0623 15.4127L30.2749 22.3582C29.7248 22.9212 29.4689 23.7087 29.5831 24.4875L30.9918 34.096C31.1688 35.304 29.9165 36.2139 28.8224 35.6722L20.1194 31.3632C19.414 31.014 18.586 31.014 17.8806 31.3632L9.17761 35.6722C8.08348 36.2139 6.83115 35.304 7.00825 34.096L8.4169 24.4875C8.53107 23.7087 8.27521 22.9212 7.72507 22.3582L0.937673 15.4127C0.0843689 14.5395 0.562714 13.0673 1.76629 12.8625L11.3399 11.233C12.1159 11.1009 12.7857 10.6142 13.1511 9.91705L17.6593 1.31557Z" fill="#FBD77B" stroke="black"/>
</svg>
