<svg width="24" height="24" viewBox="0 0 24 24" fill="none" xmlns="http://www.w3.org/2000/svg">
<path d="M12 0C9.2132 0.00663858 6.51475 0.978465 4.36363 2.75018V2.18182C4.36363 1.89249 4.2487 1.61501 4.04411 1.41043C3.83953 1.20584 3.56205 1.09091 3.27273 1.09091C2.9834 1.09091 2.70592 1.20584 2.50134 1.41043C2.29675 1.61501 2.18182 1.89249 2.18182 2.18182V5.45454C2.18182 5.48182 2.19491 5.50582 2.19709 5.53309C2.20438 5.60261 2.21826 5.67128 2.23854 5.73818C2.25501 5.80557 2.27765 5.87131 2.30618 5.93454C2.33715 5.99455 2.37367 6.05153 2.41527 6.10472C2.43925 6.14697 2.46623 6.18743 2.496 6.22582C2.51564 6.24545 2.54182 6.25309 2.56254 6.27054C2.58327 6.288 2.59309 6.312 2.61382 6.32836C2.6519 6.34933 2.69125 6.36791 2.73164 6.384C2.79565 6.42286 2.86368 6.45468 2.93454 6.47891C2.99999 6.49883 3.06721 6.51235 3.13527 6.51927C3.18048 6.53093 3.22639 6.53968 3.27273 6.54545H6.54545C6.83478 6.54545 7.11226 6.43052 7.31684 6.22593C7.52143 6.02135 7.63636 5.74387 7.63636 5.45454C7.63636 5.16522 7.52143 4.88774 7.31684 4.68315C7.11226 4.47857 6.83478 4.36363 6.54545 4.36363H5.84618C7.57977 2.97053 9.73533 2.20793 11.9593 2.20093C14.1833 2.19393 16.3436 2.94294 18.0859 4.3251C19.8282 5.70726 21.0491 7.64052 21.5483 9.80775C22.0474 11.975 21.7953 14.2475 20.8331 16.2526C19.871 18.2577 18.256 19.8762 16.253 20.8428C14.2501 21.8094 11.9781 22.0666 9.80977 21.5722C7.64144 21.0778 5.7055 19.8612 4.3195 18.1219C2.9335 16.3826 2.17972 14.224 2.18182 12C2.18182 11.7107 2.06688 11.4332 1.8623 11.2286C1.65771 11.024 1.38024 10.9091 1.09091 10.9091C0.801582 10.9091 0.524105 11.024 0.31952 11.2286C0.114935 11.4332 0 11.7107 0 12C0 14.3734 0.703787 16.6934 2.02236 18.6668C3.34094 20.6402 5.21508 22.1783 7.4078 23.0865C9.60051 23.9948 12.0133 24.2324 14.3411 23.7694C16.6688 23.3064 18.807 22.1635 20.4853 20.4853C22.1635 18.807 23.3064 16.6688 23.7694 14.3411C24.2324 12.0133 23.9948 9.60051 23.0865 7.4078C22.1783 5.21508 20.6402 3.34094 18.6668 2.02236C16.6934 0.703787 14.3734 0 12 0Z" fill="black"/>
</svg>
