<svg width="12" height="16" viewBox="0 0 12 16" fill="none" xmlns="http://www.w3.org/2000/svg">
<path d="M9.82459 16C10.3457 16 10.8455 15.7893 11.214 15.4143C11.5825 15.0392 11.7895 14.5305 11.7895 14V2C11.7895 1.46957 11.5825 0.960862 11.214 0.585788C10.8455 0.210715 10.3457 0 9.82459 0C9.30346 0 8.80367 0.210715 8.43518 0.585788C8.06669 0.960862 7.85967 1.46957 7.85967 2V12H1.96492C1.44379 12 0.944005 12.2107 0.575511 12.5858C0.207018 12.9609 0 13.4696 0 14C0 14.5305 0.207018 15.0392 0.575511 15.4143C0.944005 15.7893 1.44379 16 1.96492 16H9.82459Z" fill="#23553A"/>
</svg>
