<svg width="44" height="44" viewBox="0 0 44 44" fill="none" xmlns="http://www.w3.org/2000/svg">
<path d="M22 0C16.8909 0.0121707 11.9437 1.79385 8 5.042V4C8 3.46957 7.78928 2.96086 7.41421 2.58579C7.03914 2.21071 6.53043 2 6 2C5.46957 2 4.96086 2.21071 4.58579 2.58579C4.21071 2.96086 4 3.46957 4 4V10C4 10.05 4.024 10.094 4.028 10.144C4.04136 10.2715 4.06681 10.3974 4.104 10.52C4.13418 10.6436 4.17569 10.7641 4.228 10.88C4.28478 10.99 4.35173 11.0945 4.428 11.192C4.47196 11.2694 4.52142 11.3436 4.576 11.414C4.612 11.45 4.66 11.464 4.698 11.496C4.736 11.528 4.754 11.572 4.792 11.602C4.86182 11.6404 4.93396 11.6745 5.008 11.704C5.12536 11.7752 5.25009 11.8336 5.38 11.878C5.49998 11.9145 5.62323 11.9393 5.748 11.952C5.83089 11.9734 5.91506 11.9894 6 12H12C12.5304 12 13.0391 11.7893 13.4142 11.4142C13.7893 11.0391 14 10.5304 14 10C14 9.46957 13.7893 8.96086 13.4142 8.58578C13.0391 8.21071 12.5304 8 12 8H10.718C13.8962 5.44597 17.8481 4.04787 21.9254 4.03504C26.0026 4.0222 29.9632 5.39539 33.1575 7.92935C36.3518 10.4633 38.59 14.0076 39.5052 17.9809C40.4203 21.9541 39.958 26.1205 38.1941 29.7964C36.4301 33.4724 33.4693 36.4398 29.7972 38.2118C26.1251 39.9839 21.9599 40.4554 17.9846 39.549C14.0093 38.6426 10.4601 36.4122 7.91908 33.2235C5.37808 30.0348 3.99616 26.0773 4 22C4 21.4696 3.78929 20.9609 3.41421 20.5858C3.03914 20.2107 2.53043 20 2 20C1.46957 20 0.960859 20.2107 0.585786 20.5858C0.210714 20.9609 0 21.4696 0 22C0 26.3512 1.29028 30.6047 3.70767 34.2225C6.12506 37.8404 9.56099 40.6602 13.581 42.3253C17.6009 43.9905 22.0244 44.4261 26.292 43.5773C30.5596 42.7284 34.4796 40.6331 37.5563 37.5563C40.6331 34.4796 42.7284 30.5596 43.5773 26.292C44.4261 22.0244 43.9905 17.6009 42.3253 13.581C40.6602 9.56099 37.8404 6.12506 34.2225 3.70767C30.6047 1.29028 26.3512 0 22 0Z" fill="#23553A"/>
</svg>
