<svg width="7" height="8" viewBox="0 0 7 8" fill="none" xmlns="http://www.w3.org/2000/svg">
<path d="M0.135414 6.44228C-0.0558654 6.6495 -0.0429435 6.97254 0.164276 7.16382C0.371496 7.3551 0.694543 7.34218 0.885823 7.13496L0.135414 6.44228ZM6.8159 0.490216C6.80463 0.208435 6.56706 -0.0108569 6.28528 0.000414263L1.69339 0.18409C1.4116 0.195362 1.19231 0.432928 1.20358 0.714709C1.21486 0.996491 1.45242 1.21578 1.7342 1.20451L5.81589 1.04124L5.97915 5.12293C5.99043 5.40471 6.22799 5.624 6.50977 5.61273C6.79156 5.60146 7.01085 5.36389 6.99958 5.08211L6.8159 0.490216ZM0.885823 7.13496L6.68089 0.856968L5.93049 0.164283L0.135414 6.44228L0.885823 7.13496Z" fill="#23553A"/>
</svg>
