<svg width="11" height="11" viewBox="0 0 11 11" fill="none" xmlns="http://www.w3.org/2000/svg">
<path d="M0.807603 8.77818C0.417078 9.16871 0.417078 9.80187 0.807603 10.1924C1.19813 10.5829 1.83129 10.5829 2.22182 10.1924L0.807603 8.77818ZM11 1.00001C11 0.447724 10.5523 9.03753e-06 9.99999 9.45899e-06L0.999991 9.24826e-06C0.447706 9.24826e-06 -9.12463e-06 0.447724 -9.12463e-06 1.00001C-9.12463e-06 1.55229 0.447706 2.00001 0.999991 2.00001L8.99999 2.00001L8.99999 10C8.99999 10.5523 9.44771 11 9.99999 11C10.5523 11 11 10.5523 11 10L11 1.00001ZM2.22182 10.1924L10.7071 1.70712L9.29288 0.292903L0.807603 8.77818L2.22182 10.1924Z" fill="black"/>
</svg>
