<svg width="20" height="20" viewBox="0 0 20 20" fill="none" xmlns="http://www.w3.org/2000/svg">
<path d="M7.21937 2.53316C8.08234 -0.177323 11.9177 -0.177323 12.7806 2.53316C13.2986 4.1599 14.8148 5.26305 16.5201 5.26305C19.3783 5.26305 20.5866 8.90272 18.3041 10.5951L18.1925 10.6778C16.8285 11.6892 16.2582 13.4558 16.7733 15.0738L16.8325 15.2597C17.6891 17.95 14.5964 20.1603 12.3284 18.4787C10.9455 17.4533 9.05452 17.4533 7.67159 18.4787C5.40364 20.1603 2.31093 17.95 3.16747 15.2597L3.22666 15.0738C3.74181 13.4558 3.1715 11.6892 1.80747 10.6778L1.6959 10.5951C-0.586591 8.90272 0.621699 5.26305 3.47985 5.26305C5.18518 5.26305 6.70145 4.1599 7.21937 2.53316Z" fill="#FBD77B" stroke="black"/>
</svg>
