<svg width="17" height="16" viewBox="0 0 17 16" fill="none" xmlns="http://www.w3.org/2000/svg">
<path d="M6.92992 1.34942C7.51124 0.240255 9.09899 0.240254 9.68031 1.34942L10.7241 3.34096C11.0989 4.05606 11.786 4.55525 12.5819 4.69072L14.7985 5.06801C16.033 5.27813 16.5237 6.78817 15.6484 7.68379L14.0769 9.29192C13.5126 9.86935 13.2502 10.6771 13.3673 11.4759L13.6935 13.7006C13.8751 14.9396 12.5906 15.8729 11.4683 15.3172L9.4533 14.3196C8.72976 13.9614 7.88048 13.9614 7.15694 14.3196L5.14189 15.3172C4.01964 15.8729 2.73513 14.9396 2.91678 13.7006L3.24293 11.4759C3.36004 10.6771 3.0976 9.86935 2.53331 9.29192L0.961797 7.68379C0.0865598 6.78817 0.5772 5.27813 1.81171 5.06801L4.02833 4.69072C4.82425 4.55525 5.51133 4.05606 5.88612 3.34096L6.92992 1.34942Z" fill="#FBD77B" stroke="black"/>
</svg>
