<svg width="18" height="17" viewBox="0 0 18 17" fill="none" xmlns="http://www.w3.org/2000/svg">
<path d="M7.66081 1.25602C7.91196 0.0536444 9.6298 0.0536439 9.88095 1.25602C10.159 2.58696 11.7352 3.16822 12.8101 2.33462L12.9089 2.25799C13.8581 1.52189 15.1382 2.61794 14.5521 3.67195C13.8884 4.86538 14.7423 6.33054 16.0995 6.36563C16.7016 6.3812 17.0779 6.79537 17.1675 7.27933C17.2569 7.76166 17.0544 8.26924 16.4968 8.48372C15.2248 8.973 14.9344 10.642 15.9656 11.5326C16.872 12.3154 16.0469 13.7756 14.9101 13.4049L14.8059 13.371C13.512 12.949 12.2286 14.0403 12.4341 15.3847C12.5253 15.9814 12.1813 16.4132 11.7085 16.5775C11.233 16.7426 10.6708 16.6202 10.345 16.1018C9.62105 14.9501 7.92071 14.9501 7.19678 16.1018C6.87093 16.6202 6.30877 16.7426 5.83328 16.5775C5.36048 16.4132 5.01645 15.9814 5.10765 15.3847C5.31315 14.0403 4.02972 12.949 2.73584 13.371L2.63168 13.4049C1.49484 13.7756 0.669777 12.3154 1.57614 11.5326C2.60733 10.642 2.31693 8.973 1.04495 8.48372C0.487354 8.26924 0.284846 7.76166 0.374213 7.27933C0.463884 6.79537 0.840182 6.3812 1.4423 6.36563C2.79948 6.33054 3.65335 4.86538 2.98967 3.67195C2.40353 2.61794 3.68371 1.52189 4.63287 2.25799L4.73169 2.33462C5.80658 3.16822 7.3828 2.58696 7.66081 1.25602Z" fill="#FBD77B" stroke="black" stroke-width="0.7"/>
</svg>
