<svg width="41" height="43" viewBox="0 0 41 43" fill="none" xmlns="http://www.w3.org/2000/svg">
<path d="M20.0524 0.772526C20.2411 0.413776 20.7548 0.413775 20.9435 0.772525L24.1464 6.86069C24.5276 7.58535 25.4168 7.87427 26.1511 7.51209L32.3208 4.46922C32.6844 4.28992 33.0999 4.59185 33.0417 4.99302L32.0543 11.801C31.9368 12.6113 32.4864 13.3678 33.2934 13.5064L40.0733 14.6711C40.4728 14.7397 40.6315 15.2283 40.3487 15.5186L35.5482 20.446C34.9768 21.0325 34.9768 21.9675 35.5482 22.554L40.3487 27.4814C40.6315 27.7717 40.4728 28.2603 40.0733 28.3289L33.2934 29.4936C32.4864 29.6322 31.9368 30.3886 32.0543 31.199L33.0417 38.007C33.0999 38.4081 32.6844 38.7101 32.3208 38.5308L26.1511 35.4879C25.4168 35.1257 24.5276 35.4147 24.1464 36.1393L20.9435 42.2275C20.7548 42.5862 20.2411 42.5862 20.0524 42.2275L16.8496 36.1393C16.4684 35.4147 15.5792 35.1257 14.8448 35.4879L8.67514 38.5308C8.31159 38.7101 7.89602 38.4081 7.9542 38.007L8.94161 31.199C9.05913 30.3887 8.50957 29.6322 7.70258 29.4936L0.922664 28.3289C0.523152 28.2603 0.364417 27.7717 0.647287 27.4814L5.44776 22.554C6.01914 21.9675 6.01914 21.0325 5.44776 20.446L0.647288 15.5186C0.364416 15.2283 0.523154 14.7397 0.922663 14.6711L7.70258 13.5064C8.50957 13.3678 9.05913 12.6113 8.94161 11.801L7.9542 4.99302C7.89602 4.59185 8.31159 4.28992 8.67514 4.46922L14.8448 7.51209C15.5792 7.87427 16.4684 7.58535 16.8496 6.86069L20.0524 0.772526Z" fill="black" stroke="black"/>
</svg>
