<svg width="12" height="7" viewBox="0 0 12 7" fill="none" xmlns="http://www.w3.org/2000/svg">
<path d="M11.5714 4.89795H0.42857C0.314907 4.89795 0.205898 4.84634 0.125525 4.75449C0.0451528 4.66264 0 4.53805 0 4.40815V3.3453C0.000300089 2.95572 0.135955 2.58223 0.377142 2.30693L2.01857 0.43102C2.25945 0.155378 2.58626 0.000342958 2.92714 0H9.07284C9.41371 0.000342958 9.74052 0.155378 9.98141 0.43102L11.6228 2.30693C11.864 2.58223 11.9997 2.95572 12 3.3453V4.40815C12 4.53805 11.9548 4.66264 11.8744 4.75449C11.7941 4.84634 11.6851 4.89795 11.5714 4.89795ZM0.857141 3.91836H11.1428V3.3453C11.1424 3.21561 11.0969 3.09143 11.0164 2.99999L9.37498 1.12408C9.29498 1.0321 9.18632 0.980136 9.07284 0.97959H2.92714C2.81366 0.980136 2.705 1.0321 2.62499 1.12408L0.983569 2.99754C0.943462 3.04311 0.911642 3.0973 0.889943 3.15698C0.868244 3.21666 0.857096 3.28067 0.857141 3.3453V3.91836ZM7.2857 6.85713H4.71428C4.60061 6.85713 4.4916 6.80552 4.41123 6.71367C4.33086 6.62182 4.2857 6.49723 4.2857 6.36733C4.2857 6.23743 4.33086 6.11285 4.41123 6.021C4.4916 5.92914 4.60061 5.87754 4.71428 5.87754H7.2857C7.39936 5.87754 7.50837 5.92914 7.58874 6.021C7.66912 6.11285 7.71427 6.23743 7.71427 6.36733C7.71427 6.49723 7.66912 6.62182 7.58874 6.71367C7.50837 6.80552 7.39936 6.85713 7.2857 6.85713Z" fill="#23553A"/>
</svg>
