<svg width="18" height="19" viewBox="0 0 18 19" fill="none" xmlns="http://www.w3.org/2000/svg">
<path fill-rule="evenodd" clip-rule="evenodd" d="M15.0891 10.9265C15.0891 10.9265 13.9728 16.2548 10.3886 18.3073C21.862 15.2037 18.1359 2.22686 13.6056 2.21989C12.1997 -1.69346 1.68269 -0.616955 0.21975 6.92308C-1.24319 14.4631 5.05866 17.7543 5.55801 18.0574C4.78695 16.9111 4.16642 15.6665 3.71227 14.3556C3.2117 14.0448 2.8389 13.5589 2.66334 12.9884C2.48385 12.4414 2.4482 11.8558 2.55996 11.2903C2.20593 11.2251 1.93383 11.1535 1.93383 11.1535C1.86842 10.322 1.87821 9.48616 1.96308 8.65654C2.15327 6.71852 2.83548 4.12953 5.29371 2.71061C7.01168 1.71921 10.7158 1.4415 12.9458 2.87386C15.5606 4.55307 16.2721 8.19418 16.0921 11.149L15.0891 10.9265Z" fill="#F9A74E"/>
</svg>
