<svg width="16" height="12" viewBox="0 0 16 12" fill="none" xmlns="http://www.w3.org/2000/svg">
<path d="M14.0739 0C13.3213 0 12.7192 0.588055 12.7192 1.32312C12.7192 1.72741 12.9073 2.09495 13.1896 2.33384L9.85924 8.30628C9.72753 8.26953 9.61464 8.25115 9.46411 8.25115C9.18188 8.25115 8.91847 8.32466 8.7115 8.47167L6.1338 5.99081C6.26551 5.78867 6.34077 5.5314 6.34077 5.27412C6.34077 4.53905 5.73868 3.951 4.98607 3.951C4.23345 3.951 3.63136 4.53905 3.63136 5.27412C3.63136 5.64166 3.78188 5.97244 4.02648 6.21133L1.8439 9.44564C1.69338 9.39051 1.52404 9.35375 1.3547 9.35375C0.602091 9.35375 0 9.94181 0 10.6769C0 11.4119 0.602091 12 1.3547 12C2.10732 12 2.70941 11.4119 2.70941 10.6769C2.70941 10.3093 2.55889 9.97856 2.31429 9.73966L4.47805 6.50536C4.62857 6.56049 4.79791 6.59724 4.96725 6.59724C5.24948 6.59724 5.51289 6.52374 5.71986 6.37672L8.31638 8.85758C8.18467 9.0781 8.10941 9.33538 8.10941 9.59265C8.10941 10.3277 8.7115 10.9158 9.46411 10.9158C10.2167 10.9158 10.8188 10.3277 10.8188 9.59265C10.8188 9.18836 10.6307 8.82083 10.3484 8.58193L13.6788 2.6095C13.8105 2.64625 13.9422 2.66463 14.0739 2.66463C14.8265 2.66463 15.4286 2.07657 15.4286 1.3415C15.4286 0.606432 14.8265 0 14.0739 0ZM10.2732 9.59265C10.2732 10.0153 9.91568 10.3645 9.48293 10.3645C9.05018 10.3645 8.69269 10.0153 8.69269 9.59265C8.69269 9.16999 9.05018 8.82083 9.48293 8.82083C9.91568 8.80245 10.2732 9.15161 10.2732 9.59265ZM4.17701 5.27412C4.17701 4.85146 4.5345 4.5023 4.96725 4.5023C5.4 4.5023 5.75749 4.85146 5.75749 5.27412C5.75749 5.69679 5.4 6.04594 4.96725 6.04594C4.5345 6.06432 4.17701 5.71516 4.17701 5.27412ZM2.14495 10.6953C2.14495 11.1179 1.78746 11.4671 1.3547 11.4671C0.921952 11.4671 0.56446 11.1179 0.56446 10.6953C0.56446 10.2726 0.921952 9.92343 1.3547 9.92343C1.78746 9.90506 2.14495 10.2542 2.14495 10.6953ZM14.0739 2.11332C13.6411 2.11332 13.2836 1.76417 13.2836 1.3415C13.2836 0.918836 13.6411 0.569678 14.0739 0.569678C14.5066 0.569678 14.8641 0.918836 14.8641 1.3415C14.8641 1.76417 14.5066 2.11332 14.0739 2.11332Z" fill="#23553A"/>
</svg>
