<svg width="22" height="8" viewBox="0 0 22 8" fill="none" xmlns="http://www.w3.org/2000/svg">
<path fill-rule="evenodd" clip-rule="evenodd" d="M22 2.85555C21.7125 2.15058 21.7479 1.44815 19.6912 0.395273C19.5773 0.316844 19.4529 0.255598 19.3219 0.213427C19.0783 0.15434 18.6431 0.0677452 18.4275 0.0239391C17.845 3.6573 8.80149 8.61351 3.97577 0C3.45671 0.124287 2.36919 0.383048 2.07872 0.462001C0.0359346 1.38855 0.26951 1.95243 0 2.7063C1.42552 4.20717 3.12971 5.40316 5.01309 6.22447C6.89646 7.04577 8.92128 7.47593 10.9693 7.48982C13.0174 7.50371 15.0476 7.10107 16.9415 6.30539C18.8354 5.50971 20.555 4.33694 22 2.85555Z" fill="black"/>
</svg>
