<svg width="12" height="12" viewBox="0 0 12 12" fill="none" xmlns="http://www.w3.org/2000/svg">
<path d="M5.99998 0C4.60659 0.00317497 3.25737 0.46796 2.18181 1.3153V1.04348C2.18181 0.905102 2.12435 0.772396 2.02205 0.674551C1.91976 0.576706 1.78102 0.521738 1.63636 0.521738C1.4917 0.521738 1.35296 0.576706 1.25067 0.674551C1.14837 0.772396 1.09091 0.905102 1.09091 1.04348V2.60869C1.09091 2.62173 1.09745 2.63321 1.09854 2.64625C1.10219 2.6795 1.10913 2.71235 1.11927 2.74434C1.1275 2.77657 1.13882 2.80801 1.15309 2.83825C1.16857 2.86695 1.18683 2.8942 1.20763 2.91964C1.21962 2.93985 1.23311 2.9592 1.248 2.97756C1.25781 2.98695 1.27091 2.9906 1.28127 2.99895C1.29163 3.0073 1.29654 3.01877 1.30691 3.0266C1.32595 3.03663 1.34562 3.04552 1.36581 3.05321C1.39782 3.07179 1.43184 3.08701 1.46727 3.0986C1.49999 3.10813 1.5336 3.11459 1.56763 3.1179C1.59024 3.12348 1.61319 3.12766 1.63636 3.13043H3.27272C3.41738 3.13043 3.55612 3.07546 3.65841 2.97761C3.7607 2.87977 3.81817 2.74706 3.81817 2.60869C3.81817 2.47032 3.7607 2.33761 3.65841 2.23976C3.55612 2.14192 3.41738 2.08695 3.27272 2.08695H2.92308C3.78987 1.42068 4.86765 1.05596 5.97963 1.05262C7.09161 1.04927 8.17177 1.40749 9.04293 2.06852C9.91409 2.72956 10.5245 3.65415 10.7741 4.69065C11.0237 5.72715 10.8976 6.81401 10.4165 7.77296C9.93547 8.73191 9.12797 9.50601 8.12649 9.96828C7.12502 10.4306 5.98904 10.5536 4.90487 10.3171C3.82071 10.0807 2.85274 9.4988 2.15974 8.66698C1.46674 7.83516 1.08986 6.80275 1.09091 5.73911C1.09091 5.60074 1.03344 5.46804 0.931147 5.37019C0.828854 5.27235 0.690116 5.21738 0.545453 5.21738C0.40079 5.21738 0.262052 5.27235 0.159759 5.37019C0.0574672 5.46804 0 5.60074 0 5.73911C0 6.8742 0.351893 7.9838 1.01118 8.9276C1.67047 9.87139 2.60754 10.607 3.70389 11.0414C4.80024 11.4757 6.00664 11.5894 7.17052 11.368C8.33441 11.1465 9.4035 10.5999 10.2426 9.79728C11.0817 8.99465 11.6532 7.97204 11.8847 6.85876C12.1162 5.74548 11.9974 4.59154 11.5432 3.54285C11.0891 2.49416 10.3201 1.59784 9.3334 0.967215C8.3467 0.336593 7.18667 0 5.99998 0Z" fill="#23553A"/>
</svg>
