<svg width="4" height="5" viewBox="0 0 4 5" fill="none" xmlns="http://www.w3.org/2000/svg">
<path d="M3.26705 5.00001C3.44035 5.00001 3.60654 4.93416 3.72908 4.81695C3.85162 4.69974 3.92046 4.54077 3.92046 4.37501V0.625001C3.92046 0.45924 3.85162 0.300269 3.72908 0.183059C3.60654 0.0658483 3.44035 0 3.26705 0C3.09376 0 2.92756 0.0658483 2.80502 0.183059C2.68248 0.300269 2.61364 0.45924 2.61364 0.625001V3.75001H0.65341C0.480115 3.75001 0.313918 3.81585 0.19138 3.93306C0.0688414 4.05028 0 4.20925 0 4.37501C0 4.54077 0.0688414 4.69974 0.19138 4.81695C0.313918 4.93416 0.480115 5.00001 0.65341 5.00001H3.26705Z" fill="#23553A"/>
</svg>
