<svg width="11" height="8" viewBox="0 0 11 8" fill="none" xmlns="http://www.w3.org/2000/svg">
<path d="M9.62497 7.5263H1.375C1.01032 7.5263 0.660589 7.37762 0.402727 7.11297C0.144865 6.84832 0 6.48938 0 6.11511V0.470393C0 0.345637 0.0482885 0.225991 0.134242 0.137775C0.220196 0.0495593 0.336775 0 0.458332 0H10.5416C10.6632 0 10.7798 0.0495593 10.8657 0.137775C10.9517 0.225991 11 0.345637 11 0.470393V6.11511C11 6.48938 10.8551 6.84832 10.5972 7.11297C10.3394 7.37762 9.98965 7.5263 9.62497 7.5263ZM0.916664 0.940787V6.11511C0.916664 6.23987 0.964953 6.35952 1.05091 6.44773C1.13686 6.53595 1.25344 6.58551 1.375 6.58551H9.62497C9.74653 6.58551 9.86311 6.53595 9.94906 6.44773C10.035 6.35952 10.0833 6.23987 10.0833 6.11511V0.940787H0.916664Z" fill="#23553A"/>
</svg>
