<svg width="10" height="7" viewBox="0 0 10 7" fill="none" xmlns="http://www.w3.org/2000/svg">
<path fill-rule="evenodd" clip-rule="evenodd" d="M4.02753 1.41604C4.75217 1.69417 5.5493 1.70484 6.28085 1.44623C7.01239 1.18761 7.63227 0.675995 8.03309 0L9.99999 0.951084C9.99999 0.951084 8.61253 4.28069 5.57819 3.57701C4.44802 3.31496 3.73302 3.00733 3.08023 2.88146C0.95491 2.47184 0.21493 4.53948 2.54597 5.11187C3.82977 5.42654 5.49898 5.08908 5.90459 4.30998C6.62755 5.30067 5.43519 7.00372 4.37094 6.96303C1.44982 6.85018 -0.0179093 5.55947 0.000164906 3.87595C0.0187707 2.12135 1.2829 0.504025 4.02753 1.41604Z" fill="#E9573E"/>
</svg>
