<svg width="22" height="12" viewBox="0 0 22 12" fill="none" xmlns="http://www.w3.org/2000/svg">
<path fill-rule="evenodd" clip-rule="evenodd" d="M22 7.14244C21.6965 6.39774 21.7534 5.65609 19.3224 4.50032C18.1779 4.22424 15.2248 3.82845 14.6668 2.76845C14.3843 2.23258 14.4522 1.47718 14.4522 0.0728393L7.99895 0C7.99895 1.41504 8.05335 2.16942 7.73743 2.69917C7.14351 3.69602 3.27804 4.42289 2.07872 4.74889C0.0359346 5.67544 0.26951 6.23881 0 6.99319C1.42552 8.49406 3.12971 9.69005 5.01309 10.5114C6.89646 11.3327 8.92128 11.7628 10.9693 11.7767C13.0174 11.7906 15.0476 11.388 16.9415 10.5923C18.8354 9.7966 20.555 8.62383 22 7.14244Z" fill="#F9DCA4"/>
</svg>
