<svg width="16" height="15" viewBox="0 0 16 15" fill="none" xmlns="http://www.w3.org/2000/svg">
<path d="M15 8.36397C15.5523 8.36397 16 7.91625 16 7.36397C16 6.81168 15.5523 6.36397 15 6.36397V8.36397ZM0.292893 6.65686C-0.0976315 7.04739 -0.0976315 7.68055 0.292893 8.07107L6.65685 14.435C7.04738 14.8256 7.68054 14.8256 8.07107 14.435C8.46159 14.0445 8.46159 13.4113 8.07107 13.0208L2.41421 7.36397L8.07107 1.70711C8.46159 1.31659 8.46159 0.683424 8.07107 0.2929C7.68054 -0.0976243 7.04738 -0.0976243 6.65685 0.2929L0.292893 6.65686ZM15 6.36397L1 6.36397V8.36397L15 8.36397V6.36397Z" fill="white"/>
</svg>
