<svg width="88" height="89" viewBox="0 0 88 89" fill="none" xmlns="http://www.w3.org/2000/svg">
<path fill-rule="evenodd" clip-rule="evenodd" d="M73.29 53.1187C73.29 53.1187 67.8683 79.022 50.4593 89C106.187 73.912 88.0888 10.8258 66.0848 10.7919C59.2562 -8.23269 8.17309 -2.9993 1.06736 33.6562C-6.03837 70.3117 24.5707 86.3119 26.9962 87.7854C23.251 82.2125 20.237 76.1622 18.0311 69.7891C15.5997 68.2784 13.789 65.9162 12.9363 63.1427C12.0645 60.4833 11.8913 57.6366 12.4342 54.8874C10.7146 54.5704 9.3929 54.222 9.3929 54.222C9.0752 50.1799 9.12277 46.1165 9.53502 42.0834C10.4588 32.6618 13.7724 20.0755 25.7124 13.1775C34.0569 8.35786 52.0486 7.00778 62.8801 13.9711C75.5804 22.1345 79.0361 39.8356 78.1621 54.2002L73.29 53.1187Z" fill="#F9A74E"/>
</svg>
