<svg width="23" height="15" viewBox="0 0 23 15" fill="none" xmlns="http://www.w3.org/2000/svg">
<path d="M19.6875 15H2.8125C2.06658 15 1.35121 14.7037 0.823762 14.1762C0.296316 13.6488 0 12.9334 0 12.1875V0.9375C0 0.68886 0.0987722 0.450403 0.274588 0.274588C0.450403 0.0987722 0.68886 0 0.9375 0H21.5625C21.8111 0 22.0496 0.0987722 22.2254 0.274588C22.4012 0.450403 22.5 0.68886 22.5 0.9375V12.1875C22.5 12.9334 22.2037 13.6488 21.6762 14.1762C21.1488 14.7037 20.4334 15 19.6875 15ZM1.875 1.875V12.1875C1.875 12.4361 1.97377 12.6746 2.14959 12.8504C2.3254 13.0262 2.56386 13.125 2.8125 13.125H19.6875C19.9361 13.125 20.1746 13.0262 20.3504 12.8504C20.5262 12.6746 20.625 12.4361 20.625 12.1875V1.875H1.875Z" fill="black"/>
</svg>
