<svg width="105" height="36" viewBox="0 0 105 36" fill="none" xmlns="http://www.w3.org/2000/svg">
<path fill-rule="evenodd" clip-rule="evenodd" d="M105 13.6408C103.628 10.2732 103.797 6.91773 93.9807 1.8882C93.4371 1.51355 92.8434 1.22098 92.218 1.01953C91.0556 0.737273 88.9784 0.323615 87.9494 0.114356C85.1696 17.4707 42.0071 41.1463 18.9753 0C16.498 0.593714 11.3075 1.8298 9.92117 2.20695C0.171506 6.63304 1.2863 9.32666 0 12.9279C6.80362 20.0974 14.9373 25.8106 23.9261 29.734C32.915 33.6573 42.5789 35.7121 52.3536 35.7785C62.1284 35.8449 71.8182 33.9214 80.8573 30.1205C89.8964 26.3196 98.1037 20.7173 105 13.6408Z" fill="black"/>
</svg>
