<svg width="24" height="24" viewBox="0 0 24 24" fill="none" xmlns="http://www.w3.org/2000/svg">
<path d="M12 0C9.21319 0.00663857 6.51474 0.978464 4.36363 2.75018V2.18181C4.36363 1.89249 4.24869 1.61501 4.04411 1.41043C3.83952 1.20584 3.56205 1.09091 3.27272 1.09091C2.9834 1.09091 2.70592 1.20584 2.50133 1.41043C2.29675 1.61501 2.18181 1.89249 2.18181 2.18181V5.45454C2.18181 5.48181 2.19491 5.50581 2.19709 5.53308C2.20437 5.6026 2.21826 5.67128 2.23854 5.73817C2.25501 5.80557 2.27765 5.8713 2.30618 5.93454C2.33715 5.99455 2.37367 6.05152 2.41527 6.10472C2.43925 6.14696 2.46623 6.18743 2.496 6.22581C2.51563 6.24544 2.54181 6.25308 2.56254 6.27053C2.58327 6.28799 2.59309 6.31199 2.61381 6.32835C2.6519 6.34932 2.69124 6.3679 2.73163 6.38399C2.79565 6.42285 2.86368 6.45467 2.93454 6.4789C2.99998 6.49882 3.06721 6.51234 3.13527 6.51926C3.18048 6.53092 3.22639 6.53967 3.27272 6.54544H6.54544C6.83477 6.54544 7.11225 6.43051 7.31683 6.22592C7.52142 6.02134 7.63635 5.74386 7.63635 5.45454C7.63635 5.16521 7.52142 4.88773 7.31683 4.68315C7.11225 4.47856 6.83477 4.36363 6.54544 4.36363H5.84617C7.57976 2.97052 9.73532 2.20793 11.9593 2.20093C14.1832 2.19392 16.3436 2.94293 18.0859 4.3251C19.8282 5.70726 21.0491 7.64051 21.5482 9.80774C22.0474 11.975 21.7953 14.2475 20.8331 16.2526C19.871 18.2576 18.256 19.8762 16.253 20.8428C14.2501 21.8094 11.9781 22.0665 9.80976 21.5722C7.64143 21.0778 5.70549 19.8612 4.31949 18.1219C2.93349 16.3826 2.17972 14.224 2.18181 12C2.18181 11.7107 2.06688 11.4332 1.8623 11.2286C1.65771 11.024 1.38023 10.9091 1.09091 10.9091C0.801581 10.9091 0.524104 11.024 0.319519 11.2286C0.114934 11.4332 0 11.7107 0 12C0 14.3734 0.703786 16.6934 2.02236 18.6668C3.34094 20.6402 5.21508 22.1783 7.40779 23.0865C9.6005 23.9948 12.0133 24.2324 14.3411 23.7694C16.6688 23.3064 18.807 22.1635 20.4852 20.4852C22.1635 18.807 23.3064 16.6688 23.7694 14.3411C24.2324 12.0133 23.9948 9.6005 23.0865 7.40779C22.1783 5.21508 20.6402 3.34094 18.6668 2.02236C16.6934 0.703786 14.3734 0 12 0Z" fill="black"/>
</svg>
