<svg width="7" height="9" viewBox="0 0 7 9" fill="none" xmlns="http://www.w3.org/2000/svg">
<path d="M5.62499 8.99998C5.92335 8.99998 6.2095 8.88145 6.42048 8.67048C6.63146 8.4595 6.74998 8.17335 6.74998 7.87498V1.125C6.74998 0.82663 6.63146 0.540482 6.42048 0.329504C6.2095 0.118526 5.92335 0 5.62499 0C5.32662 0 5.04047 0.118526 4.82949 0.329504C4.61852 0.540482 4.49999 0.82663 4.49999 1.125V6.74998H1.125C0.82663 6.74998 0.540482 6.86851 0.329504 7.07949C0.118526 7.29047 0 7.57661 0 7.87498C0 8.17335 0.118526 8.4595 0.329504 8.67048C0.540482 8.88145 0.82663 8.99998 1.125 8.99998H5.62499Z" fill="black"/>
</svg>
