<svg width="40" height="28" viewBox="0 0 40 28" fill="none" xmlns="http://www.w3.org/2000/svg">
<path fill-rule="evenodd" clip-rule="evenodd" d="M2.24325 0.137532C1.71654 1.0376 1.55609 2.11266 1.7963 3.13217C2.02085 6.09139 1.65293 9.06633 0.714968 11.8755C-5.19149 22.0524 27.0682 39.1759 39.751 15.7293C41.409 13.1912 34.1569 10.8618 36.4877 3.0389C36.6239 2.70369 36.6767 2.33924 36.6413 1.97812C36.6059 1.61699 36.4835 1.27045 36.285 0.969455C36.0865 0.668459 35.8181 0.422389 35.5037 0.25323C35.1894 0.0840704 34.8389 -0.00290516 34.4837 7.4036e-05C34.4837 7.4036e-05 21.6423 10.9992 2.24325 0.137532Z" fill="#E9573E"/>
</svg>
