<svg width="105" height="56" viewBox="0 0 105 56" fill="none" xmlns="http://www.w3.org/2000/svg">
<path fill-rule="evenodd" clip-rule="evenodd" d="M104.518 33.9624C103.076 30.4213 103.346 26.8947 91.7968 21.399C86.3599 20.0863 72.3302 18.2043 69.6793 13.164C68.3372 10.616 68.6597 7.02402 68.6597 0.346351L38.0015 0C38.0015 6.72853 38.2599 10.3156 36.759 12.8346C33.9374 17.5746 15.5733 21.0309 9.8756 22.581C0.170719 26.9868 1.28039 29.6656 0 33.2527C6.77237 40.3893 14.8687 46.0763 23.8162 49.9816C32.7638 53.8869 42.3833 55.9323 52.1132 55.9983C61.843 56.0644 71.4883 54.1498 80.4859 50.3664C89.4835 46.5829 97.6531 41.0064 104.518 33.9624Z" fill="#F9DCA4"/>
</svg>
