<svg width="45" height="31" viewBox="0 0 45 31" fill="none" xmlns="http://www.w3.org/2000/svg">
<path fill-rule="evenodd" clip-rule="evenodd" d="M17.9132 6.3037C21.1362 7.54179 24.6816 7.58932 27.9353 6.43807C31.189 5.28681 33.946 3.00928 35.7287 0L44.4769 4.23387C44.4769 4.23387 38.3059 19.056 24.8101 15.9235C19.7834 14.7569 16.6033 13.3875 13.6999 12.8272C4.24715 11.0037 0.955942 20.2081 11.3237 22.7561C17.0337 24.1569 24.4578 22.6547 26.2618 19.1864C29.4773 23.5966 24.1741 31.178 19.4406 30.9968C6.44837 30.4944 -0.0796551 24.7487 0.000733452 17.2543C0.0834864 9.44347 5.70596 2.24373 17.9132 6.3037Z" fill="#E9573E"/>
</svg>
