<svg width="7" height="9" viewBox="0 0 7 9" fill="none" xmlns="http://www.w3.org/2000/svg">
<path d="M5.62495 8.99992C5.92331 8.99992 6.20946 8.88139 6.42044 8.67041C6.63141 8.45944 6.74994 8.17329 6.74994 7.87493V1.12499C6.74994 0.826624 6.63141 0.540478 6.42044 0.329502C6.20946 0.118526 5.92331 0 5.62495 0C5.32658 0 5.04044 0.118526 4.82946 0.329502C4.61848 0.540478 4.49996 0.826624 4.49996 1.12499V6.74994H1.12499C0.826624 6.74994 0.540478 6.86846 0.329502 7.07944C0.118526 7.29042 0 7.57656 0 7.87493C0 8.17329 0.118526 8.45944 0.329502 8.67041C0.540478 8.88139 0.826624 8.99992 1.12499 8.99992H5.62495Z" fill="black"/>
</svg>
