<svg width="32" height="26" viewBox="0 0 32 26" fill="none" xmlns="http://www.w3.org/2000/svg">
<path d="M29.1903 0C27.6293 0 26.3805 1.24878 26.3805 2.80976C26.3805 3.66829 26.7707 4.44878 27.3561 4.9561L20.4488 17.639C20.1756 17.561 19.9415 17.522 19.6293 17.522C19.0439 17.522 18.4976 17.6781 18.0683 17.9903L12.722 12.722C12.9951 12.2927 13.1512 11.7463 13.1512 11.2C13.1512 9.63903 11.9024 8.39025 10.3415 8.39025C8.78049 8.39025 7.53171 9.63903 7.53171 11.2C7.53171 11.9805 7.84391 12.6829 8.35123 13.1903L3.82439 20.0585C3.5122 19.9415 3.16098 19.8634 2.80976 19.8634C1.24878 19.8634 0 21.1122 0 22.6732C0 24.2342 1.24878 25.4829 2.80976 25.4829C4.37073 25.4829 5.61952 24.2342 5.61952 22.6732C5.61952 21.8927 5.30732 21.1903 4.8 20.6829L9.28781 13.8146C9.60001 13.9317 9.95123 14.0098 10.3024 14.0098C10.8878 14.0098 11.4342 13.8537 11.8634 13.5415L17.2488 18.8098C16.9756 19.2781 16.8195 19.8244 16.8195 20.3707C16.8195 21.9317 18.0683 23.1805 19.6293 23.1805C21.1903 23.1805 22.439 21.9317 22.439 20.3707C22.439 19.5122 22.0488 18.7317 21.4634 18.2244L28.3708 5.54147C28.6439 5.61952 28.9171 5.65854 29.1903 5.65854C30.7512 5.65854 32 4.40976 32 2.84878C32 1.28781 30.7512 0 29.1903 0ZM21.3073 20.3707C21.3073 21.2683 20.5659 22.0098 19.6683 22.0098C18.7707 22.0098 18.0293 21.2683 18.0293 20.3707C18.0293 19.4732 18.7707 18.7317 19.6683 18.7317C20.5659 18.6927 21.3073 19.4342 21.3073 20.3707ZM8.66342 11.2C8.66342 10.3024 9.40488 9.56098 10.3024 9.56098C11.2 9.56098 11.9415 10.3024 11.9415 11.2C11.9415 12.0976 11.2 12.839 10.3024 12.839C9.40488 12.8781 8.66342 12.1366 8.66342 11.2ZM4.44878 22.7122C4.44878 23.6098 3.70732 24.3512 2.80976 24.3512C1.9122 24.3512 1.17073 23.6098 1.17073 22.7122C1.17073 21.8146 1.9122 21.0732 2.80976 21.0732C3.70732 21.0342 4.44878 21.7756 4.44878 22.7122ZM29.1903 4.48781C28.2927 4.48781 27.5512 3.74634 27.5512 2.84878C27.5512 1.95122 28.2927 1.20976 29.1903 1.20976C30.0878 1.20976 30.8293 1.95122 30.8293 2.84878C30.8293 3.74634 30.0878 4.48781 29.1903 4.48781Z" fill="white"/>
</svg>
