<svg width="22" height="12" viewBox="0 0 22 12" fill="none" xmlns="http://www.w3.org/2000/svg">
<path fill-rule="evenodd" clip-rule="evenodd" d="M22 7.14245C21.6966 6.39774 21.7535 5.6561 19.3224 4.50032C18.178 4.22424 15.2248 3.82846 14.6668 2.76845C14.3844 2.23259 14.4522 1.47719 14.4522 0.0728394L7.99896 0C7.99896 1.41504 8.05336 2.16943 7.73744 2.69918C7.14352 3.69602 3.27804 4.4229 2.07872 4.7489C0.0359347 5.67545 0.26951 6.23882 0 6.9932C1.42552 8.49407 3.12972 9.69007 5.01309 10.5114C6.89647 11.3327 8.92129 11.7628 10.9693 11.7767C13.0174 11.7906 15.0476 11.388 16.9415 10.5923C18.8354 9.79661 20.5551 8.62384 22 7.14245Z" fill="#F9DCA4"/>
</svg>
