<svg width="3" height="3" viewBox="0 0 3 3" fill="none" xmlns="http://www.w3.org/2000/svg">
<path d="M1.21101 0.495413L1.37615 0.0825688C1.43119 -0.0275229 1.59633 -0.0275229 1.62385 0.0825688L1.78899 0.495413C1.92661 0.825688 2.17431 1.07339 2.50459 1.21101L2.91743 1.37615C3.02752 1.43119 3.02752 1.59633 2.91743 1.62385L2.50459 1.78899C2.17431 1.92661 1.92661 2.17431 1.78899 2.50459L1.62385 2.91743C1.56881 3.02752 1.40367 3.02752 1.37615 2.91743L1.21101 2.50459C1.0734 2.17431 0.825688 1.92661 0.495413 1.78899L0.0825688 1.62385C-0.0275229 1.56881 -0.0275229 1.40367 0.0825688 1.37615L0.495413 1.21101C0.825688 1.07339 1.10092 0.798165 1.21101 0.495413Z" fill="white"/>
</svg>
