<svg width="22" height="8" viewBox="0 0 22 8" fill="none" xmlns="http://www.w3.org/2000/svg">
<path fill-rule="evenodd" clip-rule="evenodd" d="M22 2.85555C21.7125 2.15058 21.748 1.44815 19.6912 0.395273C19.5773 0.316844 19.4529 0.255599 19.3219 0.213427C19.0783 0.15434 18.6431 0.0677453 18.4275 0.0239391C17.8451 3.65731 8.8015 8.61352 3.97577 0C3.45672 0.124287 2.36919 0.383049 2.07872 0.462002C0.0359347 1.38855 0.26951 1.95243 0 2.70631C1.42552 4.20717 3.12972 5.40317 5.01309 6.22447C6.89647 7.04578 8.92129 7.47594 10.9693 7.48983C13.0174 7.50372 15.0476 7.10108 16.9415 6.3054C18.8354 5.50972 20.5551 4.33695 22 2.85555Z" fill="#E9573E"/>
</svg>
