<svg width="18" height="19" viewBox="0 0 18 19" fill="none" xmlns="http://www.w3.org/2000/svg">
<path fill-rule="evenodd" clip-rule="evenodd" d="M15.0891 10.9265C15.0891 10.9265 13.9729 16.2548 10.3886 18.3073C21.862 15.2037 18.1359 2.22686 13.6057 2.21989C12.1998 -1.69347 1.68269 -0.616956 0.21975 6.92309C-1.24319 14.4631 5.05867 17.7544 5.55802 18.0575C4.78696 16.9111 4.16643 15.6666 3.71228 14.3556C3.2117 14.0449 2.83891 13.559 2.66335 12.9885C2.48386 12.4414 2.44821 11.8559 2.55997 11.2903C2.20594 11.2251 1.93383 11.1535 1.93383 11.1535C1.86842 10.322 1.87821 9.48618 1.96309 8.65655C2.15327 6.71854 2.83549 4.12954 5.29372 2.71062C7.01169 1.71921 10.7159 1.4415 12.9459 2.87386C15.5606 4.55308 16.2721 8.1942 16.0922 11.149L15.0891 10.9265Z" fill="#F9A74E"/>
</svg>
