<svg width="15" height="15" viewBox="0 0 15 15" fill="none" xmlns="http://www.w3.org/2000/svg">
<path d="M0.265196 13.3217C-0.109407 13.7275 -0.0841008 14.3602 0.321719 14.7348C0.72754 15.1094 1.3602 15.0841 1.7348 14.6783L0.265196 13.3217ZM13.9992 0.960045C13.9771 0.408203 13.5119 -0.0212602 12.96 0.000813283L3.96722 0.360526C3.41538 0.382599 2.98591 0.847851 3.00799 1.39969C3.03006 1.95154 3.49531 2.381 4.04715 2.35892L12.0408 2.03918L12.3605 10.0328C12.3826 10.5846 12.8478 11.0141 13.3997 10.992C13.9515 10.9699 14.381 10.5047 14.3589 9.95284L13.9992 0.960045ZM1.7348 14.6783L13.7348 1.67829L12.2652 0.321734L0.265196 13.3217L1.7348 14.6783Z" fill="black"/>
</svg>
