<svg width="12" height="12" viewBox="0 0 12 12" fill="none" xmlns="http://www.w3.org/2000/svg">
<path d="M5.49918 0.882605C5.6712 0.417734 6.3287 0.417734 6.50072 0.882604L7.49201 3.56153C7.65426 3.99999 7.99996 4.34569 8.43842 4.50794L11.1173 5.49923C11.5822 5.67125 11.5822 6.32875 11.1173 6.50077L8.43842 7.49206C7.99996 7.65431 7.65426 8.00001 7.49201 8.43847L6.50072 11.1174C6.3287 11.5823 5.6712 11.5823 5.49918 11.1174L4.50789 8.43847C4.34564 8.00001 3.99994 7.65431 3.56148 7.49206L0.882556 6.50077C0.417685 6.32875 0.417686 5.67125 0.882555 5.49923L3.56148 4.50794C3.99994 4.34569 4.34564 3.99999 4.50789 3.56153L5.49918 0.882605Z" fill="#F8DF00" stroke="black"/>
</svg>
