<svg width="10" height="7" viewBox="0 0 10 7" fill="none" xmlns="http://www.w3.org/2000/svg">
<path fill-rule="evenodd" clip-rule="evenodd" d="M4.02758 1.41606C4.75223 1.69419 5.54938 1.70487 6.28093 1.44625C7.01249 1.18763 7.63237 0.676004 8.0332 0L10.0001 0.951097C10.0001 0.951097 8.61264 4.28074 5.57826 3.57705C4.44808 3.315 3.73307 3.00737 3.08027 2.8815C0.954923 2.47187 0.214933 4.53954 2.54601 5.11193C3.82982 5.42662 5.49905 5.08915 5.90467 4.31004C6.62764 5.30074 5.43526 7.00382 4.37099 6.96313C1.44984 6.85028 -0.0179095 5.55954 0.000164908 3.876C0.018771 2.12138 1.28292 0.504032 4.02758 1.41606Z" fill="#E9573E"/>
</svg>
