<svg width="22" height="8" viewBox="0 0 22 8" fill="none" xmlns="http://www.w3.org/2000/svg">
<path fill-rule="evenodd" clip-rule="evenodd" d="M22.0001 2.85557C21.7126 2.15059 21.7481 1.44816 19.6913 0.395275C19.5774 0.316846 19.453 0.2556 19.322 0.213428C19.0784 0.154341 18.6432 0.0677456 18.4276 0.0239392C17.8451 3.65732 8.80154 8.61356 3.97579 0C3.45673 0.124288 2.3692 0.38305 2.07873 0.462004C0.0359349 1.38856 0.269511 1.95244 0 2.70632C1.42553 4.20719 3.12973 5.40319 5.01312 6.2245C6.8965 7.04581 8.92133 7.47597 10.9694 7.48986C13.0174 7.50376 15.0477 7.10111 16.9416 6.30542C18.8355 5.50974 20.5552 4.33696 22.0001 2.85557Z" fill="black"/>
</svg>
